%TF.GenerationSoftware,KiCad,Pcbnew,(6.0.1)*%
%TF.CreationDate,2022-01-30T17:08:52-06:00*%
%TF.ProjectId,BlackBox Hat,426c6163-6b42-46f7-9820-4861742e6b69,rev?*%
%TF.SameCoordinates,Original*%
%TF.FileFunction,Copper,L2,Bot*%
%TF.FilePolarity,Positive*%
%FSLAX46Y46*%
G04 Gerber Fmt 4.6, Leading zero omitted, Abs format (unit mm)*
G04 Created by KiCad (PCBNEW (6.0.1)) date 2022-01-30 17:08:52*
%MOMM*%
%LPD*%
G01*
G04 APERTURE LIST*
%TA.AperFunction,ComponentPad*%
%ADD10C,1.499000*%
%TD*%
%TA.AperFunction,ComponentPad*%
%ADD11R,1.499000X1.499000*%
%TD*%
%TA.AperFunction,ComponentPad*%
%ADD12C,1.524000*%
%TD*%
%TA.AperFunction,ComponentPad*%
%ADD13C,1.700000*%
%TD*%
%TA.AperFunction,ComponentPad*%
%ADD14R,1.700000X1.700000*%
%TD*%
%TA.AperFunction,ViaPad*%
%ADD15C,0.800000*%
%TD*%
%TA.AperFunction,Conductor*%
%ADD16C,0.250000*%
%TD*%
G04 APERTURE END LIST*
D10*
%TO.P,S1,8*%
%TO.N,N/C*%
X23495000Y-112133000D03*
%TO.P,S1,7*%
X26035000Y-112133000D03*
%TO.P,S1,6*%
%TO.N,SDA*%
X28575000Y-112133000D03*
%TO.P,S1,1*%
%TO.N,3.3V*%
X41275000Y-112133000D03*
%TO.P,S1,2*%
%TO.N,N/C*%
X38735000Y-112133000D03*
%TO.P,S1,3*%
%TO.N,GND*%
X36195000Y-112133000D03*
%TO.P,S1,4*%
%TO.N,SCL*%
X33655000Y-112133000D03*
%TO.P,S1,5*%
%TO.N,N/C*%
X31115000Y-112133000D03*
%TD*%
D11*
%TO.P,P2,1*%
%TO.N,GP12*%
X68667500Y-94116250D03*
D10*
%TO.P,P2,2*%
%TO.N,GP13*%
X71207500Y-94116250D03*
%TO.P,P2,3*%
%TO.N,GP20*%
X68667500Y-96656250D03*
%TO.P,P2,4*%
%TO.N,GP21*%
X71207500Y-96656250D03*
%TO.P,P2,5*%
%TO.N,3.3V*%
X68667500Y-99196250D03*
%TO.P,P2,6*%
%TO.N,GND*%
X71207500Y-99196250D03*
%TD*%
D11*
%TO.P,P1,1*%
%TO.N,SCL*%
X54595750Y-94116250D03*
D10*
%TO.P,P1,2*%
%TO.N,3.3V*%
X57135750Y-94116250D03*
%TO.P,P1,3*%
%TO.N,SDA*%
X54595750Y-96656250D03*
%TO.P,P1,4*%
%TO.N,5V*%
X57135750Y-96656250D03*
%TO.P,P1,5*%
%TO.N,GND*%
X54595750Y-99196250D03*
%TO.P,P1,6*%
X57135750Y-99196250D03*
%TD*%
D12*
%TO.P,S3,1*%
%TO.N,GND*%
X31877000Y-78486000D03*
%TO.P,S3,2*%
%TO.N,N/C*%
X29337000Y-78486000D03*
%TO.P,S3,4*%
X24257000Y-78486000D03*
%TO.P,S3,3*%
%TO.N,3.3V*%
X26797000Y-78486000D03*
%TO.P,S3,6*%
%TO.N,N/C*%
X19177000Y-78486000D03*
%TO.P,S3,5*%
X21717000Y-78486000D03*
%TO.P,S3,11*%
%TO.N,SDA*%
X21717000Y-98806000D03*
%TO.P,S3,12*%
%TO.N,N/C*%
X19177000Y-98806000D03*
%TO.P,S3,9*%
%TO.N,GND*%
X26797000Y-98806000D03*
%TO.P,S3,10*%
%TO.N,SCL*%
X24257000Y-98806000D03*
%TO.P,S3,8*%
%TO.N,N/C*%
X29337000Y-98806000D03*
%TO.P,S3,7*%
%TO.N,3.3V*%
X31877000Y-98806000D03*
%TD*%
%TO.P,S3,2*%
%TO.N,N/C*%
X54229000Y-124333000D03*
%TO.P,S3,3*%
X56769000Y-124333000D03*
%TO.P,S3,4*%
%TO.N,SDA*%
X59309000Y-124333000D03*
%TO.P,S3,5*%
%TO.N,SCL*%
X61849000Y-124333000D03*
%TO.P,S3,6*%
%TO.N,N/C*%
X64389000Y-124333000D03*
%TO.P,S3,1*%
%TO.N,3.3V*%
X51689000Y-124333000D03*
%TO.P,S3,7*%
%TO.N,N/C*%
X64389000Y-111633000D03*
%TO.P,S3,8*%
X61849000Y-111633000D03*
%TO.P,S3,9*%
X59309000Y-111633000D03*
%TO.P,S3,10*%
X56769000Y-111633000D03*
%TO.P,S3,11*%
X54229000Y-111633000D03*
%TO.P,S3,12*%
%TO.N,GND*%
X51689000Y-111633000D03*
%TD*%
D13*
%TO.P,X1,40*%
%TO.N,GP21*%
X69330000Y-104531000D03*
%TO.P,X1,39*%
%TO.N,GND*%
X69330000Y-107071000D03*
%TO.P,X1,38*%
%TO.N,GP20*%
X66790000Y-104531000D03*
%TO.P,X1,37*%
%TO.N,N/C*%
X66790000Y-107071000D03*
%TO.P,X1,36*%
X64250000Y-104531000D03*
%TO.P,X1,35*%
X64250000Y-107071000D03*
%TO.P,X1,34*%
%TO.N,GND*%
X61710000Y-104531000D03*
%TO.P,X1,33*%
%TO.N,GP13*%
X61710000Y-107071000D03*
%TO.P,X1,32*%
%TO.N,GP12*%
X59170000Y-104531000D03*
%TO.P,X1,31*%
%TO.N,N/C*%
X59170000Y-107071000D03*
%TO.P,X1,30*%
%TO.N,GND*%
X56630000Y-104531000D03*
%TO.P,X1,29*%
%TO.N,N/C*%
X56630000Y-107071000D03*
%TO.P,X1,28*%
X54090000Y-104531000D03*
%TO.P,X1,27*%
X54090000Y-107071000D03*
%TO.P,X1,26*%
X51550000Y-104531000D03*
%TO.P,X1,25*%
%TO.N,GND*%
X51550000Y-107071000D03*
%TO.P,X1,24*%
%TO.N,N/C*%
X49010000Y-104531000D03*
%TO.P,X1,23*%
X49010000Y-107071000D03*
%TO.P,X1,22*%
X46470000Y-104531000D03*
%TO.P,X1,21*%
X46470000Y-107071000D03*
%TO.P,X1,20*%
%TO.N,GND*%
X43930000Y-104531000D03*
%TO.P,X1,19*%
%TO.N,N/C*%
X43930000Y-107071000D03*
%TO.P,X1,18*%
X41390000Y-104531000D03*
%TO.P,X1,17*%
%TO.N,3.3V*%
X41390000Y-107071000D03*
%TO.P,X1,16*%
%TO.N,N/C*%
X38850000Y-104531000D03*
%TO.P,X1,15*%
X38850000Y-107071000D03*
%TO.P,X1,14*%
%TO.N,GND*%
X36310000Y-104531000D03*
%TO.P,X1,13*%
%TO.N,N/C*%
X36310000Y-107071000D03*
%TO.P,X1,12*%
X33770000Y-104531000D03*
%TO.P,X1,11*%
X33770000Y-107071000D03*
%TO.P,X1,10*%
X31230000Y-104531000D03*
%TO.P,X1,9*%
%TO.N,GND*%
X31230000Y-107071000D03*
%TO.P,X1,8*%
%TO.N,N/C*%
X28690000Y-104531000D03*
%TO.P,X1,7*%
X28690000Y-107071000D03*
%TO.P,X1,6*%
%TO.N,GND*%
X26150000Y-104531000D03*
%TO.P,X1,5*%
%TO.N,SCL*%
X26150000Y-107071000D03*
%TO.P,X1,4*%
%TO.N,5V*%
X23610000Y-104531000D03*
%TO.P,X1,3*%
%TO.N,SDA*%
X23610000Y-107071000D03*
%TO.P,X1,2*%
%TO.N,5V*%
X21070000Y-104531000D03*
D14*
%TO.P,X1,1*%
%TO.N,3.3V*%
X21070000Y-107071000D03*
%TD*%
D15*
%TO.N,5V*%
X45937500Y-100968750D03*
%TO.N,3.3V*%
X57135750Y-90145500D03*
%TD*%
D16*
%TO.N,GND*%
X34919489Y-105705511D02*
X32595489Y-105705511D01*
X35135489Y-105705511D02*
X34919489Y-105705511D01*
X43930000Y-104531000D02*
X42755489Y-105705511D01*
X42755489Y-105705511D02*
X34919489Y-105705511D01*
X32595489Y-105705511D02*
X31230000Y-107071000D01*
X36310000Y-104531000D02*
X35135489Y-105705511D01*
%TO.N,3.3V*%
X41390000Y-107071000D02*
X38186000Y-110275000D01*
X24274000Y-110275000D02*
X39417000Y-110275000D01*
X41275000Y-112133000D02*
X39417000Y-110275000D01*
X22968750Y-100125000D02*
X19781250Y-103312500D01*
X22968750Y-98250000D02*
X22968750Y-100125000D01*
X19781250Y-103312500D02*
X19781250Y-105782250D01*
X23535500Y-97683250D02*
X22968750Y-98250000D01*
X23535500Y-97683250D02*
X48880728Y-97683250D01*
X19781250Y-105782250D02*
X21070000Y-107071000D01*
%TO.N,5V*%
X54491868Y-97781250D02*
X56010750Y-97781250D01*
X56010750Y-97781250D02*
X57135750Y-96656250D01*
X51304368Y-100968750D02*
X54491868Y-97781250D01*
X45937500Y-100968750D02*
X51304368Y-100968750D01*
X21070000Y-104531000D02*
X23610000Y-104531000D01*
%TO.N,3.3V*%
X51689000Y-114126500D02*
X47837500Y-110275000D01*
X51689000Y-124333000D02*
X51689000Y-114126500D01*
X39350000Y-110275000D02*
X47837500Y-110275000D01*
X24274000Y-110275000D02*
X21070000Y-107071000D01*
X66758750Y-99196250D02*
X68667500Y-99196250D01*
X64031250Y-96468750D02*
X66758750Y-99196250D01*
X64031250Y-92062500D02*
X64031250Y-96468750D01*
X62114250Y-90145500D02*
X64031250Y-92062500D01*
X57135750Y-90145500D02*
X62114250Y-90145500D01*
X57093750Y-90093750D02*
X56470228Y-90093750D01*
X56470228Y-90093750D02*
X48880728Y-97683250D01*
X57135750Y-90135750D02*
X57093750Y-90093750D01*
X57135750Y-90145500D02*
X57135750Y-90135750D01*
X26797000Y-93726000D02*
X30754250Y-97683250D01*
X30754250Y-97683250D02*
X31877000Y-98806000D01*
X26797000Y-78486000D02*
X26797000Y-93726000D01*
%TO.N,SCL*%
X27515489Y-105705511D02*
X26150000Y-107071000D01*
X27515489Y-102064489D02*
X27515489Y-105705511D01*
X24257000Y-98806000D02*
X27515489Y-102064489D01*
%TD*%
%TA.AperFunction,Conductor*%
%TO.N,GND*%
G36*
X77134121Y-76428002D02*
G01*
X77180614Y-76481658D01*
X77192000Y-76534000D01*
X77192000Y-131766000D01*
X77171998Y-131834121D01*
X77118342Y-131880614D01*
X77066000Y-131892000D01*
X13334000Y-131892000D01*
X13265879Y-131871998D01*
X13219386Y-131818342D01*
X13208000Y-131766000D01*
X13208000Y-128908655D01*
X14439858Y-128908655D01*
X14475104Y-129167638D01*
X14476412Y-129172124D01*
X14476412Y-129172126D01*
X14496098Y-129239664D01*
X14548243Y-129418567D01*
X14657668Y-129655928D01*
X14660231Y-129659837D01*
X14798410Y-129870596D01*
X14798414Y-129870601D01*
X14800976Y-129874509D01*
X14975018Y-130069506D01*
X15175970Y-130236637D01*
X15179973Y-130239066D01*
X15395422Y-130369804D01*
X15395426Y-130369806D01*
X15399419Y-130372229D01*
X15640455Y-130473303D01*
X15893783Y-130537641D01*
X15898434Y-130538109D01*
X15898438Y-130538110D01*
X16091308Y-130557531D01*
X16110867Y-130559500D01*
X16266354Y-130559500D01*
X16268679Y-130559327D01*
X16268685Y-130559327D01*
X16456000Y-130545407D01*
X16456004Y-130545406D01*
X16460652Y-130545061D01*
X16465200Y-130544032D01*
X16465206Y-130544031D01*
X16651601Y-130501853D01*
X16715577Y-130487377D01*
X16751769Y-130473303D01*
X16954824Y-130394340D01*
X16954827Y-130394339D01*
X16959177Y-130392647D01*
X17186098Y-130262951D01*
X17391357Y-130101138D01*
X17570443Y-129910763D01*
X17719424Y-129696009D01*
X17835025Y-129461593D01*
X17914707Y-129212665D01*
X17956721Y-128954693D01*
X17957324Y-128908655D01*
X72439858Y-128908655D01*
X72475104Y-129167638D01*
X72476412Y-129172124D01*
X72476412Y-129172126D01*
X72496098Y-129239664D01*
X72548243Y-129418567D01*
X72657668Y-129655928D01*
X72660231Y-129659837D01*
X72798410Y-129870596D01*
X72798414Y-129870601D01*
X72800976Y-129874509D01*
X72975018Y-130069506D01*
X73175970Y-130236637D01*
X73179973Y-130239066D01*
X73395422Y-130369804D01*
X73395426Y-130369806D01*
X73399419Y-130372229D01*
X73640455Y-130473303D01*
X73893783Y-130537641D01*
X73898434Y-130538109D01*
X73898438Y-130538110D01*
X74091308Y-130557531D01*
X74110867Y-130559500D01*
X74266354Y-130559500D01*
X74268679Y-130559327D01*
X74268685Y-130559327D01*
X74456000Y-130545407D01*
X74456004Y-130545406D01*
X74460652Y-130545061D01*
X74465200Y-130544032D01*
X74465206Y-130544031D01*
X74651601Y-130501853D01*
X74715577Y-130487377D01*
X74751769Y-130473303D01*
X74954824Y-130394340D01*
X74954827Y-130394339D01*
X74959177Y-130392647D01*
X75186098Y-130262951D01*
X75391357Y-130101138D01*
X75570443Y-129910763D01*
X75719424Y-129696009D01*
X75835025Y-129461593D01*
X75914707Y-129212665D01*
X75956721Y-128954693D01*
X75960142Y-128693345D01*
X75924896Y-128434362D01*
X75910473Y-128384877D01*
X75853068Y-128187932D01*
X75851757Y-128183433D01*
X75742332Y-127946072D01*
X75709519Y-127896024D01*
X75601590Y-127731404D01*
X75601586Y-127731399D01*
X75599024Y-127727491D01*
X75424982Y-127532494D01*
X75224030Y-127365363D01*
X75176844Y-127336730D01*
X75004578Y-127232196D01*
X75004574Y-127232194D01*
X75000581Y-127229771D01*
X74759545Y-127128697D01*
X74506217Y-127064359D01*
X74501566Y-127063891D01*
X74501562Y-127063890D01*
X74292271Y-127042816D01*
X74289133Y-127042500D01*
X74133646Y-127042500D01*
X74131321Y-127042673D01*
X74131315Y-127042673D01*
X73944000Y-127056593D01*
X73943996Y-127056594D01*
X73939348Y-127056939D01*
X73934800Y-127057968D01*
X73934794Y-127057969D01*
X73748399Y-127100147D01*
X73684423Y-127114623D01*
X73680071Y-127116315D01*
X73680069Y-127116316D01*
X73445176Y-127207660D01*
X73445173Y-127207661D01*
X73440823Y-127209353D01*
X73213902Y-127339049D01*
X73008643Y-127500862D01*
X72829557Y-127691237D01*
X72680576Y-127905991D01*
X72564975Y-128140407D01*
X72485293Y-128389335D01*
X72443279Y-128647307D01*
X72439858Y-128908655D01*
X17957324Y-128908655D01*
X17960142Y-128693345D01*
X17924896Y-128434362D01*
X17910473Y-128384877D01*
X17853068Y-128187932D01*
X17851757Y-128183433D01*
X17742332Y-127946072D01*
X17709519Y-127896024D01*
X17601590Y-127731404D01*
X17601586Y-127731399D01*
X17599024Y-127727491D01*
X17424982Y-127532494D01*
X17224030Y-127365363D01*
X17176844Y-127336730D01*
X17004578Y-127232196D01*
X17004574Y-127232194D01*
X17000581Y-127229771D01*
X16759545Y-127128697D01*
X16506217Y-127064359D01*
X16501566Y-127063891D01*
X16501562Y-127063890D01*
X16292271Y-127042816D01*
X16289133Y-127042500D01*
X16133646Y-127042500D01*
X16131321Y-127042673D01*
X16131315Y-127042673D01*
X15944000Y-127056593D01*
X15943996Y-127056594D01*
X15939348Y-127056939D01*
X15934800Y-127057968D01*
X15934794Y-127057969D01*
X15748399Y-127100147D01*
X15684423Y-127114623D01*
X15680071Y-127116315D01*
X15680069Y-127116316D01*
X15445176Y-127207660D01*
X15445173Y-127207661D01*
X15440823Y-127209353D01*
X15213902Y-127339049D01*
X15008643Y-127500862D01*
X14829557Y-127691237D01*
X14680576Y-127905991D01*
X14564975Y-128140407D01*
X14485293Y-128389335D01*
X14443279Y-128647307D01*
X14439858Y-128908655D01*
X13208000Y-128908655D01*
X13208000Y-124462879D01*
X20413840Y-124462879D01*
X20449486Y-124724808D01*
X20450795Y-124729298D01*
X20450796Y-124729304D01*
X20473858Y-124808423D01*
X20523457Y-124978590D01*
X20634127Y-125218652D01*
X20636690Y-125222561D01*
X20776499Y-125435805D01*
X20776503Y-125435810D01*
X20779065Y-125439718D01*
X20858857Y-125529117D01*
X20912285Y-125588978D01*
X20955086Y-125636933D01*
X21158324Y-125805964D01*
X21384314Y-125943099D01*
X21388622Y-125944905D01*
X21388623Y-125944906D01*
X21623776Y-126043514D01*
X21623781Y-126043516D01*
X21628091Y-126045323D01*
X21632623Y-126046474D01*
X21632626Y-126046475D01*
X21688197Y-126060588D01*
X21884301Y-126110392D01*
X22103856Y-126132500D01*
X22261108Y-126132500D01*
X22263433Y-126132327D01*
X22263439Y-126132327D01*
X22452964Y-126118243D01*
X22452968Y-126118242D01*
X22457616Y-126117897D01*
X22715441Y-126059557D01*
X22719795Y-126057864D01*
X22957458Y-125965442D01*
X22957460Y-125965441D01*
X22961811Y-125963749D01*
X22994780Y-125944906D01*
X23046448Y-125915375D01*
X23191313Y-125832578D01*
X23398906Y-125668925D01*
X23580030Y-125476385D01*
X23609204Y-125434331D01*
X23728042Y-125263026D01*
X23728045Y-125263021D01*
X23730704Y-125259188D01*
X23732771Y-125254997D01*
X23845555Y-125026294D01*
X23845556Y-125026291D01*
X23847620Y-125022106D01*
X23928209Y-124770347D01*
X23951420Y-124627825D01*
X23969949Y-124514053D01*
X23969949Y-124514052D01*
X23970700Y-124509441D01*
X23971310Y-124462879D01*
X40860840Y-124462879D01*
X40896486Y-124724808D01*
X40897795Y-124729298D01*
X40897796Y-124729304D01*
X40920858Y-124808423D01*
X40970457Y-124978590D01*
X41081127Y-125218652D01*
X41083690Y-125222561D01*
X41223499Y-125435805D01*
X41223503Y-125435810D01*
X41226065Y-125439718D01*
X41305857Y-125529117D01*
X41359285Y-125588978D01*
X41402086Y-125636933D01*
X41605324Y-125805964D01*
X41831314Y-125943099D01*
X41835622Y-125944905D01*
X41835623Y-125944906D01*
X42070776Y-126043514D01*
X42070781Y-126043516D01*
X42075091Y-126045323D01*
X42079623Y-126046474D01*
X42079626Y-126046475D01*
X42135197Y-126060588D01*
X42331301Y-126110392D01*
X42550856Y-126132500D01*
X42708108Y-126132500D01*
X42710433Y-126132327D01*
X42710439Y-126132327D01*
X42899964Y-126118243D01*
X42899968Y-126118242D01*
X42904616Y-126117897D01*
X43162441Y-126059557D01*
X43166795Y-126057864D01*
X43404458Y-125965442D01*
X43404460Y-125965441D01*
X43408811Y-125963749D01*
X43441780Y-125944906D01*
X43493448Y-125915375D01*
X43638313Y-125832578D01*
X43845906Y-125668925D01*
X44027030Y-125476385D01*
X44056204Y-125434331D01*
X44175042Y-125263026D01*
X44175045Y-125263021D01*
X44177704Y-125259188D01*
X44179771Y-125254997D01*
X44292555Y-125026294D01*
X44292556Y-125026291D01*
X44294620Y-125022106D01*
X44375209Y-124770347D01*
X44398420Y-124627825D01*
X44416949Y-124514053D01*
X44416949Y-124514052D01*
X44417700Y-124509441D01*
X44421160Y-124245121D01*
X44385514Y-123983192D01*
X44311543Y-123729410D01*
X44293751Y-123690815D01*
X44213957Y-123517730D01*
X44200873Y-123489348D01*
X44111390Y-123352864D01*
X44058501Y-123272195D01*
X44058497Y-123272190D01*
X44055935Y-123268282D01*
X43879914Y-123071067D01*
X43676676Y-122902036D01*
X43450686Y-122764901D01*
X43406969Y-122746569D01*
X43211224Y-122664486D01*
X43211219Y-122664484D01*
X43206909Y-122662677D01*
X43202377Y-122661526D01*
X43202374Y-122661525D01*
X43074879Y-122629146D01*
X42950699Y-122597608D01*
X42731144Y-122575500D01*
X42573892Y-122575500D01*
X42571567Y-122575673D01*
X42571561Y-122575673D01*
X42382036Y-122589757D01*
X42382032Y-122589758D01*
X42377384Y-122590103D01*
X42119559Y-122648443D01*
X42115207Y-122650135D01*
X42115205Y-122650136D01*
X41877542Y-122742558D01*
X41877540Y-122742559D01*
X41873189Y-122744251D01*
X41869135Y-122746568D01*
X41869133Y-122746569D01*
X41837059Y-122764901D01*
X41643687Y-122875422D01*
X41436094Y-123039075D01*
X41344085Y-123136883D01*
X41259722Y-123226564D01*
X41254970Y-123231615D01*
X41252304Y-123235458D01*
X41168666Y-123356023D01*
X41104296Y-123448812D01*
X41102230Y-123453001D01*
X41102229Y-123453003D01*
X41086234Y-123485439D01*
X40987380Y-123685894D01*
X40906791Y-123937653D01*
X40864300Y-124198559D01*
X40860840Y-124462879D01*
X23971310Y-124462879D01*
X23974160Y-124245121D01*
X23938514Y-123983192D01*
X23864543Y-123729410D01*
X23846751Y-123690815D01*
X23766957Y-123517730D01*
X23753873Y-123489348D01*
X23664390Y-123352864D01*
X23611501Y-123272195D01*
X23611497Y-123272190D01*
X23608935Y-123268282D01*
X23432914Y-123071067D01*
X23229676Y-122902036D01*
X23003686Y-122764901D01*
X22959969Y-122746569D01*
X22764224Y-122664486D01*
X22764219Y-122664484D01*
X22759909Y-122662677D01*
X22755377Y-122661526D01*
X22755374Y-122661525D01*
X22627879Y-122629146D01*
X22503699Y-122597608D01*
X22284144Y-122575500D01*
X22126892Y-122575500D01*
X22124567Y-122575673D01*
X22124561Y-122575673D01*
X21935036Y-122589757D01*
X21935032Y-122589758D01*
X21930384Y-122590103D01*
X21672559Y-122648443D01*
X21668207Y-122650135D01*
X21668205Y-122650136D01*
X21430542Y-122742558D01*
X21430540Y-122742559D01*
X21426189Y-122744251D01*
X21422135Y-122746568D01*
X21422133Y-122746569D01*
X21390059Y-122764901D01*
X21196687Y-122875422D01*
X20989094Y-123039075D01*
X20897085Y-123136883D01*
X20812722Y-123226564D01*
X20807970Y-123231615D01*
X20805304Y-123235458D01*
X20721666Y-123356023D01*
X20657296Y-123448812D01*
X20655230Y-123453001D01*
X20655229Y-123453003D01*
X20639234Y-123485439D01*
X20540380Y-123685894D01*
X20459791Y-123937653D01*
X20417300Y-124198559D01*
X20413840Y-124462879D01*
X13208000Y-124462879D01*
X13208000Y-105908655D01*
X14439858Y-105908655D01*
X14475104Y-106167638D01*
X14476412Y-106172124D01*
X14476412Y-106172126D01*
X14489609Y-106217403D01*
X14548243Y-106418567D01*
X14657668Y-106655928D01*
X14660231Y-106659837D01*
X14798410Y-106870596D01*
X14798414Y-106870601D01*
X14800976Y-106874509D01*
X14975018Y-107069506D01*
X15175970Y-107236637D01*
X15179973Y-107239066D01*
X15395422Y-107369804D01*
X15395426Y-107369806D01*
X15399419Y-107372229D01*
X15640455Y-107473303D01*
X15893783Y-107537641D01*
X15898434Y-107538109D01*
X15898438Y-107538110D01*
X16091308Y-107557531D01*
X16110867Y-107559500D01*
X16266354Y-107559500D01*
X16268679Y-107559327D01*
X16268685Y-107559327D01*
X16456000Y-107545407D01*
X16456004Y-107545406D01*
X16460652Y-107545061D01*
X16465200Y-107544032D01*
X16465206Y-107544031D01*
X16651601Y-107501853D01*
X16715577Y-107487377D01*
X16751769Y-107473303D01*
X16954824Y-107394340D01*
X16954827Y-107394339D01*
X16959177Y-107392647D01*
X17186098Y-107262951D01*
X17391357Y-107101138D01*
X17570443Y-106910763D01*
X17676116Y-106758437D01*
X17716759Y-106699851D01*
X17716761Y-106699848D01*
X17719424Y-106696009D01*
X17751137Y-106631702D01*
X17832960Y-106465781D01*
X17832961Y-106465778D01*
X17835025Y-106461593D01*
X17846150Y-106426840D01*
X17913280Y-106217123D01*
X17914707Y-106212665D01*
X17956721Y-105954693D01*
X17959360Y-105753069D01*
X17960081Y-105698022D01*
X17960081Y-105698019D01*
X17960142Y-105693345D01*
X17924896Y-105434362D01*
X17910473Y-105384877D01*
X17881680Y-105286096D01*
X17851757Y-105183433D01*
X17849541Y-105178625D01*
X17744289Y-104950318D01*
X17742332Y-104946072D01*
X17655702Y-104813939D01*
X17601590Y-104731404D01*
X17601586Y-104731399D01*
X17599024Y-104727491D01*
X17424982Y-104532494D01*
X17224030Y-104365363D01*
X17138599Y-104313522D01*
X17004578Y-104232196D01*
X17004574Y-104232194D01*
X17000581Y-104229771D01*
X16759545Y-104128697D01*
X16506217Y-104064359D01*
X16501566Y-104063891D01*
X16501562Y-104063890D01*
X16292271Y-104042816D01*
X16289133Y-104042500D01*
X16133646Y-104042500D01*
X16131321Y-104042673D01*
X16131315Y-104042673D01*
X15944000Y-104056593D01*
X15943996Y-104056594D01*
X15939348Y-104056939D01*
X15934800Y-104057968D01*
X15934794Y-104057969D01*
X15763542Y-104096720D01*
X15684423Y-104114623D01*
X15680071Y-104116315D01*
X15680069Y-104116316D01*
X15445176Y-104207660D01*
X15445173Y-104207661D01*
X15440823Y-104209353D01*
X15213902Y-104339049D01*
X15008643Y-104500862D01*
X14829557Y-104691237D01*
X14744435Y-104813939D01*
X14687918Y-104895408D01*
X14680576Y-104905991D01*
X14564975Y-105140407D01*
X14563553Y-105144850D01*
X14563552Y-105144852D01*
X14535007Y-105234028D01*
X14485293Y-105389335D01*
X14443279Y-105647307D01*
X14442246Y-105726248D01*
X14440106Y-105889747D01*
X14439858Y-105908655D01*
X13208000Y-105908655D01*
X13208000Y-98806000D01*
X17901647Y-98806000D01*
X17921022Y-99027463D01*
X17978560Y-99242196D01*
X17980882Y-99247177D01*
X17980883Y-99247178D01*
X18070186Y-99438689D01*
X18070189Y-99438694D01*
X18072512Y-99443676D01*
X18075668Y-99448183D01*
X18075669Y-99448185D01*
X18180064Y-99597276D01*
X18200023Y-99625781D01*
X18357219Y-99782977D01*
X18361727Y-99786134D01*
X18361730Y-99786136D01*
X18424816Y-99830309D01*
X18539323Y-99910488D01*
X18544305Y-99912811D01*
X18544310Y-99912814D01*
X18713356Y-99991641D01*
X18740804Y-100004440D01*
X18746112Y-100005862D01*
X18746114Y-100005863D01*
X18811949Y-100023503D01*
X18955537Y-100061978D01*
X19177000Y-100081353D01*
X19398463Y-100061978D01*
X19542051Y-100023503D01*
X19607886Y-100005863D01*
X19607888Y-100005862D01*
X19613196Y-100004440D01*
X19640644Y-99991641D01*
X19809690Y-99912814D01*
X19809695Y-99912811D01*
X19814677Y-99910488D01*
X19929184Y-99830309D01*
X19992270Y-99786136D01*
X19992273Y-99786134D01*
X19996781Y-99782977D01*
X20153977Y-99625781D01*
X20173937Y-99597276D01*
X20278331Y-99448185D01*
X20278332Y-99448183D01*
X20281488Y-99443676D01*
X20283811Y-99438694D01*
X20283814Y-99438689D01*
X20332805Y-99333627D01*
X20379723Y-99280342D01*
X20448000Y-99260881D01*
X20515960Y-99281423D01*
X20561195Y-99333627D01*
X20610186Y-99438689D01*
X20610189Y-99438694D01*
X20612512Y-99443676D01*
X20615668Y-99448183D01*
X20615669Y-99448185D01*
X20720064Y-99597276D01*
X20740023Y-99625781D01*
X20897219Y-99782977D01*
X20901727Y-99786134D01*
X20901730Y-99786136D01*
X20964816Y-99830309D01*
X21079323Y-99910488D01*
X21084305Y-99912811D01*
X21084310Y-99912814D01*
X21253356Y-99991641D01*
X21280804Y-100004440D01*
X21286112Y-100005862D01*
X21286114Y-100005863D01*
X21351949Y-100023503D01*
X21495537Y-100061978D01*
X21717000Y-100081353D01*
X21722475Y-100080874D01*
X21809931Y-100073223D01*
X21879536Y-100087213D01*
X21930528Y-100136612D01*
X21946718Y-100205738D01*
X21922965Y-100272644D01*
X21910008Y-100287838D01*
X20647112Y-101550733D01*
X19388997Y-102808848D01*
X19380711Y-102816388D01*
X19374232Y-102820500D01*
X19368807Y-102826277D01*
X19327607Y-102870151D01*
X19324852Y-102872993D01*
X19305115Y-102892730D01*
X19302635Y-102895927D01*
X19294932Y-102904947D01*
X19264664Y-102937179D01*
X19260845Y-102944125D01*
X19260843Y-102944128D01*
X19254902Y-102954934D01*
X19244051Y-102971453D01*
X19231636Y-102987459D01*
X19228491Y-102994728D01*
X19228488Y-102994732D01*
X19214076Y-103028037D01*
X19208859Y-103038687D01*
X19187555Y-103077440D01*
X19185584Y-103085115D01*
X19185584Y-103085116D01*
X19182517Y-103097062D01*
X19176113Y-103115766D01*
X19168069Y-103134355D01*
X19166830Y-103142178D01*
X19166827Y-103142188D01*
X19161151Y-103178024D01*
X19158745Y-103189644D01*
X19147750Y-103232470D01*
X19147750Y-103252724D01*
X19146199Y-103272434D01*
X19143030Y-103292443D01*
X19143776Y-103300335D01*
X19147191Y-103336461D01*
X19147750Y-103348319D01*
X19147750Y-105703483D01*
X19147223Y-105714666D01*
X19145548Y-105722159D01*
X19145797Y-105730085D01*
X19145797Y-105730086D01*
X19147688Y-105790236D01*
X19147750Y-105794195D01*
X19147750Y-105822106D01*
X19148247Y-105826040D01*
X19148247Y-105826041D01*
X19148255Y-105826106D01*
X19149188Y-105837943D01*
X19150577Y-105882139D01*
X19153661Y-105892753D01*
X19156228Y-105901589D01*
X19160237Y-105920950D01*
X19161773Y-105933104D01*
X19162776Y-105941047D01*
X19165695Y-105948418D01*
X19165695Y-105948420D01*
X19179054Y-105982162D01*
X19182899Y-105993392D01*
X19195232Y-106035843D01*
X19199265Y-106042662D01*
X19199267Y-106042667D01*
X19205543Y-106053278D01*
X19214238Y-106071026D01*
X19221698Y-106089867D01*
X19226360Y-106096283D01*
X19226360Y-106096284D01*
X19247686Y-106125637D01*
X19254202Y-106135557D01*
X19276708Y-106173612D01*
X19291029Y-106187933D01*
X19303869Y-106202966D01*
X19315778Y-106219357D01*
X19321884Y-106224408D01*
X19349855Y-106247548D01*
X19358634Y-106255538D01*
X19674595Y-106571499D01*
X19708621Y-106633811D01*
X19711500Y-106660594D01*
X19711500Y-107969134D01*
X19718255Y-108031316D01*
X19769385Y-108167705D01*
X19856739Y-108284261D01*
X19973295Y-108371615D01*
X20109684Y-108422745D01*
X20171866Y-108429500D01*
X21480406Y-108429500D01*
X21548527Y-108449502D01*
X21569501Y-108466405D01*
X23770343Y-110667247D01*
X23777888Y-110675538D01*
X23782000Y-110682018D01*
X23782803Y-110682772D01*
X23809612Y-110745223D01*
X23797902Y-110815248D01*
X23750192Y-110867824D01*
X23681631Y-110886261D01*
X23673538Y-110885815D01*
X23495000Y-110870195D01*
X23275716Y-110889380D01*
X23270402Y-110890804D01*
X23270401Y-110890804D01*
X23068405Y-110944928D01*
X23068403Y-110944929D01*
X23063095Y-110946351D01*
X23058115Y-110948673D01*
X23058113Y-110948674D01*
X22868579Y-111037056D01*
X22868576Y-111037058D01*
X22863598Y-111039379D01*
X22683285Y-111165635D01*
X22527635Y-111321285D01*
X22401379Y-111501598D01*
X22399058Y-111506576D01*
X22399056Y-111506579D01*
X22330668Y-111653236D01*
X22308351Y-111701095D01*
X22306929Y-111706403D01*
X22306928Y-111706405D01*
X22265833Y-111859776D01*
X22251380Y-111913716D01*
X22232195Y-112133000D01*
X22251380Y-112352284D01*
X22252804Y-112357598D01*
X22252804Y-112357599D01*
X22292306Y-112505022D01*
X22308351Y-112564905D01*
X22310673Y-112569885D01*
X22310674Y-112569887D01*
X22388829Y-112737488D01*
X22401379Y-112764402D01*
X22527635Y-112944715D01*
X22683285Y-113100365D01*
X22687793Y-113103522D01*
X22687796Y-113103524D01*
X22817339Y-113194231D01*
X22863597Y-113226621D01*
X22868579Y-113228944D01*
X22868584Y-113228947D01*
X23057101Y-113316854D01*
X23063095Y-113319649D01*
X23068403Y-113321071D01*
X23068405Y-113321072D01*
X23270401Y-113375196D01*
X23270402Y-113375196D01*
X23275716Y-113376620D01*
X23495000Y-113395805D01*
X23714284Y-113376620D01*
X23719598Y-113375196D01*
X23719599Y-113375196D01*
X23921595Y-113321072D01*
X23921597Y-113321071D01*
X23926905Y-113319649D01*
X23932899Y-113316854D01*
X24121416Y-113228947D01*
X24121421Y-113228944D01*
X24126403Y-113226621D01*
X24172661Y-113194231D01*
X24302204Y-113103524D01*
X24302207Y-113103522D01*
X24306715Y-113100365D01*
X24462365Y-112944715D01*
X24588621Y-112764402D01*
X24601172Y-112737488D01*
X24650805Y-112631049D01*
X24697723Y-112577764D01*
X24766000Y-112558303D01*
X24833960Y-112578845D01*
X24879195Y-112631049D01*
X24928829Y-112737488D01*
X24941379Y-112764402D01*
X25067635Y-112944715D01*
X25223285Y-113100365D01*
X25227793Y-113103522D01*
X25227796Y-113103524D01*
X25357339Y-113194231D01*
X25403597Y-113226621D01*
X25408579Y-113228944D01*
X25408584Y-113228947D01*
X25597101Y-113316854D01*
X25603095Y-113319649D01*
X25608403Y-113321071D01*
X25608405Y-113321072D01*
X25810401Y-113375196D01*
X25810402Y-113375196D01*
X25815716Y-113376620D01*
X26035000Y-113395805D01*
X26254284Y-113376620D01*
X26259598Y-113375196D01*
X26259599Y-113375196D01*
X26461595Y-113321072D01*
X26461597Y-113321071D01*
X26466905Y-113319649D01*
X26472899Y-113316854D01*
X26661416Y-113228947D01*
X26661421Y-113228944D01*
X26666403Y-113226621D01*
X26712661Y-113194231D01*
X26842204Y-113103524D01*
X26842207Y-113103522D01*
X26846715Y-113100365D01*
X27002365Y-112944715D01*
X27128621Y-112764402D01*
X27141172Y-112737488D01*
X27190805Y-112631049D01*
X27237723Y-112577764D01*
X27306000Y-112558303D01*
X27373960Y-112578845D01*
X27419195Y-112631049D01*
X27468829Y-112737488D01*
X27481379Y-112764402D01*
X27607635Y-112944715D01*
X27763285Y-113100365D01*
X27767793Y-113103522D01*
X27767796Y-113103524D01*
X27897339Y-113194231D01*
X27943597Y-113226621D01*
X27948579Y-113228944D01*
X27948584Y-113228947D01*
X28137101Y-113316854D01*
X28143095Y-113319649D01*
X28148403Y-113321071D01*
X28148405Y-113321072D01*
X28350401Y-113375196D01*
X28350402Y-113375196D01*
X28355716Y-113376620D01*
X28575000Y-113395805D01*
X28794284Y-113376620D01*
X28799598Y-113375196D01*
X28799599Y-113375196D01*
X29001595Y-113321072D01*
X29001597Y-113321071D01*
X29006905Y-113319649D01*
X29012899Y-113316854D01*
X29201416Y-113228947D01*
X29201421Y-113228944D01*
X29206403Y-113226621D01*
X29252661Y-113194231D01*
X29382204Y-113103524D01*
X29382207Y-113103522D01*
X29386715Y-113100365D01*
X29542365Y-112944715D01*
X29668621Y-112764402D01*
X29681172Y-112737488D01*
X29730805Y-112631049D01*
X29777723Y-112577764D01*
X29846000Y-112558303D01*
X29913960Y-112578845D01*
X29959195Y-112631049D01*
X30008829Y-112737488D01*
X30021379Y-112764402D01*
X30147635Y-112944715D01*
X30303285Y-113100365D01*
X30307793Y-113103522D01*
X30307796Y-113103524D01*
X30437339Y-113194231D01*
X30483597Y-113226621D01*
X30488579Y-113228944D01*
X30488584Y-113228947D01*
X30677101Y-113316854D01*
X30683095Y-113319649D01*
X30688403Y-113321071D01*
X30688405Y-113321072D01*
X30890401Y-113375196D01*
X30890402Y-113375196D01*
X30895716Y-113376620D01*
X31115000Y-113395805D01*
X31334284Y-113376620D01*
X31339598Y-113375196D01*
X31339599Y-113375196D01*
X31541595Y-113321072D01*
X31541597Y-113321071D01*
X31546905Y-113319649D01*
X31552899Y-113316854D01*
X31741416Y-113228947D01*
X31741421Y-113228944D01*
X31746403Y-113226621D01*
X31792661Y-113194231D01*
X31922204Y-113103524D01*
X31922207Y-113103522D01*
X31926715Y-113100365D01*
X32082365Y-112944715D01*
X32208621Y-112764402D01*
X32221172Y-112737488D01*
X32270805Y-112631049D01*
X32317723Y-112577764D01*
X32386000Y-112558303D01*
X32453960Y-112578845D01*
X32499195Y-112631049D01*
X32548829Y-112737488D01*
X32561379Y-112764402D01*
X32687635Y-112944715D01*
X32843285Y-113100365D01*
X32847793Y-113103522D01*
X32847796Y-113103524D01*
X32977339Y-113194231D01*
X33023597Y-113226621D01*
X33028579Y-113228944D01*
X33028584Y-113228947D01*
X33217101Y-113316854D01*
X33223095Y-113319649D01*
X33228403Y-113321071D01*
X33228405Y-113321072D01*
X33430401Y-113375196D01*
X33430402Y-113375196D01*
X33435716Y-113376620D01*
X33655000Y-113395805D01*
X33874284Y-113376620D01*
X33879598Y-113375196D01*
X33879599Y-113375196D01*
X34081595Y-113321072D01*
X34081597Y-113321071D01*
X34086905Y-113319649D01*
X34092899Y-113316854D01*
X34281416Y-113228947D01*
X34281421Y-113228944D01*
X34286403Y-113226621D01*
X34332661Y-113194231D01*
X34348983Y-113182802D01*
X35509753Y-113182802D01*
X35519049Y-113194817D01*
X35559340Y-113223029D01*
X35568835Y-113228512D01*
X35758285Y-113316854D01*
X35768577Y-113320600D01*
X35970490Y-113374702D01*
X35981283Y-113376605D01*
X36189525Y-113394824D01*
X36200475Y-113394824D01*
X36408717Y-113376605D01*
X36419510Y-113374702D01*
X36621423Y-113320600D01*
X36631715Y-113316854D01*
X36821165Y-113228512D01*
X36830660Y-113223029D01*
X36871788Y-113194231D01*
X36880164Y-113183752D01*
X36873096Y-113170306D01*
X36207812Y-112505022D01*
X36193868Y-112497408D01*
X36192035Y-112497539D01*
X36185420Y-112501790D01*
X35516183Y-113171027D01*
X35509753Y-113182802D01*
X34348983Y-113182802D01*
X34462204Y-113103524D01*
X34462207Y-113103522D01*
X34466715Y-113100365D01*
X34622365Y-112944715D01*
X34748621Y-112764402D01*
X34761172Y-112737488D01*
X34811081Y-112630457D01*
X34857999Y-112577172D01*
X34926276Y-112557711D01*
X34994236Y-112578253D01*
X35039471Y-112630457D01*
X35099491Y-112759170D01*
X35104969Y-112768656D01*
X35133769Y-112809788D01*
X35144247Y-112818163D01*
X35157695Y-112811095D01*
X35822978Y-112145812D01*
X35830592Y-112131868D01*
X35830461Y-112130035D01*
X35826210Y-112123420D01*
X35156973Y-111454183D01*
X35145199Y-111447753D01*
X35133183Y-111457050D01*
X35104969Y-111497344D01*
X35099491Y-111506830D01*
X35039471Y-111635543D01*
X34992553Y-111688828D01*
X34924276Y-111708289D01*
X34856316Y-111687747D01*
X34811081Y-111635543D01*
X34750944Y-111506579D01*
X34750942Y-111506576D01*
X34748621Y-111501598D01*
X34622365Y-111321285D01*
X34466715Y-111165635D01*
X34462205Y-111162477D01*
X34462199Y-111162472D01*
X34426839Y-111137713D01*
X34382510Y-111082256D01*
X34375201Y-111011637D01*
X34407231Y-110948276D01*
X34468433Y-110912291D01*
X34499109Y-110908500D01*
X35386762Y-110908500D01*
X35454883Y-110928502D01*
X35501376Y-110982158D01*
X35512093Y-111047471D01*
X35508715Y-111080113D01*
X35516905Y-111095695D01*
X36182188Y-111760978D01*
X36196132Y-111768592D01*
X36197965Y-111768461D01*
X36204580Y-111764210D01*
X36873817Y-111094973D01*
X36881431Y-111081029D01*
X36879456Y-111053412D01*
X36876357Y-111045491D01*
X36890341Y-110975885D01*
X36939737Y-110924889D01*
X37001877Y-110908500D01*
X37890892Y-110908500D01*
X37959013Y-110928502D01*
X38005506Y-110982158D01*
X38015610Y-111052432D01*
X37986116Y-111117012D01*
X37963162Y-111137713D01*
X37923285Y-111165635D01*
X37767635Y-111321285D01*
X37641379Y-111501598D01*
X37639058Y-111506576D01*
X37639056Y-111506579D01*
X37578919Y-111635543D01*
X37532001Y-111688828D01*
X37463724Y-111708289D01*
X37395764Y-111687747D01*
X37350529Y-111635543D01*
X37290509Y-111506830D01*
X37285031Y-111497344D01*
X37256231Y-111456212D01*
X37245753Y-111447837D01*
X37232305Y-111454905D01*
X36567022Y-112120188D01*
X36559408Y-112134132D01*
X36559539Y-112135965D01*
X36563790Y-112142580D01*
X37233027Y-112811817D01*
X37244801Y-112818247D01*
X37256817Y-112808950D01*
X37285031Y-112768656D01*
X37290509Y-112759170D01*
X37350529Y-112630457D01*
X37397447Y-112577172D01*
X37465724Y-112557711D01*
X37533684Y-112578253D01*
X37578919Y-112630457D01*
X37628829Y-112737488D01*
X37641379Y-112764402D01*
X37767635Y-112944715D01*
X37923285Y-113100365D01*
X37927793Y-113103522D01*
X37927796Y-113103524D01*
X38057339Y-113194231D01*
X38103597Y-113226621D01*
X38108579Y-113228944D01*
X38108584Y-113228947D01*
X38297101Y-113316854D01*
X38303095Y-113319649D01*
X38308403Y-113321071D01*
X38308405Y-113321072D01*
X38510401Y-113375196D01*
X38510402Y-113375196D01*
X38515716Y-113376620D01*
X38735000Y-113395805D01*
X38954284Y-113376620D01*
X38959598Y-113375196D01*
X38959599Y-113375196D01*
X39161595Y-113321072D01*
X39161597Y-113321071D01*
X39166905Y-113319649D01*
X39172899Y-113316854D01*
X39361416Y-113228947D01*
X39361421Y-113228944D01*
X39366403Y-113226621D01*
X39412661Y-113194231D01*
X39542204Y-113103524D01*
X39542207Y-113103522D01*
X39546715Y-113100365D01*
X39702365Y-112944715D01*
X39828621Y-112764402D01*
X39841172Y-112737488D01*
X39890805Y-112631049D01*
X39937723Y-112577764D01*
X40006000Y-112558303D01*
X40073960Y-112578845D01*
X40119195Y-112631049D01*
X40168829Y-112737488D01*
X40181379Y-112764402D01*
X40307635Y-112944715D01*
X40463285Y-113100365D01*
X40467793Y-113103522D01*
X40467796Y-113103524D01*
X40597339Y-113194231D01*
X40643597Y-113226621D01*
X40648579Y-113228944D01*
X40648584Y-113228947D01*
X40837101Y-113316854D01*
X40843095Y-113319649D01*
X40848403Y-113321071D01*
X40848405Y-113321072D01*
X41050401Y-113375196D01*
X41050402Y-113375196D01*
X41055716Y-113376620D01*
X41275000Y-113395805D01*
X41494284Y-113376620D01*
X41499598Y-113375196D01*
X41499599Y-113375196D01*
X41701595Y-113321072D01*
X41701597Y-113321071D01*
X41706905Y-113319649D01*
X41712899Y-113316854D01*
X41901416Y-113228947D01*
X41901421Y-113228944D01*
X41906403Y-113226621D01*
X41952661Y-113194231D01*
X42082204Y-113103524D01*
X42082207Y-113103522D01*
X42086715Y-113100365D01*
X42242365Y-112944715D01*
X42368621Y-112764402D01*
X42381172Y-112737488D01*
X42459326Y-112569887D01*
X42459327Y-112569885D01*
X42461649Y-112564905D01*
X42477695Y-112505022D01*
X42517196Y-112357599D01*
X42517196Y-112357598D01*
X42518620Y-112352284D01*
X42537805Y-112133000D01*
X42518620Y-111913716D01*
X42504167Y-111859776D01*
X42463072Y-111706405D01*
X42463071Y-111706403D01*
X42461649Y-111701095D01*
X42439332Y-111653236D01*
X42370944Y-111506579D01*
X42370942Y-111506576D01*
X42368621Y-111501598D01*
X42242365Y-111321285D01*
X42086715Y-111165635D01*
X42082205Y-111162477D01*
X42082199Y-111162472D01*
X42046839Y-111137713D01*
X42002510Y-111082256D01*
X41995201Y-111011637D01*
X42027231Y-110948276D01*
X42088433Y-110912291D01*
X42119109Y-110908500D01*
X47522906Y-110908500D01*
X47591027Y-110928502D01*
X47612001Y-110945405D01*
X51018595Y-114351999D01*
X51052621Y-114414311D01*
X51055500Y-114441094D01*
X51055500Y-123159996D01*
X51035498Y-123228117D01*
X51001771Y-123263209D01*
X50873730Y-123352864D01*
X50873727Y-123352866D01*
X50869219Y-123356023D01*
X50712023Y-123513219D01*
X50708866Y-123517727D01*
X50708864Y-123517730D01*
X50587669Y-123690815D01*
X50584512Y-123695324D01*
X50582189Y-123700306D01*
X50582186Y-123700311D01*
X50570599Y-123725160D01*
X50490560Y-123896804D01*
X50433022Y-124111537D01*
X50413647Y-124333000D01*
X50433022Y-124554463D01*
X50490560Y-124769196D01*
X50492882Y-124774177D01*
X50492883Y-124774178D01*
X50582186Y-124965689D01*
X50582189Y-124965694D01*
X50584512Y-124970676D01*
X50587668Y-124975183D01*
X50587669Y-124975185D01*
X50620524Y-125022106D01*
X50712023Y-125152781D01*
X50869219Y-125309977D01*
X50873727Y-125313134D01*
X50873730Y-125313136D01*
X50949495Y-125366187D01*
X51051323Y-125437488D01*
X51056305Y-125439811D01*
X51056310Y-125439814D01*
X51247822Y-125529117D01*
X51252804Y-125531440D01*
X51258112Y-125532862D01*
X51258114Y-125532863D01*
X51323949Y-125550503D01*
X51467537Y-125588978D01*
X51689000Y-125608353D01*
X51910463Y-125588978D01*
X52054051Y-125550503D01*
X52119886Y-125532863D01*
X52119888Y-125532862D01*
X52125196Y-125531440D01*
X52130178Y-125529117D01*
X52321690Y-125439814D01*
X52321695Y-125439811D01*
X52326677Y-125437488D01*
X52428505Y-125366187D01*
X52504270Y-125313136D01*
X52504273Y-125313134D01*
X52508781Y-125309977D01*
X52665977Y-125152781D01*
X52757477Y-125022106D01*
X52790331Y-124975185D01*
X52790332Y-124975183D01*
X52793488Y-124970676D01*
X52795811Y-124965694D01*
X52795814Y-124965689D01*
X52844805Y-124860627D01*
X52891723Y-124807342D01*
X52960000Y-124787881D01*
X53027960Y-124808423D01*
X53073195Y-124860627D01*
X53122186Y-124965689D01*
X53122189Y-124965694D01*
X53124512Y-124970676D01*
X53127668Y-124975183D01*
X53127669Y-124975185D01*
X53160524Y-125022106D01*
X53252023Y-125152781D01*
X53409219Y-125309977D01*
X53413727Y-125313134D01*
X53413730Y-125313136D01*
X53489495Y-125366187D01*
X53591323Y-125437488D01*
X53596305Y-125439811D01*
X53596310Y-125439814D01*
X53787822Y-125529117D01*
X53792804Y-125531440D01*
X53798112Y-125532862D01*
X53798114Y-125532863D01*
X53863949Y-125550503D01*
X54007537Y-125588978D01*
X54229000Y-125608353D01*
X54450463Y-125588978D01*
X54594051Y-125550503D01*
X54659886Y-125532863D01*
X54659888Y-125532862D01*
X54665196Y-125531440D01*
X54670178Y-125529117D01*
X54861690Y-125439814D01*
X54861695Y-125439811D01*
X54866677Y-125437488D01*
X54968505Y-125366187D01*
X55044270Y-125313136D01*
X55044273Y-125313134D01*
X55048781Y-125309977D01*
X55205977Y-125152781D01*
X55297477Y-125022106D01*
X55330331Y-124975185D01*
X55330332Y-124975183D01*
X55333488Y-124970676D01*
X55335811Y-124965694D01*
X55335814Y-124965689D01*
X55384805Y-124860627D01*
X55431723Y-124807342D01*
X55500000Y-124787881D01*
X55567960Y-124808423D01*
X55613195Y-124860627D01*
X55662186Y-124965689D01*
X55662189Y-124965694D01*
X55664512Y-124970676D01*
X55667668Y-124975183D01*
X55667669Y-124975185D01*
X55700524Y-125022106D01*
X55792023Y-125152781D01*
X55949219Y-125309977D01*
X55953727Y-125313134D01*
X55953730Y-125313136D01*
X56029495Y-125366187D01*
X56131323Y-125437488D01*
X56136305Y-125439811D01*
X56136310Y-125439814D01*
X56327822Y-125529117D01*
X56332804Y-125531440D01*
X56338112Y-125532862D01*
X56338114Y-125532863D01*
X56403949Y-125550503D01*
X56547537Y-125588978D01*
X56769000Y-125608353D01*
X56990463Y-125588978D01*
X57134051Y-125550503D01*
X57199886Y-125532863D01*
X57199888Y-125532862D01*
X57205196Y-125531440D01*
X57210178Y-125529117D01*
X57401690Y-125439814D01*
X57401695Y-125439811D01*
X57406677Y-125437488D01*
X57508505Y-125366187D01*
X57584270Y-125313136D01*
X57584273Y-125313134D01*
X57588781Y-125309977D01*
X57745977Y-125152781D01*
X57837477Y-125022106D01*
X57870331Y-124975185D01*
X57870332Y-124975183D01*
X57873488Y-124970676D01*
X57875811Y-124965694D01*
X57875814Y-124965689D01*
X57924805Y-124860627D01*
X57971723Y-124807342D01*
X58040000Y-124787881D01*
X58107960Y-124808423D01*
X58153195Y-124860627D01*
X58202186Y-124965689D01*
X58202189Y-124965694D01*
X58204512Y-124970676D01*
X58207668Y-124975183D01*
X58207669Y-124975185D01*
X58240524Y-125022106D01*
X58332023Y-125152781D01*
X58489219Y-125309977D01*
X58493727Y-125313134D01*
X58493730Y-125313136D01*
X58569495Y-125366187D01*
X58671323Y-125437488D01*
X58676305Y-125439811D01*
X58676310Y-125439814D01*
X58867822Y-125529117D01*
X58872804Y-125531440D01*
X58878112Y-125532862D01*
X58878114Y-125532863D01*
X58943949Y-125550503D01*
X59087537Y-125588978D01*
X59309000Y-125608353D01*
X59530463Y-125588978D01*
X59674051Y-125550503D01*
X59739886Y-125532863D01*
X59739888Y-125532862D01*
X59745196Y-125531440D01*
X59750178Y-125529117D01*
X59941690Y-125439814D01*
X59941695Y-125439811D01*
X59946677Y-125437488D01*
X60048505Y-125366187D01*
X60124270Y-125313136D01*
X60124273Y-125313134D01*
X60128781Y-125309977D01*
X60285977Y-125152781D01*
X60377477Y-125022106D01*
X60410331Y-124975185D01*
X60410332Y-124975183D01*
X60413488Y-124970676D01*
X60415811Y-124965694D01*
X60415814Y-124965689D01*
X60464805Y-124860627D01*
X60511723Y-124807342D01*
X60580000Y-124787881D01*
X60647960Y-124808423D01*
X60693195Y-124860627D01*
X60742186Y-124965689D01*
X60742189Y-124965694D01*
X60744512Y-124970676D01*
X60747668Y-124975183D01*
X60747669Y-124975185D01*
X60780524Y-125022106D01*
X60872023Y-125152781D01*
X61029219Y-125309977D01*
X61033727Y-125313134D01*
X61033730Y-125313136D01*
X61109495Y-125366187D01*
X61211323Y-125437488D01*
X61216305Y-125439811D01*
X61216310Y-125439814D01*
X61407822Y-125529117D01*
X61412804Y-125531440D01*
X61418112Y-125532862D01*
X61418114Y-125532863D01*
X61483949Y-125550503D01*
X61627537Y-125588978D01*
X61849000Y-125608353D01*
X62070463Y-125588978D01*
X62214051Y-125550503D01*
X62279886Y-125532863D01*
X62279888Y-125532862D01*
X62285196Y-125531440D01*
X62290178Y-125529117D01*
X62481690Y-125439814D01*
X62481695Y-125439811D01*
X62486677Y-125437488D01*
X62588505Y-125366187D01*
X62664270Y-125313136D01*
X62664273Y-125313134D01*
X62668781Y-125309977D01*
X62825977Y-125152781D01*
X62917477Y-125022106D01*
X62950331Y-124975185D01*
X62950332Y-124975183D01*
X62953488Y-124970676D01*
X62955811Y-124965694D01*
X62955814Y-124965689D01*
X63004805Y-124860627D01*
X63051723Y-124807342D01*
X63120000Y-124787881D01*
X63187960Y-124808423D01*
X63233195Y-124860627D01*
X63282186Y-124965689D01*
X63282189Y-124965694D01*
X63284512Y-124970676D01*
X63287668Y-124975183D01*
X63287669Y-124975185D01*
X63320524Y-125022106D01*
X63412023Y-125152781D01*
X63569219Y-125309977D01*
X63573727Y-125313134D01*
X63573730Y-125313136D01*
X63649495Y-125366187D01*
X63751323Y-125437488D01*
X63756305Y-125439811D01*
X63756310Y-125439814D01*
X63947822Y-125529117D01*
X63952804Y-125531440D01*
X63958112Y-125532862D01*
X63958114Y-125532863D01*
X64023949Y-125550503D01*
X64167537Y-125588978D01*
X64389000Y-125608353D01*
X64610463Y-125588978D01*
X64754051Y-125550503D01*
X64819886Y-125532863D01*
X64819888Y-125532862D01*
X64825196Y-125531440D01*
X64830178Y-125529117D01*
X65021690Y-125439814D01*
X65021695Y-125439811D01*
X65026677Y-125437488D01*
X65128505Y-125366187D01*
X65204270Y-125313136D01*
X65204273Y-125313134D01*
X65208781Y-125309977D01*
X65365977Y-125152781D01*
X65457477Y-125022106D01*
X65490331Y-124975185D01*
X65490332Y-124975183D01*
X65493488Y-124970676D01*
X65495811Y-124965694D01*
X65495814Y-124965689D01*
X65585117Y-124774178D01*
X65585118Y-124774177D01*
X65587440Y-124769196D01*
X65644978Y-124554463D01*
X65664353Y-124333000D01*
X65644978Y-124111537D01*
X65587440Y-123896804D01*
X65507401Y-123725160D01*
X65495814Y-123700311D01*
X65495811Y-123700306D01*
X65493488Y-123695324D01*
X65490331Y-123690815D01*
X65369136Y-123517730D01*
X65369134Y-123517727D01*
X65365977Y-123513219D01*
X65208781Y-123356023D01*
X65204273Y-123352866D01*
X65204270Y-123352864D01*
X65128505Y-123299813D01*
X65026677Y-123228512D01*
X65021695Y-123226189D01*
X65021690Y-123226186D01*
X64830178Y-123136883D01*
X64830177Y-123136882D01*
X64825196Y-123134560D01*
X64819888Y-123133138D01*
X64819886Y-123133137D01*
X64754051Y-123115497D01*
X64610463Y-123077022D01*
X64389000Y-123057647D01*
X64167537Y-123077022D01*
X64023949Y-123115497D01*
X63958114Y-123133137D01*
X63958112Y-123133138D01*
X63952804Y-123134560D01*
X63947823Y-123136882D01*
X63947822Y-123136883D01*
X63756311Y-123226186D01*
X63756306Y-123226189D01*
X63751324Y-123228512D01*
X63746817Y-123231668D01*
X63746815Y-123231669D01*
X63573730Y-123352864D01*
X63573727Y-123352866D01*
X63569219Y-123356023D01*
X63412023Y-123513219D01*
X63408866Y-123517727D01*
X63408864Y-123517730D01*
X63287669Y-123690815D01*
X63284512Y-123695324D01*
X63282189Y-123700306D01*
X63282186Y-123700311D01*
X63233195Y-123805373D01*
X63186277Y-123858658D01*
X63118000Y-123878119D01*
X63050040Y-123857577D01*
X63004805Y-123805373D01*
X62955814Y-123700311D01*
X62955811Y-123700306D01*
X62953488Y-123695324D01*
X62950331Y-123690815D01*
X62829136Y-123517730D01*
X62829134Y-123517727D01*
X62825977Y-123513219D01*
X62668781Y-123356023D01*
X62664273Y-123352866D01*
X62664270Y-123352864D01*
X62588505Y-123299813D01*
X62486677Y-123228512D01*
X62481695Y-123226189D01*
X62481690Y-123226186D01*
X62290178Y-123136883D01*
X62290177Y-123136882D01*
X62285196Y-123134560D01*
X62279888Y-123133138D01*
X62279886Y-123133137D01*
X62214051Y-123115497D01*
X62070463Y-123077022D01*
X61849000Y-123057647D01*
X61627537Y-123077022D01*
X61483949Y-123115497D01*
X61418114Y-123133137D01*
X61418112Y-123133138D01*
X61412804Y-123134560D01*
X61407823Y-123136882D01*
X61407822Y-123136883D01*
X61216311Y-123226186D01*
X61216306Y-123226189D01*
X61211324Y-123228512D01*
X61206817Y-123231668D01*
X61206815Y-123231669D01*
X61033730Y-123352864D01*
X61033727Y-123352866D01*
X61029219Y-123356023D01*
X60872023Y-123513219D01*
X60868866Y-123517727D01*
X60868864Y-123517730D01*
X60747669Y-123690815D01*
X60744512Y-123695324D01*
X60742189Y-123700306D01*
X60742186Y-123700311D01*
X60693195Y-123805373D01*
X60646277Y-123858658D01*
X60578000Y-123878119D01*
X60510040Y-123857577D01*
X60464805Y-123805373D01*
X60415814Y-123700311D01*
X60415811Y-123700306D01*
X60413488Y-123695324D01*
X60410331Y-123690815D01*
X60289136Y-123517730D01*
X60289134Y-123517727D01*
X60285977Y-123513219D01*
X60128781Y-123356023D01*
X60124273Y-123352866D01*
X60124270Y-123352864D01*
X60048505Y-123299813D01*
X59946677Y-123228512D01*
X59941695Y-123226189D01*
X59941690Y-123226186D01*
X59750178Y-123136883D01*
X59750177Y-123136882D01*
X59745196Y-123134560D01*
X59739888Y-123133138D01*
X59739886Y-123133137D01*
X59674051Y-123115497D01*
X59530463Y-123077022D01*
X59309000Y-123057647D01*
X59087537Y-123077022D01*
X58943949Y-123115497D01*
X58878114Y-123133137D01*
X58878112Y-123133138D01*
X58872804Y-123134560D01*
X58867823Y-123136882D01*
X58867822Y-123136883D01*
X58676311Y-123226186D01*
X58676306Y-123226189D01*
X58671324Y-123228512D01*
X58666817Y-123231668D01*
X58666815Y-123231669D01*
X58493730Y-123352864D01*
X58493727Y-123352866D01*
X58489219Y-123356023D01*
X58332023Y-123513219D01*
X58328866Y-123517727D01*
X58328864Y-123517730D01*
X58207669Y-123690815D01*
X58204512Y-123695324D01*
X58202189Y-123700306D01*
X58202186Y-123700311D01*
X58153195Y-123805373D01*
X58106277Y-123858658D01*
X58038000Y-123878119D01*
X57970040Y-123857577D01*
X57924805Y-123805373D01*
X57875814Y-123700311D01*
X57875811Y-123700306D01*
X57873488Y-123695324D01*
X57870331Y-123690815D01*
X57749136Y-123517730D01*
X57749134Y-123517727D01*
X57745977Y-123513219D01*
X57588781Y-123356023D01*
X57584273Y-123352866D01*
X57584270Y-123352864D01*
X57508505Y-123299813D01*
X57406677Y-123228512D01*
X57401695Y-123226189D01*
X57401690Y-123226186D01*
X57210178Y-123136883D01*
X57210177Y-123136882D01*
X57205196Y-123134560D01*
X57199888Y-123133138D01*
X57199886Y-123133137D01*
X57134051Y-123115497D01*
X56990463Y-123077022D01*
X56769000Y-123057647D01*
X56547537Y-123077022D01*
X56403949Y-123115497D01*
X56338114Y-123133137D01*
X56338112Y-123133138D01*
X56332804Y-123134560D01*
X56327823Y-123136882D01*
X56327822Y-123136883D01*
X56136311Y-123226186D01*
X56136306Y-123226189D01*
X56131324Y-123228512D01*
X56126817Y-123231668D01*
X56126815Y-123231669D01*
X55953730Y-123352864D01*
X55953727Y-123352866D01*
X55949219Y-123356023D01*
X55792023Y-123513219D01*
X55788866Y-123517727D01*
X55788864Y-123517730D01*
X55667669Y-123690815D01*
X55664512Y-123695324D01*
X55662189Y-123700306D01*
X55662186Y-123700311D01*
X55613195Y-123805373D01*
X55566277Y-123858658D01*
X55498000Y-123878119D01*
X55430040Y-123857577D01*
X55384805Y-123805373D01*
X55335814Y-123700311D01*
X55335811Y-123700306D01*
X55333488Y-123695324D01*
X55330331Y-123690815D01*
X55209136Y-123517730D01*
X55209134Y-123517727D01*
X55205977Y-123513219D01*
X55048781Y-123356023D01*
X55044273Y-123352866D01*
X55044270Y-123352864D01*
X54968505Y-123299813D01*
X54866677Y-123228512D01*
X54861695Y-123226189D01*
X54861690Y-123226186D01*
X54670178Y-123136883D01*
X54670177Y-123136882D01*
X54665196Y-123134560D01*
X54659888Y-123133138D01*
X54659886Y-123133137D01*
X54594051Y-123115497D01*
X54450463Y-123077022D01*
X54229000Y-123057647D01*
X54007537Y-123077022D01*
X53863949Y-123115497D01*
X53798114Y-123133137D01*
X53798112Y-123133138D01*
X53792804Y-123134560D01*
X53787823Y-123136882D01*
X53787822Y-123136883D01*
X53596311Y-123226186D01*
X53596306Y-123226189D01*
X53591324Y-123228512D01*
X53586817Y-123231668D01*
X53586815Y-123231669D01*
X53413730Y-123352864D01*
X53413727Y-123352866D01*
X53409219Y-123356023D01*
X53252023Y-123513219D01*
X53248866Y-123517727D01*
X53248864Y-123517730D01*
X53127669Y-123690815D01*
X53124512Y-123695324D01*
X53122189Y-123700306D01*
X53122186Y-123700311D01*
X53073195Y-123805373D01*
X53026277Y-123858658D01*
X52958000Y-123878119D01*
X52890040Y-123857577D01*
X52844805Y-123805373D01*
X52795814Y-123700311D01*
X52795811Y-123700306D01*
X52793488Y-123695324D01*
X52790331Y-123690815D01*
X52669136Y-123517730D01*
X52669134Y-123517727D01*
X52665977Y-123513219D01*
X52508781Y-123356023D01*
X52504273Y-123352866D01*
X52504270Y-123352864D01*
X52423275Y-123296151D01*
X52376229Y-123263209D01*
X52331901Y-123207752D01*
X52322500Y-123159996D01*
X52322500Y-114205268D01*
X52323027Y-114194085D01*
X52324702Y-114186592D01*
X52322562Y-114118501D01*
X52322500Y-114114544D01*
X52322500Y-114086644D01*
X52321996Y-114082653D01*
X52321063Y-114070811D01*
X52319923Y-114034536D01*
X52319674Y-114026611D01*
X52314021Y-114007152D01*
X52310012Y-113987793D01*
X52309846Y-113986483D01*
X52307474Y-113967703D01*
X52304558Y-113960337D01*
X52304556Y-113960331D01*
X52291200Y-113926598D01*
X52287355Y-113915368D01*
X52277230Y-113880517D01*
X52277230Y-113880516D01*
X52275019Y-113872907D01*
X52264705Y-113855466D01*
X52256008Y-113837713D01*
X52251472Y-113826258D01*
X52248552Y-113818883D01*
X52222563Y-113783112D01*
X52216047Y-113773192D01*
X52197578Y-113741963D01*
X52193542Y-113735138D01*
X52179221Y-113720817D01*
X52166380Y-113705783D01*
X52159131Y-113695806D01*
X52154472Y-113689393D01*
X52148368Y-113684343D01*
X52148363Y-113684338D01*
X52120402Y-113661207D01*
X52111621Y-113653217D01*
X51580100Y-113121695D01*
X51546075Y-113059383D01*
X51551140Y-112988567D01*
X51593687Y-112931732D01*
X51660207Y-112906921D01*
X51680180Y-112907080D01*
X51683517Y-112907372D01*
X51694475Y-112907372D01*
X51904896Y-112888962D01*
X51915691Y-112887059D01*
X52119715Y-112832391D01*
X52130007Y-112828645D01*
X52321445Y-112739376D01*
X52330931Y-112733898D01*
X52374764Y-112703207D01*
X52383139Y-112692729D01*
X52376071Y-112679281D01*
X51330922Y-111634132D01*
X52053408Y-111634132D01*
X52053539Y-111635965D01*
X52057790Y-111642580D01*
X52736003Y-112320793D01*
X52747777Y-112327223D01*
X52759793Y-112317926D01*
X52789897Y-112274932D01*
X52795377Y-112265441D01*
X52844529Y-112160035D01*
X52891447Y-112106750D01*
X52959724Y-112087289D01*
X53027684Y-112107831D01*
X53072919Y-112160035D01*
X53122186Y-112265689D01*
X53122189Y-112265694D01*
X53124512Y-112270676D01*
X53127668Y-112275183D01*
X53127669Y-112275185D01*
X53164107Y-112327223D01*
X53252023Y-112452781D01*
X53409219Y-112609977D01*
X53413727Y-112613134D01*
X53413730Y-112613136D01*
X53438467Y-112630457D01*
X53591323Y-112737488D01*
X53596305Y-112739811D01*
X53596310Y-112739814D01*
X53750722Y-112811817D01*
X53792804Y-112831440D01*
X53798112Y-112832862D01*
X53798114Y-112832863D01*
X53863949Y-112850503D01*
X54007537Y-112888978D01*
X54229000Y-112908353D01*
X54450463Y-112888978D01*
X54594051Y-112850503D01*
X54659886Y-112832863D01*
X54659888Y-112832862D01*
X54665196Y-112831440D01*
X54707278Y-112811817D01*
X54861690Y-112739814D01*
X54861695Y-112739811D01*
X54866677Y-112737488D01*
X55019533Y-112630457D01*
X55044270Y-112613136D01*
X55044273Y-112613134D01*
X55048781Y-112609977D01*
X55205977Y-112452781D01*
X55293894Y-112327223D01*
X55330331Y-112275185D01*
X55330332Y-112275183D01*
X55333488Y-112270676D01*
X55335811Y-112265694D01*
X55335814Y-112265689D01*
X55384805Y-112160627D01*
X55431723Y-112107342D01*
X55500000Y-112087881D01*
X55567960Y-112108423D01*
X55613195Y-112160627D01*
X55662186Y-112265689D01*
X55662189Y-112265694D01*
X55664512Y-112270676D01*
X55667668Y-112275183D01*
X55667669Y-112275185D01*
X55704107Y-112327223D01*
X55792023Y-112452781D01*
X55949219Y-112609977D01*
X55953727Y-112613134D01*
X55953730Y-112613136D01*
X55978467Y-112630457D01*
X56131323Y-112737488D01*
X56136305Y-112739811D01*
X56136310Y-112739814D01*
X56290722Y-112811817D01*
X56332804Y-112831440D01*
X56338112Y-112832862D01*
X56338114Y-112832863D01*
X56403949Y-112850503D01*
X56547537Y-112888978D01*
X56769000Y-112908353D01*
X56990463Y-112888978D01*
X57134051Y-112850503D01*
X57199886Y-112832863D01*
X57199888Y-112832862D01*
X57205196Y-112831440D01*
X57247278Y-112811817D01*
X57401690Y-112739814D01*
X57401695Y-112739811D01*
X57406677Y-112737488D01*
X57559533Y-112630457D01*
X57584270Y-112613136D01*
X57584273Y-112613134D01*
X57588781Y-112609977D01*
X57745977Y-112452781D01*
X57833894Y-112327223D01*
X57870331Y-112275185D01*
X57870332Y-112275183D01*
X57873488Y-112270676D01*
X57875811Y-112265694D01*
X57875814Y-112265689D01*
X57924805Y-112160627D01*
X57971723Y-112107342D01*
X58040000Y-112087881D01*
X58107960Y-112108423D01*
X58153195Y-112160627D01*
X58202186Y-112265689D01*
X58202189Y-112265694D01*
X58204512Y-112270676D01*
X58207668Y-112275183D01*
X58207669Y-112275185D01*
X58244107Y-112327223D01*
X58332023Y-112452781D01*
X58489219Y-112609977D01*
X58493727Y-112613134D01*
X58493730Y-112613136D01*
X58518467Y-112630457D01*
X58671323Y-112737488D01*
X58676305Y-112739811D01*
X58676310Y-112739814D01*
X58830722Y-112811817D01*
X58872804Y-112831440D01*
X58878112Y-112832862D01*
X58878114Y-112832863D01*
X58943949Y-112850503D01*
X59087537Y-112888978D01*
X59309000Y-112908353D01*
X59530463Y-112888978D01*
X59674051Y-112850503D01*
X59739886Y-112832863D01*
X59739888Y-112832862D01*
X59745196Y-112831440D01*
X59787278Y-112811817D01*
X59941690Y-112739814D01*
X59941695Y-112739811D01*
X59946677Y-112737488D01*
X60099533Y-112630457D01*
X60124270Y-112613136D01*
X60124273Y-112613134D01*
X60128781Y-112609977D01*
X60285977Y-112452781D01*
X60373894Y-112327223D01*
X60410331Y-112275185D01*
X60410332Y-112275183D01*
X60413488Y-112270676D01*
X60415811Y-112265694D01*
X60415814Y-112265689D01*
X60464805Y-112160627D01*
X60511723Y-112107342D01*
X60580000Y-112087881D01*
X60647960Y-112108423D01*
X60693195Y-112160627D01*
X60742186Y-112265689D01*
X60742189Y-112265694D01*
X60744512Y-112270676D01*
X60747668Y-112275183D01*
X60747669Y-112275185D01*
X60784107Y-112327223D01*
X60872023Y-112452781D01*
X61029219Y-112609977D01*
X61033727Y-112613134D01*
X61033730Y-112613136D01*
X61058467Y-112630457D01*
X61211323Y-112737488D01*
X61216305Y-112739811D01*
X61216310Y-112739814D01*
X61370722Y-112811817D01*
X61412804Y-112831440D01*
X61418112Y-112832862D01*
X61418114Y-112832863D01*
X61483949Y-112850503D01*
X61627537Y-112888978D01*
X61849000Y-112908353D01*
X62070463Y-112888978D01*
X62214051Y-112850503D01*
X62279886Y-112832863D01*
X62279888Y-112832862D01*
X62285196Y-112831440D01*
X62327278Y-112811817D01*
X62481690Y-112739814D01*
X62481695Y-112739811D01*
X62486677Y-112737488D01*
X62639533Y-112630457D01*
X62664270Y-112613136D01*
X62664273Y-112613134D01*
X62668781Y-112609977D01*
X62825977Y-112452781D01*
X62913894Y-112327223D01*
X62950331Y-112275185D01*
X62950332Y-112275183D01*
X62953488Y-112270676D01*
X62955811Y-112265694D01*
X62955814Y-112265689D01*
X63004805Y-112160627D01*
X63051723Y-112107342D01*
X63120000Y-112087881D01*
X63187960Y-112108423D01*
X63233195Y-112160627D01*
X63282186Y-112265689D01*
X63282189Y-112265694D01*
X63284512Y-112270676D01*
X63287668Y-112275183D01*
X63287669Y-112275185D01*
X63324107Y-112327223D01*
X63412023Y-112452781D01*
X63569219Y-112609977D01*
X63573727Y-112613134D01*
X63573730Y-112613136D01*
X63598467Y-112630457D01*
X63751323Y-112737488D01*
X63756305Y-112739811D01*
X63756310Y-112739814D01*
X63910722Y-112811817D01*
X63952804Y-112831440D01*
X63958112Y-112832862D01*
X63958114Y-112832863D01*
X64023949Y-112850503D01*
X64167537Y-112888978D01*
X64389000Y-112908353D01*
X64610463Y-112888978D01*
X64754051Y-112850503D01*
X64819886Y-112832863D01*
X64819888Y-112832862D01*
X64825196Y-112831440D01*
X64867278Y-112811817D01*
X65021690Y-112739814D01*
X65021695Y-112739811D01*
X65026677Y-112737488D01*
X65179533Y-112630457D01*
X65204270Y-112613136D01*
X65204273Y-112613134D01*
X65208781Y-112609977D01*
X65365977Y-112452781D01*
X65453894Y-112327223D01*
X65490331Y-112275185D01*
X65490332Y-112275183D01*
X65493488Y-112270676D01*
X65495811Y-112265694D01*
X65495814Y-112265689D01*
X65585117Y-112074178D01*
X65585118Y-112074177D01*
X65587440Y-112069196D01*
X65644978Y-111854463D01*
X65664353Y-111633000D01*
X65644978Y-111411537D01*
X65587440Y-111196804D01*
X65569148Y-111157577D01*
X65495814Y-111000311D01*
X65495811Y-111000306D01*
X65493488Y-110995324D01*
X65479877Y-110975885D01*
X65369136Y-110817730D01*
X65369134Y-110817727D01*
X65365977Y-110813219D01*
X65208781Y-110656023D01*
X65204273Y-110652866D01*
X65204270Y-110652864D01*
X65128505Y-110599813D01*
X65026677Y-110528512D01*
X65021695Y-110526189D01*
X65021690Y-110526186D01*
X64830178Y-110436883D01*
X64830177Y-110436882D01*
X64825196Y-110434560D01*
X64819888Y-110433138D01*
X64819886Y-110433137D01*
X64754051Y-110415497D01*
X64610463Y-110377022D01*
X64389000Y-110357647D01*
X64167537Y-110377022D01*
X64023949Y-110415497D01*
X63958114Y-110433137D01*
X63958112Y-110433138D01*
X63952804Y-110434560D01*
X63947823Y-110436882D01*
X63947822Y-110436883D01*
X63756311Y-110526186D01*
X63756306Y-110526189D01*
X63751324Y-110528512D01*
X63746817Y-110531668D01*
X63746815Y-110531669D01*
X63573730Y-110652864D01*
X63573727Y-110652866D01*
X63569219Y-110656023D01*
X63412023Y-110813219D01*
X63408866Y-110817727D01*
X63408864Y-110817730D01*
X63298123Y-110975885D01*
X63284512Y-110995324D01*
X63282189Y-111000306D01*
X63282186Y-111000311D01*
X63233195Y-111105373D01*
X63186277Y-111158658D01*
X63118000Y-111178119D01*
X63050040Y-111157577D01*
X63004805Y-111105373D01*
X62955814Y-111000311D01*
X62955811Y-111000306D01*
X62953488Y-110995324D01*
X62939877Y-110975885D01*
X62829136Y-110817730D01*
X62829134Y-110817727D01*
X62825977Y-110813219D01*
X62668781Y-110656023D01*
X62664273Y-110652866D01*
X62664270Y-110652864D01*
X62588505Y-110599813D01*
X62486677Y-110528512D01*
X62481695Y-110526189D01*
X62481690Y-110526186D01*
X62290178Y-110436883D01*
X62290177Y-110436882D01*
X62285196Y-110434560D01*
X62279888Y-110433138D01*
X62279886Y-110433137D01*
X62214051Y-110415497D01*
X62070463Y-110377022D01*
X61849000Y-110357647D01*
X61627537Y-110377022D01*
X61483949Y-110415497D01*
X61418114Y-110433137D01*
X61418112Y-110433138D01*
X61412804Y-110434560D01*
X61407823Y-110436882D01*
X61407822Y-110436883D01*
X61216311Y-110526186D01*
X61216306Y-110526189D01*
X61211324Y-110528512D01*
X61206817Y-110531668D01*
X61206815Y-110531669D01*
X61033730Y-110652864D01*
X61033727Y-110652866D01*
X61029219Y-110656023D01*
X60872023Y-110813219D01*
X60868866Y-110817727D01*
X60868864Y-110817730D01*
X60758123Y-110975885D01*
X60744512Y-110995324D01*
X60742189Y-111000306D01*
X60742186Y-111000311D01*
X60693195Y-111105373D01*
X60646277Y-111158658D01*
X60578000Y-111178119D01*
X60510040Y-111157577D01*
X60464805Y-111105373D01*
X60415814Y-111000311D01*
X60415811Y-111000306D01*
X60413488Y-110995324D01*
X60399877Y-110975885D01*
X60289136Y-110817730D01*
X60289134Y-110817727D01*
X60285977Y-110813219D01*
X60128781Y-110656023D01*
X60124273Y-110652866D01*
X60124270Y-110652864D01*
X60048505Y-110599813D01*
X59946677Y-110528512D01*
X59941695Y-110526189D01*
X59941690Y-110526186D01*
X59750178Y-110436883D01*
X59750177Y-110436882D01*
X59745196Y-110434560D01*
X59739888Y-110433138D01*
X59739886Y-110433137D01*
X59674051Y-110415497D01*
X59530463Y-110377022D01*
X59309000Y-110357647D01*
X59087537Y-110377022D01*
X58943949Y-110415497D01*
X58878114Y-110433137D01*
X58878112Y-110433138D01*
X58872804Y-110434560D01*
X58867823Y-110436882D01*
X58867822Y-110436883D01*
X58676311Y-110526186D01*
X58676306Y-110526189D01*
X58671324Y-110528512D01*
X58666817Y-110531668D01*
X58666815Y-110531669D01*
X58493730Y-110652864D01*
X58493727Y-110652866D01*
X58489219Y-110656023D01*
X58332023Y-110813219D01*
X58328866Y-110817727D01*
X58328864Y-110817730D01*
X58218123Y-110975885D01*
X58204512Y-110995324D01*
X58202189Y-111000306D01*
X58202186Y-111000311D01*
X58153195Y-111105373D01*
X58106277Y-111158658D01*
X58038000Y-111178119D01*
X57970040Y-111157577D01*
X57924805Y-111105373D01*
X57875814Y-111000311D01*
X57875811Y-111000306D01*
X57873488Y-110995324D01*
X57859877Y-110975885D01*
X57749136Y-110817730D01*
X57749134Y-110817727D01*
X57745977Y-110813219D01*
X57588781Y-110656023D01*
X57584273Y-110652866D01*
X57584270Y-110652864D01*
X57508505Y-110599813D01*
X57406677Y-110528512D01*
X57401695Y-110526189D01*
X57401690Y-110526186D01*
X57210178Y-110436883D01*
X57210177Y-110436882D01*
X57205196Y-110434560D01*
X57199888Y-110433138D01*
X57199886Y-110433137D01*
X57134051Y-110415497D01*
X56990463Y-110377022D01*
X56769000Y-110357647D01*
X56547537Y-110377022D01*
X56403949Y-110415497D01*
X56338114Y-110433137D01*
X56338112Y-110433138D01*
X56332804Y-110434560D01*
X56327823Y-110436882D01*
X56327822Y-110436883D01*
X56136311Y-110526186D01*
X56136306Y-110526189D01*
X56131324Y-110528512D01*
X56126817Y-110531668D01*
X56126815Y-110531669D01*
X55953730Y-110652864D01*
X55953727Y-110652866D01*
X55949219Y-110656023D01*
X55792023Y-110813219D01*
X55788866Y-110817727D01*
X55788864Y-110817730D01*
X55678123Y-110975885D01*
X55664512Y-110995324D01*
X55662189Y-111000306D01*
X55662186Y-111000311D01*
X55613195Y-111105373D01*
X55566277Y-111158658D01*
X55498000Y-111178119D01*
X55430040Y-111157577D01*
X55384805Y-111105373D01*
X55335814Y-111000311D01*
X55335811Y-111000306D01*
X55333488Y-110995324D01*
X55319877Y-110975885D01*
X55209136Y-110817730D01*
X55209134Y-110817727D01*
X55205977Y-110813219D01*
X55048781Y-110656023D01*
X55044273Y-110652866D01*
X55044270Y-110652864D01*
X54968505Y-110599813D01*
X54866677Y-110528512D01*
X54861695Y-110526189D01*
X54861690Y-110526186D01*
X54670178Y-110436883D01*
X54670177Y-110436882D01*
X54665196Y-110434560D01*
X54659888Y-110433138D01*
X54659886Y-110433137D01*
X54594051Y-110415497D01*
X54450463Y-110377022D01*
X54229000Y-110357647D01*
X54007537Y-110377022D01*
X53863949Y-110415497D01*
X53798114Y-110433137D01*
X53798112Y-110433138D01*
X53792804Y-110434560D01*
X53787823Y-110436882D01*
X53787822Y-110436883D01*
X53596311Y-110526186D01*
X53596306Y-110526189D01*
X53591324Y-110528512D01*
X53586817Y-110531668D01*
X53586815Y-110531669D01*
X53413730Y-110652864D01*
X53413727Y-110652866D01*
X53409219Y-110656023D01*
X53252023Y-110813219D01*
X53248866Y-110817727D01*
X53248864Y-110817730D01*
X53138123Y-110975885D01*
X53124512Y-110995324D01*
X53122189Y-111000306D01*
X53122186Y-111000311D01*
X53072919Y-111105965D01*
X53026001Y-111159250D01*
X52957724Y-111178711D01*
X52889764Y-111158169D01*
X52844529Y-111105965D01*
X52795377Y-111000559D01*
X52789897Y-110991068D01*
X52759206Y-110947235D01*
X52748729Y-110938860D01*
X52735282Y-110945928D01*
X52061022Y-111620188D01*
X52053408Y-111634132D01*
X51330922Y-111634132D01*
X50641997Y-110945207D01*
X50630223Y-110938777D01*
X50618207Y-110948074D01*
X50588103Y-110991068D01*
X50582623Y-111000559D01*
X50493355Y-111191993D01*
X50489609Y-111202285D01*
X50434941Y-111406309D01*
X50433038Y-111417104D01*
X50414628Y-111627525D01*
X50414628Y-111638485D01*
X50414920Y-111641822D01*
X50414628Y-111643275D01*
X50414628Y-111643982D01*
X50414486Y-111643982D01*
X50400932Y-111711427D01*
X50351533Y-111762420D01*
X50282408Y-111778611D01*
X50215502Y-111754859D01*
X50200305Y-111741900D01*
X49031676Y-110573271D01*
X50994860Y-110573271D01*
X51001928Y-110586718D01*
X51676188Y-111260978D01*
X51690132Y-111268592D01*
X51691965Y-111268461D01*
X51698580Y-111264210D01*
X52376793Y-110585997D01*
X52383223Y-110574223D01*
X52373926Y-110562207D01*
X52330931Y-110532102D01*
X52321445Y-110526624D01*
X52130007Y-110437355D01*
X52119715Y-110433609D01*
X51915691Y-110378941D01*
X51904896Y-110377038D01*
X51694475Y-110358628D01*
X51683525Y-110358628D01*
X51473104Y-110377038D01*
X51462309Y-110378941D01*
X51258285Y-110433609D01*
X51247993Y-110437355D01*
X51056559Y-110526623D01*
X51047068Y-110532103D01*
X51003235Y-110562794D01*
X50994860Y-110573271D01*
X49031676Y-110573271D01*
X48341152Y-109882747D01*
X48333612Y-109874461D01*
X48329500Y-109867982D01*
X48279848Y-109821356D01*
X48277007Y-109818602D01*
X48257270Y-109798865D01*
X48254073Y-109796385D01*
X48245051Y-109788680D01*
X48218600Y-109763841D01*
X48212821Y-109758414D01*
X48205875Y-109754595D01*
X48205872Y-109754593D01*
X48195066Y-109748652D01*
X48178547Y-109737801D01*
X48178083Y-109737441D01*
X48162541Y-109725386D01*
X48155272Y-109722241D01*
X48155268Y-109722238D01*
X48121963Y-109707826D01*
X48111313Y-109702609D01*
X48072560Y-109681305D01*
X48052937Y-109676267D01*
X48034234Y-109669863D01*
X48022920Y-109664967D01*
X48022919Y-109664967D01*
X48015645Y-109661819D01*
X48007822Y-109660580D01*
X48007812Y-109660577D01*
X47971976Y-109654901D01*
X47960356Y-109652495D01*
X47925211Y-109643472D01*
X47925210Y-109643472D01*
X47917530Y-109641500D01*
X47897276Y-109641500D01*
X47877565Y-109639949D01*
X47869181Y-109638621D01*
X47857557Y-109636780D01*
X47849665Y-109637526D01*
X47813539Y-109640941D01*
X47801681Y-109641500D01*
X40019594Y-109641500D01*
X39951473Y-109621498D01*
X39904980Y-109567842D01*
X39894876Y-109497568D01*
X39924370Y-109432988D01*
X39930499Y-109426405D01*
X40934549Y-108422355D01*
X40996861Y-108388329D01*
X41048762Y-108387979D01*
X41228597Y-108424567D01*
X41233772Y-108424757D01*
X41233774Y-108424757D01*
X41446673Y-108432564D01*
X41446677Y-108432564D01*
X41451837Y-108432753D01*
X41456957Y-108432097D01*
X41456959Y-108432097D01*
X41668288Y-108405025D01*
X41668289Y-108405025D01*
X41673416Y-108404368D01*
X41678366Y-108402883D01*
X41882429Y-108341661D01*
X41882434Y-108341659D01*
X41887384Y-108340174D01*
X42087994Y-108241896D01*
X42269860Y-108112173D01*
X42428096Y-107954489D01*
X42558453Y-107773077D01*
X42559776Y-107774028D01*
X42606645Y-107730857D01*
X42676580Y-107718625D01*
X42742026Y-107746144D01*
X42769875Y-107777994D01*
X42829987Y-107876088D01*
X42976250Y-108044938D01*
X43148126Y-108187632D01*
X43341000Y-108300338D01*
X43549692Y-108380030D01*
X43554760Y-108381061D01*
X43554763Y-108381062D01*
X43659604Y-108402392D01*
X43768597Y-108424567D01*
X43773772Y-108424757D01*
X43773774Y-108424757D01*
X43986673Y-108432564D01*
X43986677Y-108432564D01*
X43991837Y-108432753D01*
X43996957Y-108432097D01*
X43996959Y-108432097D01*
X44208288Y-108405025D01*
X44208289Y-108405025D01*
X44213416Y-108404368D01*
X44218366Y-108402883D01*
X44422429Y-108341661D01*
X44422434Y-108341659D01*
X44427384Y-108340174D01*
X44627994Y-108241896D01*
X44809860Y-108112173D01*
X44968096Y-107954489D01*
X45098453Y-107773077D01*
X45099776Y-107774028D01*
X45146645Y-107730857D01*
X45216580Y-107718625D01*
X45282026Y-107746144D01*
X45309875Y-107777994D01*
X45369987Y-107876088D01*
X45516250Y-108044938D01*
X45688126Y-108187632D01*
X45881000Y-108300338D01*
X46089692Y-108380030D01*
X46094760Y-108381061D01*
X46094763Y-108381062D01*
X46199604Y-108402392D01*
X46308597Y-108424567D01*
X46313772Y-108424757D01*
X46313774Y-108424757D01*
X46526673Y-108432564D01*
X46526677Y-108432564D01*
X46531837Y-108432753D01*
X46536957Y-108432097D01*
X46536959Y-108432097D01*
X46748288Y-108405025D01*
X46748289Y-108405025D01*
X46753416Y-108404368D01*
X46758366Y-108402883D01*
X46962429Y-108341661D01*
X46962434Y-108341659D01*
X46967384Y-108340174D01*
X47167994Y-108241896D01*
X47349860Y-108112173D01*
X47508096Y-107954489D01*
X47638453Y-107773077D01*
X47639776Y-107774028D01*
X47686645Y-107730857D01*
X47756580Y-107718625D01*
X47822026Y-107746144D01*
X47849875Y-107777994D01*
X47909987Y-107876088D01*
X48056250Y-108044938D01*
X48228126Y-108187632D01*
X48421000Y-108300338D01*
X48629692Y-108380030D01*
X48634760Y-108381061D01*
X48634763Y-108381062D01*
X48739604Y-108402392D01*
X48848597Y-108424567D01*
X48853772Y-108424757D01*
X48853774Y-108424757D01*
X49066673Y-108432564D01*
X49066677Y-108432564D01*
X49071837Y-108432753D01*
X49076957Y-108432097D01*
X49076959Y-108432097D01*
X49288288Y-108405025D01*
X49288289Y-108405025D01*
X49293416Y-108404368D01*
X49298366Y-108402883D01*
X49502429Y-108341661D01*
X49502434Y-108341659D01*
X49507384Y-108340174D01*
X49707994Y-108241896D01*
X49772544Y-108195853D01*
X50789977Y-108195853D01*
X50795258Y-108202907D01*
X50956756Y-108297279D01*
X50966042Y-108301729D01*
X51165001Y-108377703D01*
X51174899Y-108380579D01*
X51383595Y-108423038D01*
X51393823Y-108424257D01*
X51606650Y-108432062D01*
X51616936Y-108431595D01*
X51828185Y-108404534D01*
X51838262Y-108402392D01*
X52042255Y-108341191D01*
X52051842Y-108337433D01*
X52243098Y-108243738D01*
X52251944Y-108238465D01*
X52299247Y-108204723D01*
X52307648Y-108194023D01*
X52300660Y-108180870D01*
X51562812Y-107443022D01*
X51548868Y-107435408D01*
X51547035Y-107435539D01*
X51540420Y-107439790D01*
X50796737Y-108183473D01*
X50789977Y-108195853D01*
X49772544Y-108195853D01*
X49889860Y-108112173D01*
X50048096Y-107954489D01*
X50178453Y-107773077D01*
X50179640Y-107773930D01*
X50226960Y-107730362D01*
X50296897Y-107718145D01*
X50362338Y-107745678D01*
X50390166Y-107777512D01*
X50416459Y-107820419D01*
X50426916Y-107829880D01*
X50435694Y-107826096D01*
X51177978Y-107083812D01*
X51185592Y-107069868D01*
X51185461Y-107068035D01*
X51181210Y-107061420D01*
X50439849Y-106320059D01*
X50428313Y-106313759D01*
X50416031Y-106323382D01*
X50383499Y-106371072D01*
X50328587Y-106416075D01*
X50258063Y-106424246D01*
X50194316Y-106392992D01*
X50173618Y-106368508D01*
X50092822Y-106243617D01*
X50092820Y-106243614D01*
X50090014Y-106239277D01*
X49939670Y-106074051D01*
X49935619Y-106070852D01*
X49935615Y-106070848D01*
X49768414Y-105938800D01*
X49768410Y-105938798D01*
X49764359Y-105935598D01*
X49723053Y-105912796D01*
X49673084Y-105862364D01*
X49658312Y-105792921D01*
X49683428Y-105726516D01*
X49710780Y-105699909D01*
X49777974Y-105651980D01*
X49889860Y-105572173D01*
X50048096Y-105414489D01*
X50178453Y-105233077D01*
X50179776Y-105234028D01*
X50226645Y-105190857D01*
X50296580Y-105178625D01*
X50362026Y-105206144D01*
X50389875Y-105237994D01*
X50449987Y-105336088D01*
X50596250Y-105504938D01*
X50768126Y-105647632D01*
X50775567Y-105651980D01*
X50841955Y-105690774D01*
X50890679Y-105742412D01*
X50903750Y-105812195D01*
X50877019Y-105877967D01*
X50836562Y-105911327D01*
X50828460Y-105915544D01*
X50819734Y-105921039D01*
X50799677Y-105936099D01*
X50791223Y-105947427D01*
X50797968Y-105959758D01*
X51537188Y-106698978D01*
X51551132Y-106706592D01*
X51552965Y-106706461D01*
X51559580Y-106702210D01*
X52303389Y-105958401D01*
X52310410Y-105945544D01*
X52303611Y-105936213D01*
X52299559Y-105933521D01*
X52262602Y-105913120D01*
X52212631Y-105862687D01*
X52197859Y-105793245D01*
X52222975Y-105726839D01*
X52250327Y-105700232D01*
X52317974Y-105651980D01*
X52429860Y-105572173D01*
X52588096Y-105414489D01*
X52718453Y-105233077D01*
X52719776Y-105234028D01*
X52766645Y-105190857D01*
X52836580Y-105178625D01*
X52902026Y-105206144D01*
X52929875Y-105237994D01*
X52989987Y-105336088D01*
X53136250Y-105504938D01*
X53308126Y-105647632D01*
X53315567Y-105651980D01*
X53381445Y-105690476D01*
X53430169Y-105742114D01*
X53443240Y-105811897D01*
X53416509Y-105877669D01*
X53376055Y-105911027D01*
X53363607Y-105917507D01*
X53359474Y-105920610D01*
X53359471Y-105920612D01*
X53205998Y-106035843D01*
X53184965Y-106051635D01*
X53181393Y-106055373D01*
X53040349Y-106202967D01*
X53030629Y-106213138D01*
X52923204Y-106370618D01*
X52922898Y-106371066D01*
X52867987Y-106416069D01*
X52797462Y-106424240D01*
X52733715Y-106392986D01*
X52713017Y-106368501D01*
X52683062Y-106322197D01*
X52672377Y-106312995D01*
X52662812Y-106317398D01*
X51922022Y-107058188D01*
X51914408Y-107072132D01*
X51914539Y-107073965D01*
X51918790Y-107080580D01*
X52660474Y-107822264D01*
X52672484Y-107828823D01*
X52684223Y-107819855D01*
X52718022Y-107772819D01*
X52719277Y-107773721D01*
X52766391Y-107730355D01*
X52836330Y-107718148D01*
X52901767Y-107745691D01*
X52929580Y-107777513D01*
X52987287Y-107871683D01*
X52987291Y-107871688D01*
X52989987Y-107876088D01*
X53136250Y-108044938D01*
X53308126Y-108187632D01*
X53501000Y-108300338D01*
X53709692Y-108380030D01*
X53714760Y-108381061D01*
X53714763Y-108381062D01*
X53819604Y-108402392D01*
X53928597Y-108424567D01*
X53933772Y-108424757D01*
X53933774Y-108424757D01*
X54146673Y-108432564D01*
X54146677Y-108432564D01*
X54151837Y-108432753D01*
X54156957Y-108432097D01*
X54156959Y-108432097D01*
X54368288Y-108405025D01*
X54368289Y-108405025D01*
X54373416Y-108404368D01*
X54378366Y-108402883D01*
X54582429Y-108341661D01*
X54582434Y-108341659D01*
X54587384Y-108340174D01*
X54787994Y-108241896D01*
X54969860Y-108112173D01*
X55128096Y-107954489D01*
X55258453Y-107773077D01*
X55259776Y-107774028D01*
X55306645Y-107730857D01*
X55376580Y-107718625D01*
X55442026Y-107746144D01*
X55469875Y-107777994D01*
X55529987Y-107876088D01*
X55676250Y-108044938D01*
X55848126Y-108187632D01*
X56041000Y-108300338D01*
X56249692Y-108380030D01*
X56254760Y-108381061D01*
X56254763Y-108381062D01*
X56359604Y-108402392D01*
X56468597Y-108424567D01*
X56473772Y-108424757D01*
X56473774Y-108424757D01*
X56686673Y-108432564D01*
X56686677Y-108432564D01*
X56691837Y-108432753D01*
X56696957Y-108432097D01*
X56696959Y-108432097D01*
X56908288Y-108405025D01*
X56908289Y-108405025D01*
X56913416Y-108404368D01*
X56918366Y-108402883D01*
X57122429Y-108341661D01*
X57122434Y-108341659D01*
X57127384Y-108340174D01*
X57327994Y-108241896D01*
X57509860Y-108112173D01*
X57668096Y-107954489D01*
X57798453Y-107773077D01*
X57799776Y-107774028D01*
X57846645Y-107730857D01*
X57916580Y-107718625D01*
X57982026Y-107746144D01*
X58009875Y-107777994D01*
X58069987Y-107876088D01*
X58216250Y-108044938D01*
X58388126Y-108187632D01*
X58581000Y-108300338D01*
X58789692Y-108380030D01*
X58794760Y-108381061D01*
X58794763Y-108381062D01*
X58899604Y-108402392D01*
X59008597Y-108424567D01*
X59013772Y-108424757D01*
X59013774Y-108424757D01*
X59226673Y-108432564D01*
X59226677Y-108432564D01*
X59231837Y-108432753D01*
X59236957Y-108432097D01*
X59236959Y-108432097D01*
X59448288Y-108405025D01*
X59448289Y-108405025D01*
X59453416Y-108404368D01*
X59458366Y-108402883D01*
X59662429Y-108341661D01*
X59662434Y-108341659D01*
X59667384Y-108340174D01*
X59867994Y-108241896D01*
X60049860Y-108112173D01*
X60208096Y-107954489D01*
X60338453Y-107773077D01*
X60339776Y-107774028D01*
X60386645Y-107730857D01*
X60456580Y-107718625D01*
X60522026Y-107746144D01*
X60549875Y-107777994D01*
X60609987Y-107876088D01*
X60756250Y-108044938D01*
X60928126Y-108187632D01*
X61121000Y-108300338D01*
X61329692Y-108380030D01*
X61334760Y-108381061D01*
X61334763Y-108381062D01*
X61439604Y-108402392D01*
X61548597Y-108424567D01*
X61553772Y-108424757D01*
X61553774Y-108424757D01*
X61766673Y-108432564D01*
X61766677Y-108432564D01*
X61771837Y-108432753D01*
X61776957Y-108432097D01*
X61776959Y-108432097D01*
X61988288Y-108405025D01*
X61988289Y-108405025D01*
X61993416Y-108404368D01*
X61998366Y-108402883D01*
X62202429Y-108341661D01*
X62202434Y-108341659D01*
X62207384Y-108340174D01*
X62407994Y-108241896D01*
X62589860Y-108112173D01*
X62748096Y-107954489D01*
X62878453Y-107773077D01*
X62879776Y-107774028D01*
X62926645Y-107730857D01*
X62996580Y-107718625D01*
X63062026Y-107746144D01*
X63089875Y-107777994D01*
X63149987Y-107876088D01*
X63296250Y-108044938D01*
X63468126Y-108187632D01*
X63661000Y-108300338D01*
X63869692Y-108380030D01*
X63874760Y-108381061D01*
X63874763Y-108381062D01*
X63979604Y-108402392D01*
X64088597Y-108424567D01*
X64093772Y-108424757D01*
X64093774Y-108424757D01*
X64306673Y-108432564D01*
X64306677Y-108432564D01*
X64311837Y-108432753D01*
X64316957Y-108432097D01*
X64316959Y-108432097D01*
X64528288Y-108405025D01*
X64528289Y-108405025D01*
X64533416Y-108404368D01*
X64538366Y-108402883D01*
X64742429Y-108341661D01*
X64742434Y-108341659D01*
X64747384Y-108340174D01*
X64947994Y-108241896D01*
X65129860Y-108112173D01*
X65288096Y-107954489D01*
X65418453Y-107773077D01*
X65419776Y-107774028D01*
X65466645Y-107730857D01*
X65536580Y-107718625D01*
X65602026Y-107746144D01*
X65629875Y-107777994D01*
X65689987Y-107876088D01*
X65836250Y-108044938D01*
X66008126Y-108187632D01*
X66201000Y-108300338D01*
X66409692Y-108380030D01*
X66414760Y-108381061D01*
X66414763Y-108381062D01*
X66519604Y-108402392D01*
X66628597Y-108424567D01*
X66633772Y-108424757D01*
X66633774Y-108424757D01*
X66846673Y-108432564D01*
X66846677Y-108432564D01*
X66851837Y-108432753D01*
X66856957Y-108432097D01*
X66856959Y-108432097D01*
X67068288Y-108405025D01*
X67068289Y-108405025D01*
X67073416Y-108404368D01*
X67078366Y-108402883D01*
X67282429Y-108341661D01*
X67282434Y-108341659D01*
X67287384Y-108340174D01*
X67487994Y-108241896D01*
X67552544Y-108195853D01*
X68569977Y-108195853D01*
X68575258Y-108202907D01*
X68736756Y-108297279D01*
X68746042Y-108301729D01*
X68945001Y-108377703D01*
X68954899Y-108380579D01*
X69163595Y-108423038D01*
X69173823Y-108424257D01*
X69386650Y-108432062D01*
X69396936Y-108431595D01*
X69608185Y-108404534D01*
X69618262Y-108402392D01*
X69822255Y-108341191D01*
X69831842Y-108337433D01*
X70023098Y-108243738D01*
X70031944Y-108238465D01*
X70079247Y-108204723D01*
X70087648Y-108194023D01*
X70080660Y-108180870D01*
X69342812Y-107443022D01*
X69328868Y-107435408D01*
X69327035Y-107435539D01*
X69320420Y-107439790D01*
X68576737Y-108183473D01*
X68569977Y-108195853D01*
X67552544Y-108195853D01*
X67669860Y-108112173D01*
X67828096Y-107954489D01*
X67958453Y-107773077D01*
X67959640Y-107773930D01*
X68006960Y-107730362D01*
X68076897Y-107718145D01*
X68142338Y-107745678D01*
X68170166Y-107777512D01*
X68196459Y-107820419D01*
X68206916Y-107829880D01*
X68215694Y-107826096D01*
X68957978Y-107083812D01*
X68964356Y-107072132D01*
X69694408Y-107072132D01*
X69694539Y-107073965D01*
X69698790Y-107080580D01*
X70440474Y-107822264D01*
X70452484Y-107828823D01*
X70464223Y-107819855D01*
X70495004Y-107777019D01*
X70500315Y-107768180D01*
X70594670Y-107577267D01*
X70598469Y-107567672D01*
X70660376Y-107363915D01*
X70662555Y-107353834D01*
X70690590Y-107140887D01*
X70691109Y-107134212D01*
X70692572Y-107074364D01*
X70692378Y-107067646D01*
X70674781Y-106853604D01*
X70673096Y-106843424D01*
X70621214Y-106636875D01*
X70617894Y-106627124D01*
X70532972Y-106431814D01*
X70528105Y-106422739D01*
X70463063Y-106322197D01*
X70452377Y-106312995D01*
X70442812Y-106317398D01*
X69702022Y-107058188D01*
X69694408Y-107072132D01*
X68964356Y-107072132D01*
X68965592Y-107069868D01*
X68965461Y-107068035D01*
X68961210Y-107061420D01*
X68219849Y-106320059D01*
X68208313Y-106313759D01*
X68196031Y-106323382D01*
X68163499Y-106371072D01*
X68108587Y-106416075D01*
X68038063Y-106424246D01*
X67974316Y-106392992D01*
X67953618Y-106368508D01*
X67872822Y-106243617D01*
X67872820Y-106243614D01*
X67870014Y-106239277D01*
X67719670Y-106074051D01*
X67715619Y-106070852D01*
X67715615Y-106070848D01*
X67548414Y-105938800D01*
X67548410Y-105938798D01*
X67544359Y-105935598D01*
X67503053Y-105912796D01*
X67453084Y-105862364D01*
X67438312Y-105792921D01*
X67463428Y-105726516D01*
X67490780Y-105699909D01*
X67557974Y-105651980D01*
X67669860Y-105572173D01*
X67828096Y-105414489D01*
X67958453Y-105233077D01*
X67959776Y-105234028D01*
X68006645Y-105190857D01*
X68076580Y-105178625D01*
X68142026Y-105206144D01*
X68169875Y-105237994D01*
X68229987Y-105336088D01*
X68376250Y-105504938D01*
X68548126Y-105647632D01*
X68555567Y-105651980D01*
X68621955Y-105690774D01*
X68670679Y-105742412D01*
X68683750Y-105812195D01*
X68657019Y-105877967D01*
X68616562Y-105911327D01*
X68608460Y-105915544D01*
X68599734Y-105921039D01*
X68579677Y-105936099D01*
X68571223Y-105947427D01*
X68577968Y-105959758D01*
X69317188Y-106698978D01*
X69331132Y-106706592D01*
X69332965Y-106706461D01*
X69339580Y-106702210D01*
X70083389Y-105958401D01*
X70090410Y-105945544D01*
X70083611Y-105936213D01*
X70079559Y-105933521D01*
X70042602Y-105913120D01*
X70038178Y-105908655D01*
X72439858Y-105908655D01*
X72475104Y-106167638D01*
X72476412Y-106172124D01*
X72476412Y-106172126D01*
X72489609Y-106217403D01*
X72548243Y-106418567D01*
X72657668Y-106655928D01*
X72660231Y-106659837D01*
X72798410Y-106870596D01*
X72798414Y-106870601D01*
X72800976Y-106874509D01*
X72975018Y-107069506D01*
X73175970Y-107236637D01*
X73179973Y-107239066D01*
X73395422Y-107369804D01*
X73395426Y-107369806D01*
X73399419Y-107372229D01*
X73640455Y-107473303D01*
X73893783Y-107537641D01*
X73898434Y-107538109D01*
X73898438Y-107538110D01*
X74091308Y-107557531D01*
X74110867Y-107559500D01*
X74266354Y-107559500D01*
X74268679Y-107559327D01*
X74268685Y-107559327D01*
X74456000Y-107545407D01*
X74456004Y-107545406D01*
X74460652Y-107545061D01*
X74465200Y-107544032D01*
X74465206Y-107544031D01*
X74651601Y-107501853D01*
X74715577Y-107487377D01*
X74751769Y-107473303D01*
X74954824Y-107394340D01*
X74954827Y-107394339D01*
X74959177Y-107392647D01*
X75186098Y-107262951D01*
X75391357Y-107101138D01*
X75570443Y-106910763D01*
X75676116Y-106758437D01*
X75716759Y-106699851D01*
X75716761Y-106699848D01*
X75719424Y-106696009D01*
X75751137Y-106631702D01*
X75832960Y-106465781D01*
X75832961Y-106465778D01*
X75835025Y-106461593D01*
X75846150Y-106426840D01*
X75913280Y-106217123D01*
X75914707Y-106212665D01*
X75956721Y-105954693D01*
X75959360Y-105753069D01*
X75960081Y-105698022D01*
X75960081Y-105698019D01*
X75960142Y-105693345D01*
X75924896Y-105434362D01*
X75910473Y-105384877D01*
X75881680Y-105286096D01*
X75851757Y-105183433D01*
X75849541Y-105178625D01*
X75744289Y-104950318D01*
X75742332Y-104946072D01*
X75655702Y-104813939D01*
X75601590Y-104731404D01*
X75601586Y-104731399D01*
X75599024Y-104727491D01*
X75424982Y-104532494D01*
X75224030Y-104365363D01*
X75138599Y-104313522D01*
X75004578Y-104232196D01*
X75004574Y-104232194D01*
X75000581Y-104229771D01*
X74759545Y-104128697D01*
X74506217Y-104064359D01*
X74501566Y-104063891D01*
X74501562Y-104063890D01*
X74292271Y-104042816D01*
X74289133Y-104042500D01*
X74133646Y-104042500D01*
X74131321Y-104042673D01*
X74131315Y-104042673D01*
X73944000Y-104056593D01*
X73943996Y-104056594D01*
X73939348Y-104056939D01*
X73934800Y-104057968D01*
X73934794Y-104057969D01*
X73763542Y-104096720D01*
X73684423Y-104114623D01*
X73680071Y-104116315D01*
X73680069Y-104116316D01*
X73445176Y-104207660D01*
X73445173Y-104207661D01*
X73440823Y-104209353D01*
X73213902Y-104339049D01*
X73008643Y-104500862D01*
X72829557Y-104691237D01*
X72744435Y-104813939D01*
X72687918Y-104895408D01*
X72680576Y-104905991D01*
X72564975Y-105140407D01*
X72563553Y-105144850D01*
X72563552Y-105144852D01*
X72535007Y-105234028D01*
X72485293Y-105389335D01*
X72443279Y-105647307D01*
X72442246Y-105726248D01*
X72440106Y-105889747D01*
X72439858Y-105908655D01*
X70038178Y-105908655D01*
X69992631Y-105862687D01*
X69977859Y-105793245D01*
X70002975Y-105726839D01*
X70030327Y-105700232D01*
X70097974Y-105651980D01*
X70209860Y-105572173D01*
X70368096Y-105414489D01*
X70498453Y-105233077D01*
X70511995Y-105205678D01*
X70595136Y-105037453D01*
X70595137Y-105037451D01*
X70597430Y-105032811D01*
X70662370Y-104819069D01*
X70691529Y-104597590D01*
X70693156Y-104531000D01*
X70674852Y-104308361D01*
X70620431Y-104091702D01*
X70531354Y-103886840D01*
X70410014Y-103699277D01*
X70259670Y-103534051D01*
X70255619Y-103530852D01*
X70255615Y-103530848D01*
X70088414Y-103398800D01*
X70088410Y-103398798D01*
X70084359Y-103395598D01*
X69888789Y-103287638D01*
X69883920Y-103285914D01*
X69883916Y-103285912D01*
X69683087Y-103214795D01*
X69683083Y-103214794D01*
X69678212Y-103213069D01*
X69673119Y-103212162D01*
X69673116Y-103212161D01*
X69463373Y-103174800D01*
X69463367Y-103174799D01*
X69458284Y-103173894D01*
X69384452Y-103172992D01*
X69240081Y-103171228D01*
X69240079Y-103171228D01*
X69234911Y-103171165D01*
X69014091Y-103204955D01*
X68801756Y-103274357D01*
X68767013Y-103292443D01*
X68659677Y-103348319D01*
X68603607Y-103377507D01*
X68599474Y-103380610D01*
X68599471Y-103380612D01*
X68429100Y-103508530D01*
X68424965Y-103511635D01*
X68270629Y-103673138D01*
X68163201Y-103830621D01*
X68108293Y-103875621D01*
X68037768Y-103883792D01*
X67974021Y-103852538D01*
X67953324Y-103828054D01*
X67872822Y-103703617D01*
X67872820Y-103703614D01*
X67870014Y-103699277D01*
X67719670Y-103534051D01*
X67715619Y-103530852D01*
X67715615Y-103530848D01*
X67548414Y-103398800D01*
X67548410Y-103398798D01*
X67544359Y-103395598D01*
X67348789Y-103287638D01*
X67343920Y-103285914D01*
X67343916Y-103285912D01*
X67143087Y-103214795D01*
X67143083Y-103214794D01*
X67138212Y-103213069D01*
X67133119Y-103212162D01*
X67133116Y-103212161D01*
X66923373Y-103174800D01*
X66923367Y-103174799D01*
X66918284Y-103173894D01*
X66844452Y-103172992D01*
X66700081Y-103171228D01*
X66700079Y-103171228D01*
X66694911Y-103171165D01*
X66474091Y-103204955D01*
X66261756Y-103274357D01*
X66227013Y-103292443D01*
X66119677Y-103348319D01*
X66063607Y-103377507D01*
X66059474Y-103380610D01*
X66059471Y-103380612D01*
X65889100Y-103508530D01*
X65884965Y-103511635D01*
X65730629Y-103673138D01*
X65623201Y-103830621D01*
X65568293Y-103875621D01*
X65497768Y-103883792D01*
X65434021Y-103852538D01*
X65413324Y-103828054D01*
X65332822Y-103703617D01*
X65332820Y-103703614D01*
X65330014Y-103699277D01*
X65179670Y-103534051D01*
X65175619Y-103530852D01*
X65175615Y-103530848D01*
X65008414Y-103398800D01*
X65008410Y-103398798D01*
X65004359Y-103395598D01*
X64808789Y-103287638D01*
X64803920Y-103285914D01*
X64803916Y-103285912D01*
X64603087Y-103214795D01*
X64603083Y-103214794D01*
X64598212Y-103213069D01*
X64593119Y-103212162D01*
X64593116Y-103212161D01*
X64383373Y-103174800D01*
X64383367Y-103174799D01*
X64378284Y-103173894D01*
X64304452Y-103172992D01*
X64160081Y-103171228D01*
X64160079Y-103171228D01*
X64154911Y-103171165D01*
X63934091Y-103204955D01*
X63721756Y-103274357D01*
X63687013Y-103292443D01*
X63579677Y-103348319D01*
X63523607Y-103377507D01*
X63519474Y-103380610D01*
X63519471Y-103380612D01*
X63349100Y-103508530D01*
X63344965Y-103511635D01*
X63190629Y-103673138D01*
X63083204Y-103830618D01*
X63082898Y-103831066D01*
X63027987Y-103876069D01*
X62957462Y-103884240D01*
X62893715Y-103852986D01*
X62873017Y-103828501D01*
X62843062Y-103782197D01*
X62832377Y-103772995D01*
X62822812Y-103777398D01*
X62082022Y-104518188D01*
X62074408Y-104532132D01*
X62074539Y-104533965D01*
X62078790Y-104540580D01*
X62820474Y-105282264D01*
X62832484Y-105288823D01*
X62844223Y-105279855D01*
X62878022Y-105232819D01*
X62879277Y-105233721D01*
X62926391Y-105190355D01*
X62996330Y-105178148D01*
X63061767Y-105205691D01*
X63089580Y-105237513D01*
X63147287Y-105331683D01*
X63147291Y-105331688D01*
X63149987Y-105336088D01*
X63296250Y-105504938D01*
X63468126Y-105647632D01*
X63475567Y-105651980D01*
X63541445Y-105690476D01*
X63590169Y-105742114D01*
X63603240Y-105811897D01*
X63576509Y-105877669D01*
X63536055Y-105911027D01*
X63523607Y-105917507D01*
X63519474Y-105920610D01*
X63519471Y-105920612D01*
X63365998Y-106035843D01*
X63344965Y-106051635D01*
X63341393Y-106055373D01*
X63200349Y-106202967D01*
X63190629Y-106213138D01*
X63083201Y-106370621D01*
X63028293Y-106415621D01*
X62957768Y-106423792D01*
X62894021Y-106392538D01*
X62873324Y-106368054D01*
X62792822Y-106243617D01*
X62792820Y-106243614D01*
X62790014Y-106239277D01*
X62639670Y-106074051D01*
X62635619Y-106070852D01*
X62635615Y-106070848D01*
X62468414Y-105938800D01*
X62468410Y-105938798D01*
X62464359Y-105935598D01*
X62422569Y-105912529D01*
X62372598Y-105862097D01*
X62357826Y-105792654D01*
X62382942Y-105726248D01*
X62410293Y-105699642D01*
X62459247Y-105664723D01*
X62467648Y-105654023D01*
X62460660Y-105640870D01*
X61722812Y-104903022D01*
X61708868Y-104895408D01*
X61707035Y-104895539D01*
X61700420Y-104899790D01*
X60956737Y-105643473D01*
X60949977Y-105655853D01*
X60955258Y-105662907D01*
X61001969Y-105690203D01*
X61050693Y-105741841D01*
X61063764Y-105811624D01*
X61037033Y-105877396D01*
X60996584Y-105910752D01*
X60983607Y-105917507D01*
X60979474Y-105920610D01*
X60979471Y-105920612D01*
X60825998Y-106035843D01*
X60804965Y-106051635D01*
X60801393Y-106055373D01*
X60660349Y-106202967D01*
X60650629Y-106213138D01*
X60543201Y-106370621D01*
X60488293Y-106415621D01*
X60417768Y-106423792D01*
X60354021Y-106392538D01*
X60333324Y-106368054D01*
X60252822Y-106243617D01*
X60252820Y-106243614D01*
X60250014Y-106239277D01*
X60099670Y-106074051D01*
X60095619Y-106070852D01*
X60095615Y-106070848D01*
X59928414Y-105938800D01*
X59928410Y-105938798D01*
X59924359Y-105935598D01*
X59883053Y-105912796D01*
X59833084Y-105862364D01*
X59818312Y-105792921D01*
X59843428Y-105726516D01*
X59870780Y-105699909D01*
X59937974Y-105651980D01*
X60049860Y-105572173D01*
X60208096Y-105414489D01*
X60338453Y-105233077D01*
X60339640Y-105233930D01*
X60386960Y-105190362D01*
X60456897Y-105178145D01*
X60522338Y-105205678D01*
X60550166Y-105237512D01*
X60576459Y-105280419D01*
X60586916Y-105289880D01*
X60595694Y-105286096D01*
X61337978Y-104543812D01*
X61345592Y-104529868D01*
X61345461Y-104528035D01*
X61341210Y-104521420D01*
X60599849Y-103780059D01*
X60588313Y-103773759D01*
X60576031Y-103783382D01*
X60543499Y-103831072D01*
X60488587Y-103876075D01*
X60418063Y-103884246D01*
X60354316Y-103852992D01*
X60333618Y-103828508D01*
X60252822Y-103703617D01*
X60252820Y-103703614D01*
X60250014Y-103699277D01*
X60099670Y-103534051D01*
X60095619Y-103530852D01*
X60095615Y-103530848D01*
X59939338Y-103407427D01*
X60951223Y-103407427D01*
X60957968Y-103419758D01*
X61697188Y-104158978D01*
X61711132Y-104166592D01*
X61712965Y-104166461D01*
X61719580Y-104162210D01*
X62463389Y-103418401D01*
X62470410Y-103405544D01*
X62463611Y-103396213D01*
X62459554Y-103393518D01*
X62273117Y-103290599D01*
X62263705Y-103286369D01*
X62062959Y-103215280D01*
X62052989Y-103212646D01*
X61843327Y-103175301D01*
X61833073Y-103174331D01*
X61620116Y-103171728D01*
X61609832Y-103172448D01*
X61399321Y-103204661D01*
X61389293Y-103207050D01*
X61186868Y-103273212D01*
X61177359Y-103277209D01*
X60988466Y-103375540D01*
X60979734Y-103381039D01*
X60959677Y-103396099D01*
X60951223Y-103407427D01*
X59939338Y-103407427D01*
X59928414Y-103398800D01*
X59928410Y-103398798D01*
X59924359Y-103395598D01*
X59728789Y-103287638D01*
X59723920Y-103285914D01*
X59723916Y-103285912D01*
X59523087Y-103214795D01*
X59523083Y-103214794D01*
X59518212Y-103213069D01*
X59513119Y-103212162D01*
X59513116Y-103212161D01*
X59303373Y-103174800D01*
X59303367Y-103174799D01*
X59298284Y-103173894D01*
X59224452Y-103172992D01*
X59080081Y-103171228D01*
X59080079Y-103171228D01*
X59074911Y-103171165D01*
X58854091Y-103204955D01*
X58641756Y-103274357D01*
X58607013Y-103292443D01*
X58499677Y-103348319D01*
X58443607Y-103377507D01*
X58439474Y-103380610D01*
X58439471Y-103380612D01*
X58269100Y-103508530D01*
X58264965Y-103511635D01*
X58110629Y-103673138D01*
X58003204Y-103830618D01*
X58002898Y-103831066D01*
X57947987Y-103876069D01*
X57877462Y-103884240D01*
X57813715Y-103852986D01*
X57793017Y-103828501D01*
X57763062Y-103782197D01*
X57752377Y-103772995D01*
X57742812Y-103777398D01*
X57002022Y-104518188D01*
X56994408Y-104532132D01*
X56994539Y-104533965D01*
X56998790Y-104540580D01*
X57740474Y-105282264D01*
X57752484Y-105288823D01*
X57764223Y-105279855D01*
X57798022Y-105232819D01*
X57799277Y-105233721D01*
X57846391Y-105190355D01*
X57916330Y-105178148D01*
X57981767Y-105205691D01*
X58009580Y-105237513D01*
X58067287Y-105331683D01*
X58067291Y-105331688D01*
X58069987Y-105336088D01*
X58216250Y-105504938D01*
X58388126Y-105647632D01*
X58395567Y-105651980D01*
X58461445Y-105690476D01*
X58510169Y-105742114D01*
X58523240Y-105811897D01*
X58496509Y-105877669D01*
X58456055Y-105911027D01*
X58443607Y-105917507D01*
X58439474Y-105920610D01*
X58439471Y-105920612D01*
X58285998Y-106035843D01*
X58264965Y-106051635D01*
X58261393Y-106055373D01*
X58120349Y-106202967D01*
X58110629Y-106213138D01*
X58003201Y-106370621D01*
X57948293Y-106415621D01*
X57877768Y-106423792D01*
X57814021Y-106392538D01*
X57793324Y-106368054D01*
X57712822Y-106243617D01*
X57712820Y-106243614D01*
X57710014Y-106239277D01*
X57559670Y-106074051D01*
X57555619Y-106070852D01*
X57555615Y-106070848D01*
X57388414Y-105938800D01*
X57388410Y-105938798D01*
X57384359Y-105935598D01*
X57342569Y-105912529D01*
X57292598Y-105862097D01*
X57277826Y-105792654D01*
X57302942Y-105726248D01*
X57330293Y-105699642D01*
X57379247Y-105664723D01*
X57387648Y-105654023D01*
X57380660Y-105640870D01*
X56642812Y-104903022D01*
X56628868Y-104895408D01*
X56627035Y-104895539D01*
X56620420Y-104899790D01*
X55876737Y-105643473D01*
X55869977Y-105655853D01*
X55875258Y-105662907D01*
X55921969Y-105690203D01*
X55970693Y-105741841D01*
X55983764Y-105811624D01*
X55957033Y-105877396D01*
X55916584Y-105910752D01*
X55903607Y-105917507D01*
X55899474Y-105920610D01*
X55899471Y-105920612D01*
X55745998Y-106035843D01*
X55724965Y-106051635D01*
X55721393Y-106055373D01*
X55580349Y-106202967D01*
X55570629Y-106213138D01*
X55463201Y-106370621D01*
X55408293Y-106415621D01*
X55337768Y-106423792D01*
X55274021Y-106392538D01*
X55253324Y-106368054D01*
X55172822Y-106243617D01*
X55172820Y-106243614D01*
X55170014Y-106239277D01*
X55019670Y-106074051D01*
X55015619Y-106070852D01*
X55015615Y-106070848D01*
X54848414Y-105938800D01*
X54848410Y-105938798D01*
X54844359Y-105935598D01*
X54803053Y-105912796D01*
X54753084Y-105862364D01*
X54738312Y-105792921D01*
X54763428Y-105726516D01*
X54790780Y-105699909D01*
X54857974Y-105651980D01*
X54969860Y-105572173D01*
X55128096Y-105414489D01*
X55258453Y-105233077D01*
X55259640Y-105233930D01*
X55306960Y-105190362D01*
X55376897Y-105178145D01*
X55442338Y-105205678D01*
X55470166Y-105237512D01*
X55496459Y-105280419D01*
X55506916Y-105289880D01*
X55515694Y-105286096D01*
X56257978Y-104543812D01*
X56265592Y-104529868D01*
X56265461Y-104528035D01*
X56261210Y-104521420D01*
X55519849Y-103780059D01*
X55508313Y-103773759D01*
X55496031Y-103783382D01*
X55463499Y-103831072D01*
X55408587Y-103876075D01*
X55338063Y-103884246D01*
X55274316Y-103852992D01*
X55253618Y-103828508D01*
X55172822Y-103703617D01*
X55172820Y-103703614D01*
X55170014Y-103699277D01*
X55019670Y-103534051D01*
X55015619Y-103530852D01*
X55015615Y-103530848D01*
X54859338Y-103407427D01*
X55871223Y-103407427D01*
X55877968Y-103419758D01*
X56617188Y-104158978D01*
X56631132Y-104166592D01*
X56632965Y-104166461D01*
X56639580Y-104162210D01*
X57383389Y-103418401D01*
X57390410Y-103405544D01*
X57383611Y-103396213D01*
X57379554Y-103393518D01*
X57193117Y-103290599D01*
X57183705Y-103286369D01*
X56982959Y-103215280D01*
X56972989Y-103212646D01*
X56763327Y-103175301D01*
X56753073Y-103174331D01*
X56540116Y-103171728D01*
X56529832Y-103172448D01*
X56319321Y-103204661D01*
X56309293Y-103207050D01*
X56106868Y-103273212D01*
X56097359Y-103277209D01*
X55908466Y-103375540D01*
X55899734Y-103381039D01*
X55879677Y-103396099D01*
X55871223Y-103407427D01*
X54859338Y-103407427D01*
X54848414Y-103398800D01*
X54848410Y-103398798D01*
X54844359Y-103395598D01*
X54648789Y-103287638D01*
X54643920Y-103285914D01*
X54643916Y-103285912D01*
X54443087Y-103214795D01*
X54443083Y-103214794D01*
X54438212Y-103213069D01*
X54433119Y-103212162D01*
X54433116Y-103212161D01*
X54223373Y-103174800D01*
X54223367Y-103174799D01*
X54218284Y-103173894D01*
X54144452Y-103172992D01*
X54000081Y-103171228D01*
X54000079Y-103171228D01*
X53994911Y-103171165D01*
X53774091Y-103204955D01*
X53561756Y-103274357D01*
X53527013Y-103292443D01*
X53419677Y-103348319D01*
X53363607Y-103377507D01*
X53359474Y-103380610D01*
X53359471Y-103380612D01*
X53189100Y-103508530D01*
X53184965Y-103511635D01*
X53030629Y-103673138D01*
X52923201Y-103830621D01*
X52868293Y-103875621D01*
X52797768Y-103883792D01*
X52734021Y-103852538D01*
X52713324Y-103828054D01*
X52632822Y-103703617D01*
X52632820Y-103703614D01*
X52630014Y-103699277D01*
X52479670Y-103534051D01*
X52475619Y-103530852D01*
X52475615Y-103530848D01*
X52308414Y-103398800D01*
X52308410Y-103398798D01*
X52304359Y-103395598D01*
X52108789Y-103287638D01*
X52103920Y-103285914D01*
X52103916Y-103285912D01*
X51903087Y-103214795D01*
X51903083Y-103214794D01*
X51898212Y-103213069D01*
X51893119Y-103212162D01*
X51893116Y-103212161D01*
X51683373Y-103174800D01*
X51683367Y-103174799D01*
X51678284Y-103173894D01*
X51604452Y-103172992D01*
X51460081Y-103171228D01*
X51460079Y-103171228D01*
X51454911Y-103171165D01*
X51234091Y-103204955D01*
X51021756Y-103274357D01*
X50987013Y-103292443D01*
X50879677Y-103348319D01*
X50823607Y-103377507D01*
X50819474Y-103380610D01*
X50819471Y-103380612D01*
X50649100Y-103508530D01*
X50644965Y-103511635D01*
X50490629Y-103673138D01*
X50383201Y-103830621D01*
X50328293Y-103875621D01*
X50257768Y-103883792D01*
X50194021Y-103852538D01*
X50173324Y-103828054D01*
X50092822Y-103703617D01*
X50092820Y-103703614D01*
X50090014Y-103699277D01*
X49939670Y-103534051D01*
X49935619Y-103530852D01*
X49935615Y-103530848D01*
X49768414Y-103398800D01*
X49768410Y-103398798D01*
X49764359Y-103395598D01*
X49568789Y-103287638D01*
X49563920Y-103285914D01*
X49563916Y-103285912D01*
X49363087Y-103214795D01*
X49363083Y-103214794D01*
X49358212Y-103213069D01*
X49353119Y-103212162D01*
X49353116Y-103212161D01*
X49143373Y-103174800D01*
X49143367Y-103174799D01*
X49138284Y-103173894D01*
X49064452Y-103172992D01*
X48920081Y-103171228D01*
X48920079Y-103171228D01*
X48914911Y-103171165D01*
X48694091Y-103204955D01*
X48481756Y-103274357D01*
X48447013Y-103292443D01*
X48339677Y-103348319D01*
X48283607Y-103377507D01*
X48279474Y-103380610D01*
X48279471Y-103380612D01*
X48109100Y-103508530D01*
X48104965Y-103511635D01*
X47950629Y-103673138D01*
X47843201Y-103830621D01*
X47788293Y-103875621D01*
X47717768Y-103883792D01*
X47654021Y-103852538D01*
X47633324Y-103828054D01*
X47552822Y-103703617D01*
X47552820Y-103703614D01*
X47550014Y-103699277D01*
X47399670Y-103534051D01*
X47395619Y-103530852D01*
X47395615Y-103530848D01*
X47228414Y-103398800D01*
X47228410Y-103398798D01*
X47224359Y-103395598D01*
X47028789Y-103287638D01*
X47023920Y-103285914D01*
X47023916Y-103285912D01*
X46823087Y-103214795D01*
X46823083Y-103214794D01*
X46818212Y-103213069D01*
X46813119Y-103212162D01*
X46813116Y-103212161D01*
X46603373Y-103174800D01*
X46603367Y-103174799D01*
X46598284Y-103173894D01*
X46524452Y-103172992D01*
X46380081Y-103171228D01*
X46380079Y-103171228D01*
X46374911Y-103171165D01*
X46154091Y-103204955D01*
X45941756Y-103274357D01*
X45907013Y-103292443D01*
X45799677Y-103348319D01*
X45743607Y-103377507D01*
X45739474Y-103380610D01*
X45739471Y-103380612D01*
X45569100Y-103508530D01*
X45564965Y-103511635D01*
X45410629Y-103673138D01*
X45303204Y-103830618D01*
X45302898Y-103831066D01*
X45247987Y-103876069D01*
X45177462Y-103884240D01*
X45113715Y-103852986D01*
X45093017Y-103828501D01*
X45063062Y-103782197D01*
X45052377Y-103772995D01*
X45042812Y-103777398D01*
X44302022Y-104518188D01*
X44294408Y-104532132D01*
X44294539Y-104533965D01*
X44298790Y-104540580D01*
X45040474Y-105282264D01*
X45052484Y-105288823D01*
X45064223Y-105279855D01*
X45098022Y-105232819D01*
X45099277Y-105233721D01*
X45146391Y-105190355D01*
X45216330Y-105178148D01*
X45281767Y-105205691D01*
X45309580Y-105237513D01*
X45367287Y-105331683D01*
X45367291Y-105331688D01*
X45369987Y-105336088D01*
X45516250Y-105504938D01*
X45688126Y-105647632D01*
X45695567Y-105651980D01*
X45761445Y-105690476D01*
X45810169Y-105742114D01*
X45823240Y-105811897D01*
X45796509Y-105877669D01*
X45756055Y-105911027D01*
X45743607Y-105917507D01*
X45739474Y-105920610D01*
X45739471Y-105920612D01*
X45585998Y-106035843D01*
X45564965Y-106051635D01*
X45561393Y-106055373D01*
X45420349Y-106202967D01*
X45410629Y-106213138D01*
X45303201Y-106370621D01*
X45248293Y-106415621D01*
X45177768Y-106423792D01*
X45114021Y-106392538D01*
X45093324Y-106368054D01*
X45012822Y-106243617D01*
X45012820Y-106243614D01*
X45010014Y-106239277D01*
X44859670Y-106074051D01*
X44855619Y-106070852D01*
X44855615Y-106070848D01*
X44688414Y-105938800D01*
X44688410Y-105938798D01*
X44684359Y-105935598D01*
X44642569Y-105912529D01*
X44592598Y-105862097D01*
X44577826Y-105792654D01*
X44602942Y-105726248D01*
X44630293Y-105699642D01*
X44679247Y-105664723D01*
X44687648Y-105654023D01*
X44680660Y-105640870D01*
X43942812Y-104903022D01*
X43928868Y-104895408D01*
X43927035Y-104895539D01*
X43920420Y-104899790D01*
X43176737Y-105643473D01*
X43169977Y-105655853D01*
X43175258Y-105662907D01*
X43221969Y-105690203D01*
X43270693Y-105741841D01*
X43283764Y-105811624D01*
X43257033Y-105877396D01*
X43216584Y-105910752D01*
X43203607Y-105917507D01*
X43199474Y-105920610D01*
X43199471Y-105920612D01*
X43045998Y-106035843D01*
X43024965Y-106051635D01*
X43021393Y-106055373D01*
X42880349Y-106202967D01*
X42870629Y-106213138D01*
X42763201Y-106370621D01*
X42708293Y-106415621D01*
X42637768Y-106423792D01*
X42574021Y-106392538D01*
X42553324Y-106368054D01*
X42472822Y-106243617D01*
X42472820Y-106243614D01*
X42470014Y-106239277D01*
X42319670Y-106074051D01*
X42315619Y-106070852D01*
X42315615Y-106070848D01*
X42148414Y-105938800D01*
X42148410Y-105938798D01*
X42144359Y-105935598D01*
X42103053Y-105912796D01*
X42053084Y-105862364D01*
X42038312Y-105792921D01*
X42063428Y-105726516D01*
X42090780Y-105699909D01*
X42157974Y-105651980D01*
X42269860Y-105572173D01*
X42428096Y-105414489D01*
X42558453Y-105233077D01*
X42559640Y-105233930D01*
X42606960Y-105190362D01*
X42676897Y-105178145D01*
X42742338Y-105205678D01*
X42770166Y-105237512D01*
X42796459Y-105280419D01*
X42806916Y-105289880D01*
X42815694Y-105286096D01*
X43557978Y-104543812D01*
X43565592Y-104529868D01*
X43565461Y-104528035D01*
X43561210Y-104521420D01*
X42819849Y-103780059D01*
X42808313Y-103773759D01*
X42796031Y-103783382D01*
X42763499Y-103831072D01*
X42708587Y-103876075D01*
X42638063Y-103884246D01*
X42574316Y-103852992D01*
X42553618Y-103828508D01*
X42472822Y-103703617D01*
X42472820Y-103703614D01*
X42470014Y-103699277D01*
X42319670Y-103534051D01*
X42315619Y-103530852D01*
X42315615Y-103530848D01*
X42159338Y-103407427D01*
X43171223Y-103407427D01*
X43177968Y-103419758D01*
X43917188Y-104158978D01*
X43931132Y-104166592D01*
X43932965Y-104166461D01*
X43939580Y-104162210D01*
X44683389Y-103418401D01*
X44690410Y-103405544D01*
X44683611Y-103396213D01*
X44679554Y-103393518D01*
X44493117Y-103290599D01*
X44483705Y-103286369D01*
X44282959Y-103215280D01*
X44272989Y-103212646D01*
X44063327Y-103175301D01*
X44053073Y-103174331D01*
X43840116Y-103171728D01*
X43829832Y-103172448D01*
X43619321Y-103204661D01*
X43609293Y-103207050D01*
X43406868Y-103273212D01*
X43397359Y-103277209D01*
X43208466Y-103375540D01*
X43199734Y-103381039D01*
X43179677Y-103396099D01*
X43171223Y-103407427D01*
X42159338Y-103407427D01*
X42148414Y-103398800D01*
X42148410Y-103398798D01*
X42144359Y-103395598D01*
X41948789Y-103287638D01*
X41943920Y-103285914D01*
X41943916Y-103285912D01*
X41743087Y-103214795D01*
X41743083Y-103214794D01*
X41738212Y-103213069D01*
X41733119Y-103212162D01*
X41733116Y-103212161D01*
X41523373Y-103174800D01*
X41523367Y-103174799D01*
X41518284Y-103173894D01*
X41444452Y-103172992D01*
X41300081Y-103171228D01*
X41300079Y-103171228D01*
X41294911Y-103171165D01*
X41074091Y-103204955D01*
X40861756Y-103274357D01*
X40827013Y-103292443D01*
X40719677Y-103348319D01*
X40663607Y-103377507D01*
X40659474Y-103380610D01*
X40659471Y-103380612D01*
X40489100Y-103508530D01*
X40484965Y-103511635D01*
X40330629Y-103673138D01*
X40223201Y-103830621D01*
X40168293Y-103875621D01*
X40097768Y-103883792D01*
X40034021Y-103852538D01*
X40013324Y-103828054D01*
X39932822Y-103703617D01*
X39932820Y-103703614D01*
X39930014Y-103699277D01*
X39779670Y-103534051D01*
X39775619Y-103530852D01*
X39775615Y-103530848D01*
X39608414Y-103398800D01*
X39608410Y-103398798D01*
X39604359Y-103395598D01*
X39408789Y-103287638D01*
X39403920Y-103285914D01*
X39403916Y-103285912D01*
X39203087Y-103214795D01*
X39203083Y-103214794D01*
X39198212Y-103213069D01*
X39193119Y-103212162D01*
X39193116Y-103212161D01*
X38983373Y-103174800D01*
X38983367Y-103174799D01*
X38978284Y-103173894D01*
X38904452Y-103172992D01*
X38760081Y-103171228D01*
X38760079Y-103171228D01*
X38754911Y-103171165D01*
X38534091Y-103204955D01*
X38321756Y-103274357D01*
X38287013Y-103292443D01*
X38179677Y-103348319D01*
X38123607Y-103377507D01*
X38119474Y-103380610D01*
X38119471Y-103380612D01*
X37949100Y-103508530D01*
X37944965Y-103511635D01*
X37790629Y-103673138D01*
X37683204Y-103830618D01*
X37682898Y-103831066D01*
X37627987Y-103876069D01*
X37557462Y-103884240D01*
X37493715Y-103852986D01*
X37473017Y-103828501D01*
X37443062Y-103782197D01*
X37432377Y-103772995D01*
X37422812Y-103777398D01*
X36682022Y-104518188D01*
X36674408Y-104532132D01*
X36674539Y-104533965D01*
X36678790Y-104540580D01*
X37420474Y-105282264D01*
X37432484Y-105288823D01*
X37444223Y-105279855D01*
X37478022Y-105232819D01*
X37479277Y-105233721D01*
X37526391Y-105190355D01*
X37596330Y-105178148D01*
X37661767Y-105205691D01*
X37689580Y-105237513D01*
X37747287Y-105331683D01*
X37747291Y-105331688D01*
X37749987Y-105336088D01*
X37896250Y-105504938D01*
X38068126Y-105647632D01*
X38075567Y-105651980D01*
X38141445Y-105690476D01*
X38190169Y-105742114D01*
X38203240Y-105811897D01*
X38176509Y-105877669D01*
X38136055Y-105911027D01*
X38123607Y-105917507D01*
X38119474Y-105920610D01*
X38119471Y-105920612D01*
X37965998Y-106035843D01*
X37944965Y-106051635D01*
X37941393Y-106055373D01*
X37800349Y-106202967D01*
X37790629Y-106213138D01*
X37683201Y-106370621D01*
X37628293Y-106415621D01*
X37557768Y-106423792D01*
X37494021Y-106392538D01*
X37473324Y-106368054D01*
X37392822Y-106243617D01*
X37392820Y-106243614D01*
X37390014Y-106239277D01*
X37239670Y-106074051D01*
X37235619Y-106070852D01*
X37235615Y-106070848D01*
X37068414Y-105938800D01*
X37068410Y-105938798D01*
X37064359Y-105935598D01*
X37022569Y-105912529D01*
X36972598Y-105862097D01*
X36957826Y-105792654D01*
X36982942Y-105726248D01*
X37010293Y-105699642D01*
X37059247Y-105664723D01*
X37067648Y-105654023D01*
X37060660Y-105640870D01*
X36322812Y-104903022D01*
X36308868Y-104895408D01*
X36307035Y-104895539D01*
X36300420Y-104899790D01*
X35556737Y-105643473D01*
X35549977Y-105655853D01*
X35555258Y-105662907D01*
X35601969Y-105690203D01*
X35650693Y-105741841D01*
X35663764Y-105811624D01*
X35637033Y-105877396D01*
X35596584Y-105910752D01*
X35583607Y-105917507D01*
X35579474Y-105920610D01*
X35579471Y-105920612D01*
X35425998Y-106035843D01*
X35404965Y-106051635D01*
X35401393Y-106055373D01*
X35260349Y-106202967D01*
X35250629Y-106213138D01*
X35143201Y-106370621D01*
X35088293Y-106415621D01*
X35017768Y-106423792D01*
X34954021Y-106392538D01*
X34933324Y-106368054D01*
X34852822Y-106243617D01*
X34852820Y-106243614D01*
X34850014Y-106239277D01*
X34699670Y-106074051D01*
X34695619Y-106070852D01*
X34695615Y-106070848D01*
X34528414Y-105938800D01*
X34528410Y-105938798D01*
X34524359Y-105935598D01*
X34483053Y-105912796D01*
X34433084Y-105862364D01*
X34418312Y-105792921D01*
X34443428Y-105726516D01*
X34470780Y-105699909D01*
X34537974Y-105651980D01*
X34649860Y-105572173D01*
X34808096Y-105414489D01*
X34938453Y-105233077D01*
X34939640Y-105233930D01*
X34986960Y-105190362D01*
X35056897Y-105178145D01*
X35122338Y-105205678D01*
X35150166Y-105237512D01*
X35176459Y-105280419D01*
X35186916Y-105289880D01*
X35195694Y-105286096D01*
X35937978Y-104543812D01*
X35945592Y-104529868D01*
X35945461Y-104528035D01*
X35941210Y-104521420D01*
X35199849Y-103780059D01*
X35188313Y-103773759D01*
X35176031Y-103783382D01*
X35143499Y-103831072D01*
X35088587Y-103876075D01*
X35018063Y-103884246D01*
X34954316Y-103852992D01*
X34933618Y-103828508D01*
X34852822Y-103703617D01*
X34852820Y-103703614D01*
X34850014Y-103699277D01*
X34699670Y-103534051D01*
X34695619Y-103530852D01*
X34695615Y-103530848D01*
X34539338Y-103407427D01*
X35551223Y-103407427D01*
X35557968Y-103419758D01*
X36297188Y-104158978D01*
X36311132Y-104166592D01*
X36312965Y-104166461D01*
X36319580Y-104162210D01*
X37063389Y-103418401D01*
X37070410Y-103405544D01*
X37063611Y-103396213D01*
X37059554Y-103393518D01*
X36873117Y-103290599D01*
X36863705Y-103286369D01*
X36662959Y-103215280D01*
X36652989Y-103212646D01*
X36443327Y-103175301D01*
X36433073Y-103174331D01*
X36220116Y-103171728D01*
X36209832Y-103172448D01*
X35999321Y-103204661D01*
X35989293Y-103207050D01*
X35786868Y-103273212D01*
X35777359Y-103277209D01*
X35588466Y-103375540D01*
X35579734Y-103381039D01*
X35559677Y-103396099D01*
X35551223Y-103407427D01*
X34539338Y-103407427D01*
X34528414Y-103398800D01*
X34528410Y-103398798D01*
X34524359Y-103395598D01*
X34328789Y-103287638D01*
X34323920Y-103285914D01*
X34323916Y-103285912D01*
X34123087Y-103214795D01*
X34123083Y-103214794D01*
X34118212Y-103213069D01*
X34113119Y-103212162D01*
X34113116Y-103212161D01*
X33903373Y-103174800D01*
X33903367Y-103174799D01*
X33898284Y-103173894D01*
X33824452Y-103172992D01*
X33680081Y-103171228D01*
X33680079Y-103171228D01*
X33674911Y-103171165D01*
X33454091Y-103204955D01*
X33241756Y-103274357D01*
X33207013Y-103292443D01*
X33099677Y-103348319D01*
X33043607Y-103377507D01*
X33039474Y-103380610D01*
X33039471Y-103380612D01*
X32869100Y-103508530D01*
X32864965Y-103511635D01*
X32710629Y-103673138D01*
X32603201Y-103830621D01*
X32548293Y-103875621D01*
X32477768Y-103883792D01*
X32414021Y-103852538D01*
X32393324Y-103828054D01*
X32312822Y-103703617D01*
X32312820Y-103703614D01*
X32310014Y-103699277D01*
X32159670Y-103534051D01*
X32155619Y-103530852D01*
X32155615Y-103530848D01*
X31988414Y-103398800D01*
X31988410Y-103398798D01*
X31984359Y-103395598D01*
X31788789Y-103287638D01*
X31783920Y-103285914D01*
X31783916Y-103285912D01*
X31583087Y-103214795D01*
X31583083Y-103214794D01*
X31578212Y-103213069D01*
X31573119Y-103212162D01*
X31573116Y-103212161D01*
X31363373Y-103174800D01*
X31363367Y-103174799D01*
X31358284Y-103173894D01*
X31284452Y-103172992D01*
X31140081Y-103171228D01*
X31140079Y-103171228D01*
X31134911Y-103171165D01*
X30914091Y-103204955D01*
X30701756Y-103274357D01*
X30667013Y-103292443D01*
X30559677Y-103348319D01*
X30503607Y-103377507D01*
X30499474Y-103380610D01*
X30499471Y-103380612D01*
X30329100Y-103508530D01*
X30324965Y-103511635D01*
X30170629Y-103673138D01*
X30063201Y-103830621D01*
X30008293Y-103875621D01*
X29937768Y-103883792D01*
X29874021Y-103852538D01*
X29853324Y-103828054D01*
X29772822Y-103703617D01*
X29772820Y-103703614D01*
X29770014Y-103699277D01*
X29619670Y-103534051D01*
X29615619Y-103530852D01*
X29615615Y-103530848D01*
X29448414Y-103398800D01*
X29448410Y-103398798D01*
X29444359Y-103395598D01*
X29248789Y-103287638D01*
X29243920Y-103285914D01*
X29243916Y-103285912D01*
X29043087Y-103214795D01*
X29043083Y-103214794D01*
X29038212Y-103213069D01*
X29033119Y-103212162D01*
X29033116Y-103212161D01*
X28823373Y-103174800D01*
X28823367Y-103174799D01*
X28818284Y-103173894D01*
X28744452Y-103172992D01*
X28600081Y-103171228D01*
X28600079Y-103171228D01*
X28594911Y-103171165D01*
X28374091Y-103204955D01*
X28317262Y-103223530D01*
X28314134Y-103224552D01*
X28243170Y-103226703D01*
X28182308Y-103190147D01*
X28150872Y-103126490D01*
X28148989Y-103104787D01*
X28148989Y-102143252D01*
X28149516Y-102132068D01*
X28151190Y-102124580D01*
X28149051Y-102056521D01*
X28148989Y-102052564D01*
X28148989Y-102024633D01*
X28148483Y-102020627D01*
X28147550Y-102008781D01*
X28146411Y-101972526D01*
X28146162Y-101964599D01*
X28140511Y-101945147D01*
X28136503Y-101925795D01*
X28134956Y-101913552D01*
X28133963Y-101905692D01*
X28131045Y-101898321D01*
X28117689Y-101864586D01*
X28113844Y-101853359D01*
X28108469Y-101834859D01*
X28101507Y-101810896D01*
X28097473Y-101804074D01*
X28097470Y-101804068D01*
X28091195Y-101793457D01*
X28082499Y-101775707D01*
X28077961Y-101764245D01*
X28077958Y-101764240D01*
X28075041Y-101756872D01*
X28049062Y-101721114D01*
X28042546Y-101711196D01*
X28024064Y-101679946D01*
X28020031Y-101673126D01*
X28005707Y-101658802D01*
X27992865Y-101643767D01*
X27980961Y-101627382D01*
X27946895Y-101599200D01*
X27938116Y-101591211D01*
X26637142Y-100290237D01*
X26603116Y-100227925D01*
X26608181Y-100157110D01*
X26650728Y-100100274D01*
X26717248Y-100075463D01*
X26737218Y-100075621D01*
X26791524Y-100080372D01*
X26802475Y-100080372D01*
X27012896Y-100061962D01*
X27023691Y-100060059D01*
X27227715Y-100005391D01*
X27238007Y-100001645D01*
X27429445Y-99912376D01*
X27438931Y-99906898D01*
X27482764Y-99876207D01*
X27491139Y-99865729D01*
X27484071Y-99852281D01*
X26526885Y-98895095D01*
X26492859Y-98832783D01*
X26497924Y-98761968D01*
X26526885Y-98716905D01*
X26707905Y-98535885D01*
X26770217Y-98501859D01*
X26841032Y-98506924D01*
X26886095Y-98535885D01*
X27844003Y-99493793D01*
X27855777Y-99500223D01*
X27867793Y-99490926D01*
X27897897Y-99447932D01*
X27903377Y-99438441D01*
X27952529Y-99333035D01*
X27999447Y-99279750D01*
X28067724Y-99260289D01*
X28135684Y-99280831D01*
X28180919Y-99333035D01*
X28230186Y-99438689D01*
X28230189Y-99438694D01*
X28232512Y-99443676D01*
X28235668Y-99448183D01*
X28235669Y-99448185D01*
X28340064Y-99597276D01*
X28360023Y-99625781D01*
X28517219Y-99782977D01*
X28521727Y-99786134D01*
X28521730Y-99786136D01*
X28584816Y-99830309D01*
X28699323Y-99910488D01*
X28704305Y-99912811D01*
X28704310Y-99912814D01*
X28873356Y-99991641D01*
X28900804Y-100004440D01*
X28906112Y-100005862D01*
X28906114Y-100005863D01*
X28971949Y-100023503D01*
X29115537Y-100061978D01*
X29337000Y-100081353D01*
X29558463Y-100061978D01*
X29702051Y-100023503D01*
X29767886Y-100005863D01*
X29767888Y-100005862D01*
X29773196Y-100004440D01*
X29800644Y-99991641D01*
X29969690Y-99912814D01*
X29969695Y-99912811D01*
X29974677Y-99910488D01*
X30089184Y-99830309D01*
X30152270Y-99786136D01*
X30152273Y-99786134D01*
X30156781Y-99782977D01*
X30313977Y-99625781D01*
X30333937Y-99597276D01*
X30438331Y-99448185D01*
X30438332Y-99448183D01*
X30441488Y-99443676D01*
X30443811Y-99438694D01*
X30443814Y-99438689D01*
X30492805Y-99333627D01*
X30539723Y-99280342D01*
X30608000Y-99260881D01*
X30675960Y-99281423D01*
X30721195Y-99333627D01*
X30770186Y-99438689D01*
X30770189Y-99438694D01*
X30772512Y-99443676D01*
X30775668Y-99448183D01*
X30775669Y-99448185D01*
X30880064Y-99597276D01*
X30900023Y-99625781D01*
X31057219Y-99782977D01*
X31061727Y-99786134D01*
X31061730Y-99786136D01*
X31124816Y-99830309D01*
X31239323Y-99910488D01*
X31244305Y-99912811D01*
X31244310Y-99912814D01*
X31413356Y-99991641D01*
X31440804Y-100004440D01*
X31446112Y-100005862D01*
X31446114Y-100005863D01*
X31511949Y-100023503D01*
X31655537Y-100061978D01*
X31877000Y-100081353D01*
X32098463Y-100061978D01*
X32242051Y-100023503D01*
X32307886Y-100005863D01*
X32307888Y-100005862D01*
X32313196Y-100004440D01*
X32340644Y-99991641D01*
X32509690Y-99912814D01*
X32509695Y-99912811D01*
X32514677Y-99910488D01*
X32629184Y-99830309D01*
X32692270Y-99786136D01*
X32692273Y-99786134D01*
X32696781Y-99782977D01*
X32853977Y-99625781D01*
X32873937Y-99597276D01*
X32978331Y-99448185D01*
X32978332Y-99448183D01*
X32981488Y-99443676D01*
X32983811Y-99438694D01*
X32983814Y-99438689D01*
X33073117Y-99247178D01*
X33073118Y-99247177D01*
X33075440Y-99242196D01*
X33132978Y-99027463D01*
X33152353Y-98806000D01*
X33132978Y-98584537D01*
X33103724Y-98475361D01*
X33105414Y-98404385D01*
X33145208Y-98345589D01*
X33210472Y-98317641D01*
X33225431Y-98316750D01*
X48801961Y-98316750D01*
X48813144Y-98317277D01*
X48820637Y-98318952D01*
X48828563Y-98318703D01*
X48828564Y-98318703D01*
X48888714Y-98316812D01*
X48892673Y-98316750D01*
X48920584Y-98316750D01*
X48924519Y-98316253D01*
X48924584Y-98316245D01*
X48936421Y-98315312D01*
X48968679Y-98314298D01*
X48972698Y-98314172D01*
X48980617Y-98313923D01*
X49000071Y-98308271D01*
X49019428Y-98304263D01*
X49031658Y-98302718D01*
X49031659Y-98302718D01*
X49039525Y-98301724D01*
X49046896Y-98298805D01*
X49046898Y-98298805D01*
X49080640Y-98285446D01*
X49091870Y-98281601D01*
X49126711Y-98271479D01*
X49126712Y-98271479D01*
X49134321Y-98269268D01*
X49141140Y-98265235D01*
X49141145Y-98265233D01*
X49151756Y-98258957D01*
X49169504Y-98250262D01*
X49188345Y-98242802D01*
X49207501Y-98228885D01*
X49224115Y-98216814D01*
X49234035Y-98210298D01*
X49265263Y-98191830D01*
X49265266Y-98191828D01*
X49272090Y-98187792D01*
X49286411Y-98173471D01*
X49301445Y-98160630D01*
X49311422Y-98153381D01*
X49317835Y-98148722D01*
X49346026Y-98114645D01*
X49354016Y-98105866D01*
X53122655Y-94337228D01*
X53184967Y-94303202D01*
X53255783Y-94308267D01*
X53312618Y-94350814D01*
X53337429Y-94417334D01*
X53337750Y-94426323D01*
X53337750Y-94913884D01*
X53344505Y-94976066D01*
X53395635Y-95112455D01*
X53482989Y-95229011D01*
X53599545Y-95316365D01*
X53735934Y-95367495D01*
X53798116Y-95374250D01*
X53833761Y-95374250D01*
X53901882Y-95394252D01*
X53948375Y-95447908D01*
X53958479Y-95518182D01*
X53928985Y-95582762D01*
X53906032Y-95603462D01*
X53784035Y-95688885D01*
X53628385Y-95844535D01*
X53502129Y-96024848D01*
X53499808Y-96029826D01*
X53499806Y-96029829D01*
X53415601Y-96210405D01*
X53409101Y-96224345D01*
X53352130Y-96436966D01*
X53332945Y-96656250D01*
X53352130Y-96875534D01*
X53353554Y-96880848D01*
X53353554Y-96880849D01*
X53403619Y-97067694D01*
X53409101Y-97088155D01*
X53411423Y-97093135D01*
X53411424Y-97093137D01*
X53472395Y-97223887D01*
X53502129Y-97287652D01*
X53628385Y-97467965D01*
X53679722Y-97519302D01*
X53713748Y-97581614D01*
X53708683Y-97652429D01*
X53679722Y-97697492D01*
X52355229Y-99021984D01*
X51078868Y-100298345D01*
X51016556Y-100332371D01*
X50989773Y-100335250D01*
X46645700Y-100335250D01*
X46577579Y-100315248D01*
X46558353Y-100298907D01*
X46558080Y-100299210D01*
X46553168Y-100294787D01*
X46548753Y-100289884D01*
X46472217Y-100234277D01*
X46399594Y-100181513D01*
X46399593Y-100181512D01*
X46394252Y-100177632D01*
X46388224Y-100174948D01*
X46388222Y-100174947D01*
X46225819Y-100102641D01*
X46225818Y-100102641D01*
X46219788Y-100099956D01*
X46126387Y-100080103D01*
X46039444Y-100061622D01*
X46039439Y-100061622D01*
X46032987Y-100060250D01*
X45842013Y-100060250D01*
X45835561Y-100061622D01*
X45835556Y-100061622D01*
X45748613Y-100080103D01*
X45655212Y-100099956D01*
X45649182Y-100102641D01*
X45649181Y-100102641D01*
X45486778Y-100174947D01*
X45486776Y-100174948D01*
X45480748Y-100177632D01*
X45475407Y-100181512D01*
X45475406Y-100181513D01*
X45432466Y-100212711D01*
X45326247Y-100289884D01*
X45321826Y-100294794D01*
X45321825Y-100294795D01*
X45244588Y-100380576D01*
X45198460Y-100431806D01*
X45182728Y-100459055D01*
X45121029Y-100565921D01*
X45102973Y-100597194D01*
X45043958Y-100778822D01*
X45023996Y-100968750D01*
X45043958Y-101158678D01*
X45102973Y-101340306D01*
X45198460Y-101505694D01*
X45202878Y-101510601D01*
X45202879Y-101510602D01*
X45308028Y-101627382D01*
X45326247Y-101647616D01*
X45480748Y-101759868D01*
X45486776Y-101762552D01*
X45486778Y-101762553D01*
X45516323Y-101775707D01*
X45655212Y-101837544D01*
X45748613Y-101857397D01*
X45835556Y-101875878D01*
X45835561Y-101875878D01*
X45842013Y-101877250D01*
X46032987Y-101877250D01*
X46039439Y-101875878D01*
X46039444Y-101875878D01*
X46126387Y-101857397D01*
X46219788Y-101837544D01*
X46358677Y-101775707D01*
X46388222Y-101762553D01*
X46388224Y-101762552D01*
X46394252Y-101759868D01*
X46548753Y-101647616D01*
X46553168Y-101642713D01*
X46558080Y-101638290D01*
X46559205Y-101639539D01*
X46612514Y-101606699D01*
X46645700Y-101602250D01*
X51225601Y-101602250D01*
X51236784Y-101602777D01*
X51244277Y-101604452D01*
X51252203Y-101604203D01*
X51252204Y-101604203D01*
X51312354Y-101602312D01*
X51316313Y-101602250D01*
X51344224Y-101602250D01*
X51348159Y-101601753D01*
X51348224Y-101601745D01*
X51360061Y-101600812D01*
X51392319Y-101599798D01*
X51396338Y-101599672D01*
X51404257Y-101599423D01*
X51423711Y-101593771D01*
X51443068Y-101589763D01*
X51455298Y-101588218D01*
X51455299Y-101588218D01*
X51463165Y-101587224D01*
X51470536Y-101584305D01*
X51470538Y-101584305D01*
X51504280Y-101570946D01*
X51515510Y-101567101D01*
X51550351Y-101556979D01*
X51550352Y-101556979D01*
X51557961Y-101554768D01*
X51564780Y-101550735D01*
X51564785Y-101550733D01*
X51575396Y-101544457D01*
X51593144Y-101535762D01*
X51611985Y-101528302D01*
X51647755Y-101502314D01*
X51657675Y-101495798D01*
X51688903Y-101477330D01*
X51688906Y-101477328D01*
X51695730Y-101473292D01*
X51710051Y-101458971D01*
X51725085Y-101446130D01*
X51735062Y-101438881D01*
X51741475Y-101434222D01*
X51769666Y-101400145D01*
X51777656Y-101391366D01*
X52922971Y-100246052D01*
X53910503Y-100246052D01*
X53919799Y-100258067D01*
X53960090Y-100286279D01*
X53969585Y-100291762D01*
X54159035Y-100380104D01*
X54169327Y-100383850D01*
X54371240Y-100437952D01*
X54382033Y-100439855D01*
X54590275Y-100458074D01*
X54601225Y-100458074D01*
X54809467Y-100439855D01*
X54820260Y-100437952D01*
X55022173Y-100383850D01*
X55032465Y-100380104D01*
X55221915Y-100291762D01*
X55231410Y-100286279D01*
X55272538Y-100257481D01*
X55280914Y-100247002D01*
X55280415Y-100246052D01*
X56450503Y-100246052D01*
X56459799Y-100258067D01*
X56500090Y-100286279D01*
X56509585Y-100291762D01*
X56699035Y-100380104D01*
X56709327Y-100383850D01*
X56911240Y-100437952D01*
X56922033Y-100439855D01*
X57130275Y-100458074D01*
X57141225Y-100458074D01*
X57349467Y-100439855D01*
X57360260Y-100437952D01*
X57562173Y-100383850D01*
X57572465Y-100380104D01*
X57761915Y-100291762D01*
X57771410Y-100286279D01*
X57812538Y-100257481D01*
X57820914Y-100247002D01*
X57813846Y-100233556D01*
X57148562Y-99568272D01*
X57134618Y-99560658D01*
X57132785Y-99560789D01*
X57126170Y-99565040D01*
X56456933Y-100234277D01*
X56450503Y-100246052D01*
X55280415Y-100246052D01*
X55273846Y-100233556D01*
X54608562Y-99568272D01*
X54594618Y-99560658D01*
X54592785Y-99560789D01*
X54586170Y-99565040D01*
X53916933Y-100234277D01*
X53910503Y-100246052D01*
X52922971Y-100246052D01*
X53330103Y-99838920D01*
X53392415Y-99804894D01*
X53463231Y-99809959D01*
X53522412Y-99855745D01*
X53534522Y-99873040D01*
X53544997Y-99881413D01*
X53558445Y-99874345D01*
X54506655Y-98926135D01*
X54568967Y-98892109D01*
X54639782Y-98897174D01*
X54684845Y-98926135D01*
X55633777Y-99875067D01*
X55645551Y-99881497D01*
X55657567Y-99872200D01*
X55685781Y-99831906D01*
X55691259Y-99822420D01*
X55751555Y-99693115D01*
X55798473Y-99639830D01*
X55866750Y-99620369D01*
X55934710Y-99640911D01*
X55979945Y-99693115D01*
X56040241Y-99822420D01*
X56045719Y-99831906D01*
X56074519Y-99873038D01*
X56084997Y-99881413D01*
X56098445Y-99874345D01*
X56775408Y-99197382D01*
X57500158Y-99197382D01*
X57500289Y-99199215D01*
X57504540Y-99205830D01*
X58173777Y-99875067D01*
X58185551Y-99881497D01*
X58197567Y-99872200D01*
X58225781Y-99831906D01*
X58231259Y-99822420D01*
X58319604Y-99632965D01*
X58323350Y-99622673D01*
X58377452Y-99420760D01*
X58379355Y-99409967D01*
X58397574Y-99201725D01*
X58397574Y-99190775D01*
X58379355Y-98982533D01*
X58377452Y-98971740D01*
X58323350Y-98769827D01*
X58319604Y-98759535D01*
X58231259Y-98570080D01*
X58225781Y-98560594D01*
X58196981Y-98519462D01*
X58186503Y-98511087D01*
X58173055Y-98518155D01*
X57507772Y-99183438D01*
X57500158Y-99197382D01*
X56775408Y-99197382D01*
X57814567Y-98158223D01*
X57820997Y-98146448D01*
X57811701Y-98134433D01*
X57771410Y-98106221D01*
X57761915Y-98100738D01*
X57633208Y-98040721D01*
X57579923Y-97993803D01*
X57560462Y-97925526D01*
X57581004Y-97857566D01*
X57633208Y-97812331D01*
X57762166Y-97752197D01*
X57762171Y-97752194D01*
X57767153Y-97749871D01*
X57771662Y-97746714D01*
X57942954Y-97626774D01*
X57942957Y-97626772D01*
X57947465Y-97623615D01*
X58103115Y-97467965D01*
X58229371Y-97287652D01*
X58259106Y-97223887D01*
X58320076Y-97093137D01*
X58320077Y-97093135D01*
X58322399Y-97088155D01*
X58327882Y-97067694D01*
X58377946Y-96880849D01*
X58377946Y-96880848D01*
X58379370Y-96875534D01*
X58398555Y-96656250D01*
X58379370Y-96436966D01*
X58322399Y-96224345D01*
X58315899Y-96210405D01*
X58231694Y-96029829D01*
X58231692Y-96029826D01*
X58229371Y-96024848D01*
X58103115Y-95844535D01*
X57947465Y-95688885D01*
X57942957Y-95685728D01*
X57942954Y-95685726D01*
X57771662Y-95565786D01*
X57771659Y-95565784D01*
X57767153Y-95562629D01*
X57762171Y-95560306D01*
X57762166Y-95560303D01*
X57633800Y-95500445D01*
X57580515Y-95453527D01*
X57561054Y-95385250D01*
X57581596Y-95317290D01*
X57633800Y-95272055D01*
X57762166Y-95212197D01*
X57762171Y-95212194D01*
X57767153Y-95209871D01*
X57896015Y-95119641D01*
X57942954Y-95086774D01*
X57942957Y-95086772D01*
X57947465Y-95083615D01*
X58103115Y-94927965D01*
X58229371Y-94747652D01*
X58322399Y-94548155D01*
X58355044Y-94426323D01*
X58377946Y-94340849D01*
X58377946Y-94340848D01*
X58379370Y-94335534D01*
X58398555Y-94116250D01*
X58379370Y-93896966D01*
X58376109Y-93884797D01*
X58323822Y-93689655D01*
X58323821Y-93689653D01*
X58322399Y-93684345D01*
X58310624Y-93659093D01*
X58231694Y-93489829D01*
X58231692Y-93489826D01*
X58229371Y-93484848D01*
X58103115Y-93304535D01*
X57947465Y-93148885D01*
X57942957Y-93145728D01*
X57942954Y-93145726D01*
X57771662Y-93025786D01*
X57771659Y-93025784D01*
X57767153Y-93022629D01*
X57762171Y-93020306D01*
X57762166Y-93020303D01*
X57572637Y-92931924D01*
X57572635Y-92931923D01*
X57567655Y-92929601D01*
X57562347Y-92928179D01*
X57562345Y-92928178D01*
X57360349Y-92874054D01*
X57360348Y-92874054D01*
X57355034Y-92872630D01*
X57135750Y-92853445D01*
X56916466Y-92872630D01*
X56911152Y-92874054D01*
X56911151Y-92874054D01*
X56709155Y-92928178D01*
X56709153Y-92928179D01*
X56703845Y-92929601D01*
X56698865Y-92931923D01*
X56698863Y-92931924D01*
X56509329Y-93020306D01*
X56509326Y-93020308D01*
X56504348Y-93022629D01*
X56324035Y-93148885D01*
X56168385Y-93304535D01*
X56156133Y-93322033D01*
X56082963Y-93426531D01*
X56027506Y-93470860D01*
X55956887Y-93478169D01*
X55893526Y-93446139D01*
X55857541Y-93384937D01*
X55853750Y-93354261D01*
X55853750Y-93318616D01*
X55846995Y-93256434D01*
X55795865Y-93120045D01*
X55708511Y-93003489D01*
X55591955Y-92916135D01*
X55455566Y-92865005D01*
X55393384Y-92858250D01*
X54905823Y-92858250D01*
X54837702Y-92838248D01*
X54791209Y-92784592D01*
X54781105Y-92714318D01*
X54810599Y-92649738D01*
X54816728Y-92643155D01*
X56512704Y-90947179D01*
X56575016Y-90913153D01*
X56645831Y-90918218D01*
X56667652Y-90929933D01*
X56667939Y-90929436D01*
X56673656Y-90932737D01*
X56678998Y-90936618D01*
X56685026Y-90939302D01*
X56685028Y-90939303D01*
X56847431Y-91011609D01*
X56853462Y-91014294D01*
X56946862Y-91034147D01*
X57033806Y-91052628D01*
X57033811Y-91052628D01*
X57040263Y-91054000D01*
X57231237Y-91054000D01*
X57237689Y-91052628D01*
X57237694Y-91052628D01*
X57324638Y-91034147D01*
X57418038Y-91014294D01*
X57424069Y-91011609D01*
X57586472Y-90939303D01*
X57586474Y-90939302D01*
X57592502Y-90936618D01*
X57617828Y-90918218D01*
X57741664Y-90828245D01*
X57747003Y-90824366D01*
X57751418Y-90819463D01*
X57756330Y-90815040D01*
X57757455Y-90816289D01*
X57810764Y-90783449D01*
X57843950Y-90779000D01*
X61799656Y-90779000D01*
X61867777Y-90799002D01*
X61888751Y-90815905D01*
X63360845Y-92287999D01*
X63394871Y-92350311D01*
X63397750Y-92377094D01*
X63397750Y-96389983D01*
X63397223Y-96401166D01*
X63395548Y-96408659D01*
X63395797Y-96416585D01*
X63395797Y-96416586D01*
X63397688Y-96476736D01*
X63397750Y-96480695D01*
X63397750Y-96508606D01*
X63398247Y-96512540D01*
X63398247Y-96512541D01*
X63398255Y-96512606D01*
X63399188Y-96524443D01*
X63400577Y-96568639D01*
X63406228Y-96588089D01*
X63410237Y-96607450D01*
X63412776Y-96627547D01*
X63415695Y-96634918D01*
X63415695Y-96634920D01*
X63429054Y-96668662D01*
X63432899Y-96679892D01*
X63445232Y-96722343D01*
X63449265Y-96729162D01*
X63449267Y-96729167D01*
X63455543Y-96739778D01*
X63464238Y-96757526D01*
X63471698Y-96776367D01*
X63476360Y-96782783D01*
X63476360Y-96782784D01*
X63497686Y-96812137D01*
X63504202Y-96822057D01*
X63511653Y-96834655D01*
X63526708Y-96860112D01*
X63541029Y-96874433D01*
X63553869Y-96889466D01*
X63565778Y-96905857D01*
X63571884Y-96910908D01*
X63599855Y-96934048D01*
X63608634Y-96942038D01*
X66255093Y-99588497D01*
X66262637Y-99596787D01*
X66266750Y-99603268D01*
X66272527Y-99608693D01*
X66316417Y-99649908D01*
X66319259Y-99652663D01*
X66338980Y-99672384D01*
X66342175Y-99674862D01*
X66351197Y-99682568D01*
X66383429Y-99712836D01*
X66390378Y-99716656D01*
X66401182Y-99722596D01*
X66417706Y-99733449D01*
X66433709Y-99745863D01*
X66474293Y-99763426D01*
X66484923Y-99768633D01*
X66523690Y-99789945D01*
X66531367Y-99791916D01*
X66531372Y-99791918D01*
X66543308Y-99794982D01*
X66562016Y-99801387D01*
X66580605Y-99809431D01*
X66588430Y-99810670D01*
X66588432Y-99810671D01*
X66624269Y-99816347D01*
X66635890Y-99818754D01*
X66671039Y-99827778D01*
X66678720Y-99829750D01*
X66698981Y-99829750D01*
X66718690Y-99831301D01*
X66738693Y-99834469D01*
X66746585Y-99833723D01*
X66751812Y-99833229D01*
X66782704Y-99830309D01*
X66794561Y-99829750D01*
X67509757Y-99829750D01*
X67577878Y-99849752D01*
X67612970Y-99883480D01*
X67700135Y-100007965D01*
X67855785Y-100163615D01*
X67860293Y-100166772D01*
X67860296Y-100166774D01*
X68030967Y-100286279D01*
X68036097Y-100289871D01*
X68041079Y-100292194D01*
X68041084Y-100292197D01*
X68229601Y-100380104D01*
X68235595Y-100382899D01*
X68240903Y-100384321D01*
X68240905Y-100384322D01*
X68442901Y-100438446D01*
X68442902Y-100438446D01*
X68448216Y-100439870D01*
X68667500Y-100459055D01*
X68886784Y-100439870D01*
X68892098Y-100438446D01*
X68892099Y-100438446D01*
X69094095Y-100384322D01*
X69094097Y-100384321D01*
X69099405Y-100382899D01*
X69105399Y-100380104D01*
X69293916Y-100292197D01*
X69293921Y-100292194D01*
X69298903Y-100289871D01*
X69304033Y-100286279D01*
X69361483Y-100246052D01*
X70522253Y-100246052D01*
X70531549Y-100258067D01*
X70571840Y-100286279D01*
X70581335Y-100291762D01*
X70770785Y-100380104D01*
X70781077Y-100383850D01*
X70982990Y-100437952D01*
X70993783Y-100439855D01*
X71202025Y-100458074D01*
X71212975Y-100458074D01*
X71421217Y-100439855D01*
X71432010Y-100437952D01*
X71633923Y-100383850D01*
X71644215Y-100380104D01*
X71833665Y-100291762D01*
X71843160Y-100286279D01*
X71884288Y-100257481D01*
X71892664Y-100247002D01*
X71885596Y-100233556D01*
X71220312Y-99568272D01*
X71206368Y-99560658D01*
X71204535Y-99560789D01*
X71197920Y-99565040D01*
X70528683Y-100234277D01*
X70522253Y-100246052D01*
X69361483Y-100246052D01*
X69474704Y-100166774D01*
X69474707Y-100166772D01*
X69479215Y-100163615D01*
X69634865Y-100007965D01*
X69761121Y-99827652D01*
X69765271Y-99818754D01*
X69799260Y-99745863D01*
X69823582Y-99693706D01*
X69870499Y-99640422D01*
X69938776Y-99620961D01*
X70006736Y-99641503D01*
X70051971Y-99693707D01*
X70111991Y-99822420D01*
X70117469Y-99831906D01*
X70146269Y-99873038D01*
X70156747Y-99881413D01*
X70170195Y-99874345D01*
X70835478Y-99209062D01*
X70841856Y-99197382D01*
X71571908Y-99197382D01*
X71572039Y-99199215D01*
X71576290Y-99205830D01*
X72245527Y-99875067D01*
X72257301Y-99881497D01*
X72269317Y-99872200D01*
X72297531Y-99831906D01*
X72303009Y-99822420D01*
X72391354Y-99632965D01*
X72395100Y-99622673D01*
X72449202Y-99420760D01*
X72451105Y-99409967D01*
X72469324Y-99201725D01*
X72469324Y-99190775D01*
X72451105Y-98982533D01*
X72449202Y-98971740D01*
X72395100Y-98769827D01*
X72391354Y-98759535D01*
X72303009Y-98570080D01*
X72297531Y-98560594D01*
X72268731Y-98519462D01*
X72258253Y-98511087D01*
X72244805Y-98518155D01*
X71579522Y-99183438D01*
X71571908Y-99197382D01*
X70841856Y-99197382D01*
X70843092Y-99195118D01*
X70842961Y-99193285D01*
X70838710Y-99186670D01*
X70169473Y-98517433D01*
X70157699Y-98511003D01*
X70145683Y-98520300D01*
X70117469Y-98560594D01*
X70111991Y-98570080D01*
X70051971Y-98698793D01*
X70005053Y-98752078D01*
X69936776Y-98771539D01*
X69868816Y-98750997D01*
X69823581Y-98698793D01*
X69763444Y-98569829D01*
X69763442Y-98569826D01*
X69761121Y-98564848D01*
X69634865Y-98384535D01*
X69479215Y-98228885D01*
X69474707Y-98225728D01*
X69474704Y-98225726D01*
X69303412Y-98105786D01*
X69303409Y-98105784D01*
X69298903Y-98102629D01*
X69293921Y-98100306D01*
X69293916Y-98100303D01*
X69165550Y-98040445D01*
X69112265Y-97993527D01*
X69092804Y-97925250D01*
X69113346Y-97857290D01*
X69165550Y-97812055D01*
X69293916Y-97752197D01*
X69293921Y-97752194D01*
X69298903Y-97749871D01*
X69303412Y-97746714D01*
X69474704Y-97626774D01*
X69474707Y-97626772D01*
X69479215Y-97623615D01*
X69634865Y-97467965D01*
X69761121Y-97287652D01*
X69823305Y-97154298D01*
X69870223Y-97101014D01*
X69938500Y-97081553D01*
X70006460Y-97102095D01*
X70051695Y-97154298D01*
X70113879Y-97287652D01*
X70240135Y-97467965D01*
X70395785Y-97623615D01*
X70400293Y-97626772D01*
X70400296Y-97626774D01*
X70571588Y-97746714D01*
X70576097Y-97749871D01*
X70581079Y-97752194D01*
X70581084Y-97752197D01*
X70710042Y-97812331D01*
X70763327Y-97859249D01*
X70782788Y-97927526D01*
X70762246Y-97995486D01*
X70710043Y-98040720D01*
X70581335Y-98100738D01*
X70571844Y-98106219D01*
X70530712Y-98135019D01*
X70522337Y-98145497D01*
X70529405Y-98158945D01*
X71194688Y-98824228D01*
X71208632Y-98831842D01*
X71210465Y-98831711D01*
X71217080Y-98827460D01*
X71886317Y-98158223D01*
X71892747Y-98146448D01*
X71883451Y-98134433D01*
X71843160Y-98106221D01*
X71833665Y-98100738D01*
X71704958Y-98040721D01*
X71651673Y-97993803D01*
X71632212Y-97925526D01*
X71652754Y-97857566D01*
X71704958Y-97812331D01*
X71833916Y-97752197D01*
X71833921Y-97752194D01*
X71838903Y-97749871D01*
X71843412Y-97746714D01*
X72014704Y-97626774D01*
X72014707Y-97626772D01*
X72019215Y-97623615D01*
X72174865Y-97467965D01*
X72301121Y-97287652D01*
X72330856Y-97223887D01*
X72391826Y-97093137D01*
X72391827Y-97093135D01*
X72394149Y-97088155D01*
X72399632Y-97067694D01*
X72449696Y-96880849D01*
X72449696Y-96880848D01*
X72451120Y-96875534D01*
X72470305Y-96656250D01*
X72451120Y-96436966D01*
X72394149Y-96224345D01*
X72387649Y-96210405D01*
X72303444Y-96029829D01*
X72303442Y-96029826D01*
X72301121Y-96024848D01*
X72174865Y-95844535D01*
X72019215Y-95688885D01*
X72014707Y-95685728D01*
X72014704Y-95685726D01*
X71843412Y-95565786D01*
X71843409Y-95565784D01*
X71838903Y-95562629D01*
X71833921Y-95560306D01*
X71833916Y-95560303D01*
X71705550Y-95500445D01*
X71652265Y-95453527D01*
X71632804Y-95385250D01*
X71653346Y-95317290D01*
X71705550Y-95272055D01*
X71833916Y-95212197D01*
X71833921Y-95212194D01*
X71838903Y-95209871D01*
X71967765Y-95119641D01*
X72014704Y-95086774D01*
X72014707Y-95086772D01*
X72019215Y-95083615D01*
X72174865Y-94927965D01*
X72301121Y-94747652D01*
X72394149Y-94548155D01*
X72426794Y-94426323D01*
X72449696Y-94340849D01*
X72449696Y-94340848D01*
X72451120Y-94335534D01*
X72470305Y-94116250D01*
X72451120Y-93896966D01*
X72447859Y-93884797D01*
X72395572Y-93689655D01*
X72395571Y-93689653D01*
X72394149Y-93684345D01*
X72382374Y-93659093D01*
X72303444Y-93489829D01*
X72303442Y-93489826D01*
X72301121Y-93484848D01*
X72174865Y-93304535D01*
X72019215Y-93148885D01*
X72014707Y-93145728D01*
X72014704Y-93145726D01*
X71843412Y-93025786D01*
X71843409Y-93025784D01*
X71838903Y-93022629D01*
X71833921Y-93020306D01*
X71833916Y-93020303D01*
X71644387Y-92931924D01*
X71644385Y-92931923D01*
X71639405Y-92929601D01*
X71634097Y-92928179D01*
X71634095Y-92928178D01*
X71432099Y-92874054D01*
X71432098Y-92874054D01*
X71426784Y-92872630D01*
X71207500Y-92853445D01*
X70988216Y-92872630D01*
X70982902Y-92874054D01*
X70982901Y-92874054D01*
X70780905Y-92928178D01*
X70780903Y-92928179D01*
X70775595Y-92929601D01*
X70770615Y-92931923D01*
X70770613Y-92931924D01*
X70581079Y-93020306D01*
X70581076Y-93020308D01*
X70576098Y-93022629D01*
X70395785Y-93148885D01*
X70240135Y-93304535D01*
X70227883Y-93322033D01*
X70154713Y-93426531D01*
X70099256Y-93470860D01*
X70028637Y-93478169D01*
X69965276Y-93446139D01*
X69929291Y-93384937D01*
X69925500Y-93354261D01*
X69925500Y-93318616D01*
X69918745Y-93256434D01*
X69867615Y-93120045D01*
X69780261Y-93003489D01*
X69663705Y-92916135D01*
X69527316Y-92865005D01*
X69465134Y-92858250D01*
X67869866Y-92858250D01*
X67807684Y-92865005D01*
X67671295Y-92916135D01*
X67554739Y-93003489D01*
X67467385Y-93120045D01*
X67416255Y-93256434D01*
X67409500Y-93318616D01*
X67409500Y-94913884D01*
X67416255Y-94976066D01*
X67467385Y-95112455D01*
X67554739Y-95229011D01*
X67671295Y-95316365D01*
X67807684Y-95367495D01*
X67869866Y-95374250D01*
X67905511Y-95374250D01*
X67973632Y-95394252D01*
X68020125Y-95447908D01*
X68030229Y-95518182D01*
X68000735Y-95582762D01*
X67977782Y-95603462D01*
X67855785Y-95688885D01*
X67700135Y-95844535D01*
X67573879Y-96024848D01*
X67571558Y-96029826D01*
X67571556Y-96029829D01*
X67487351Y-96210405D01*
X67480851Y-96224345D01*
X67423880Y-96436966D01*
X67404695Y-96656250D01*
X67423880Y-96875534D01*
X67425304Y-96880848D01*
X67425304Y-96880849D01*
X67475369Y-97067694D01*
X67480851Y-97088155D01*
X67483173Y-97093135D01*
X67483174Y-97093137D01*
X67544145Y-97223887D01*
X67573879Y-97287652D01*
X67700135Y-97467965D01*
X67855785Y-97623615D01*
X67860293Y-97626772D01*
X67860296Y-97626774D01*
X68031588Y-97746714D01*
X68036097Y-97749871D01*
X68041079Y-97752194D01*
X68041084Y-97752197D01*
X68169450Y-97812055D01*
X68222735Y-97858973D01*
X68242196Y-97927250D01*
X68221654Y-97995210D01*
X68169451Y-98040444D01*
X68041084Y-98100303D01*
X68041075Y-98100308D01*
X68036098Y-98102629D01*
X67855785Y-98228885D01*
X67700135Y-98384535D01*
X67627403Y-98488408D01*
X67612970Y-98509020D01*
X67557513Y-98553349D01*
X67509757Y-98562750D01*
X67073345Y-98562750D01*
X67005224Y-98542748D01*
X66984250Y-98525845D01*
X64701655Y-96243250D01*
X64667629Y-96180938D01*
X64664750Y-96154155D01*
X64664750Y-92141263D01*
X64665277Y-92130079D01*
X64666951Y-92122591D01*
X64664812Y-92054532D01*
X64664750Y-92050575D01*
X64664750Y-92022644D01*
X64664244Y-92018638D01*
X64663311Y-92006792D01*
X64662172Y-91970537D01*
X64661923Y-91962610D01*
X64656272Y-91943158D01*
X64652264Y-91923806D01*
X64650718Y-91911568D01*
X64650717Y-91911566D01*
X64649724Y-91903703D01*
X64633444Y-91862586D01*
X64629609Y-91851385D01*
X64617268Y-91808906D01*
X64613235Y-91802087D01*
X64613233Y-91802082D01*
X64606957Y-91791471D01*
X64598260Y-91773721D01*
X64590802Y-91754883D01*
X64564821Y-91719123D01*
X64558303Y-91709201D01*
X64539828Y-91677960D01*
X64539824Y-91677955D01*
X64535792Y-91671137D01*
X64521468Y-91656813D01*
X64508626Y-91641778D01*
X64496722Y-91625393D01*
X64462656Y-91597211D01*
X64453877Y-91589222D01*
X62617902Y-89753247D01*
X62610362Y-89744961D01*
X62606250Y-89738482D01*
X62556598Y-89691856D01*
X62553757Y-89689102D01*
X62534020Y-89669365D01*
X62530823Y-89666885D01*
X62521801Y-89659180D01*
X62495350Y-89634341D01*
X62489571Y-89628914D01*
X62482625Y-89625095D01*
X62482622Y-89625093D01*
X62471816Y-89619152D01*
X62455297Y-89608301D01*
X62454833Y-89607941D01*
X62439291Y-89595886D01*
X62432022Y-89592741D01*
X62432018Y-89592738D01*
X62398713Y-89578326D01*
X62388063Y-89573109D01*
X62349310Y-89551805D01*
X62329687Y-89546767D01*
X62310984Y-89540363D01*
X62299670Y-89535467D01*
X62299669Y-89535467D01*
X62292395Y-89532319D01*
X62284572Y-89531080D01*
X62284562Y-89531077D01*
X62248726Y-89525401D01*
X62237106Y-89522995D01*
X62201961Y-89513972D01*
X62201960Y-89513972D01*
X62194280Y-89512000D01*
X62174026Y-89512000D01*
X62154315Y-89510449D01*
X62142136Y-89508520D01*
X62134307Y-89507280D01*
X62126415Y-89508026D01*
X62090289Y-89511441D01*
X62078431Y-89512000D01*
X57843950Y-89512000D01*
X57775829Y-89491998D01*
X57756603Y-89475657D01*
X57756330Y-89475960D01*
X57751418Y-89471537D01*
X57747003Y-89466634D01*
X57592502Y-89354382D01*
X57586474Y-89351698D01*
X57586472Y-89351697D01*
X57424069Y-89279391D01*
X57424068Y-89279391D01*
X57418038Y-89276706D01*
X57324638Y-89256853D01*
X57237694Y-89238372D01*
X57237689Y-89238372D01*
X57231237Y-89237000D01*
X57040263Y-89237000D01*
X57033811Y-89238372D01*
X57033806Y-89238372D01*
X56946862Y-89256853D01*
X56853462Y-89276706D01*
X56847432Y-89279391D01*
X56847431Y-89279391D01*
X56685028Y-89351697D01*
X56685026Y-89351698D01*
X56678998Y-89354382D01*
X56567944Y-89435068D01*
X56497843Y-89459069D01*
X56464812Y-89460107D01*
X56462228Y-89460188D01*
X56458271Y-89460250D01*
X56430372Y-89460250D01*
X56426382Y-89460754D01*
X56414548Y-89461686D01*
X56370339Y-89463076D01*
X56362725Y-89465288D01*
X56362720Y-89465289D01*
X56350887Y-89468727D01*
X56331524Y-89472738D01*
X56311431Y-89475276D01*
X56304064Y-89478193D01*
X56304059Y-89478194D01*
X56270320Y-89491552D01*
X56259093Y-89495396D01*
X56216635Y-89507732D01*
X56209809Y-89511769D01*
X56199200Y-89518043D01*
X56181452Y-89526738D01*
X56162611Y-89534198D01*
X56156195Y-89538860D01*
X56156194Y-89538860D01*
X56126841Y-89560186D01*
X56116921Y-89566702D01*
X56085693Y-89585170D01*
X56085690Y-89585172D01*
X56078866Y-89589208D01*
X56064545Y-89603529D01*
X56049512Y-89616369D01*
X56033121Y-89628278D01*
X56028070Y-89634384D01*
X56004930Y-89662355D01*
X55996940Y-89671134D01*
X48655228Y-97012845D01*
X48592916Y-97046871D01*
X48566133Y-97049750D01*
X31068844Y-97049750D01*
X31000723Y-97029748D01*
X30979749Y-97012845D01*
X27467405Y-93500500D01*
X27433379Y-93438188D01*
X27430500Y-93411405D01*
X27430500Y-79659004D01*
X27450502Y-79590883D01*
X27484229Y-79555791D01*
X27612270Y-79466136D01*
X27612273Y-79466134D01*
X27616781Y-79462977D01*
X27773977Y-79305781D01*
X27861894Y-79180223D01*
X27898331Y-79128185D01*
X27898332Y-79128183D01*
X27901488Y-79123676D01*
X27903811Y-79118694D01*
X27903814Y-79118689D01*
X27952805Y-79013627D01*
X27999723Y-78960342D01*
X28068000Y-78940881D01*
X28135960Y-78961423D01*
X28181195Y-79013627D01*
X28230186Y-79118689D01*
X28230189Y-79118694D01*
X28232512Y-79123676D01*
X28235668Y-79128183D01*
X28235669Y-79128185D01*
X28272107Y-79180223D01*
X28360023Y-79305781D01*
X28517219Y-79462977D01*
X28521727Y-79466134D01*
X28521730Y-79466136D01*
X28597495Y-79519187D01*
X28699323Y-79590488D01*
X28704305Y-79592811D01*
X28704310Y-79592814D01*
X28846256Y-79659004D01*
X28900804Y-79684440D01*
X28906112Y-79685862D01*
X28906114Y-79685863D01*
X28971949Y-79703503D01*
X29115537Y-79741978D01*
X29337000Y-79761353D01*
X29558463Y-79741978D01*
X29702051Y-79703503D01*
X29767886Y-79685863D01*
X29767888Y-79685862D01*
X29773196Y-79684440D01*
X29827744Y-79659004D01*
X29969690Y-79592814D01*
X29969695Y-79592811D01*
X29974677Y-79590488D01*
X30039959Y-79544777D01*
X31182777Y-79544777D01*
X31192074Y-79556793D01*
X31235069Y-79586898D01*
X31244555Y-79592376D01*
X31435993Y-79681645D01*
X31446285Y-79685391D01*
X31650309Y-79740059D01*
X31661104Y-79741962D01*
X31871525Y-79760372D01*
X31882475Y-79760372D01*
X32092896Y-79741962D01*
X32103691Y-79740059D01*
X32307715Y-79685391D01*
X32318007Y-79681645D01*
X32509445Y-79592376D01*
X32518931Y-79586898D01*
X32562764Y-79556207D01*
X32571139Y-79545729D01*
X32564071Y-79532281D01*
X31889812Y-78858022D01*
X31875868Y-78850408D01*
X31874035Y-78850539D01*
X31867420Y-78854790D01*
X31189207Y-79533003D01*
X31182777Y-79544777D01*
X30039959Y-79544777D01*
X30076505Y-79519187D01*
X30152270Y-79466136D01*
X30152273Y-79466134D01*
X30156781Y-79462977D01*
X30313977Y-79305781D01*
X30401894Y-79180223D01*
X30438331Y-79128185D01*
X30438332Y-79128183D01*
X30441488Y-79123676D01*
X30443811Y-79118694D01*
X30443814Y-79118689D01*
X30493081Y-79013035D01*
X30539999Y-78959750D01*
X30608276Y-78940289D01*
X30676236Y-78960831D01*
X30721471Y-79013035D01*
X30770623Y-79118441D01*
X30776103Y-79127932D01*
X30806794Y-79171765D01*
X30817271Y-79180140D01*
X30830718Y-79173072D01*
X31504978Y-78498812D01*
X31511356Y-78487132D01*
X32241408Y-78487132D01*
X32241539Y-78488965D01*
X32245790Y-78495580D01*
X32924003Y-79173793D01*
X32935777Y-79180223D01*
X32947793Y-79170926D01*
X32977897Y-79127932D01*
X32983377Y-79118441D01*
X33072645Y-78927007D01*
X33076391Y-78916715D01*
X33131059Y-78712691D01*
X33132962Y-78701896D01*
X33151372Y-78491475D01*
X33151372Y-78480525D01*
X33132962Y-78270104D01*
X33131059Y-78259309D01*
X33076391Y-78055285D01*
X33072645Y-78044993D01*
X32983377Y-77853559D01*
X32977897Y-77844068D01*
X32947206Y-77800235D01*
X32936729Y-77791860D01*
X32923282Y-77798928D01*
X32249022Y-78473188D01*
X32241408Y-78487132D01*
X31511356Y-78487132D01*
X31512592Y-78484868D01*
X31512461Y-78483035D01*
X31508210Y-78476420D01*
X30829997Y-77798207D01*
X30818223Y-77791777D01*
X30806207Y-77801074D01*
X30776103Y-77844068D01*
X30770623Y-77853559D01*
X30721471Y-77958965D01*
X30674553Y-78012250D01*
X30606276Y-78031711D01*
X30538316Y-78011169D01*
X30493081Y-77958965D01*
X30443814Y-77853311D01*
X30443811Y-77853306D01*
X30441488Y-77848324D01*
X30438331Y-77843815D01*
X30317136Y-77670730D01*
X30317134Y-77670727D01*
X30313977Y-77666219D01*
X30156781Y-77509023D01*
X30152273Y-77505866D01*
X30152270Y-77505864D01*
X30076505Y-77452813D01*
X30038599Y-77426271D01*
X31182860Y-77426271D01*
X31189928Y-77439718D01*
X31864188Y-78113978D01*
X31878132Y-78121592D01*
X31879965Y-78121461D01*
X31886580Y-78117210D01*
X32564793Y-77438997D01*
X32571223Y-77427223D01*
X32561926Y-77415207D01*
X32518931Y-77385102D01*
X32509445Y-77379624D01*
X32318007Y-77290355D01*
X32307715Y-77286609D01*
X32103691Y-77231941D01*
X32092896Y-77230038D01*
X31882475Y-77211628D01*
X31871525Y-77211628D01*
X31661104Y-77230038D01*
X31650309Y-77231941D01*
X31446285Y-77286609D01*
X31435993Y-77290355D01*
X31244559Y-77379623D01*
X31235068Y-77385103D01*
X31191235Y-77415794D01*
X31182860Y-77426271D01*
X30038599Y-77426271D01*
X29974677Y-77381512D01*
X29969695Y-77379189D01*
X29969690Y-77379186D01*
X29778178Y-77289883D01*
X29778177Y-77289882D01*
X29773196Y-77287560D01*
X29767888Y-77286138D01*
X29767886Y-77286137D01*
X29702051Y-77268497D01*
X29558463Y-77230022D01*
X29337000Y-77210647D01*
X29115537Y-77230022D01*
X28971949Y-77268497D01*
X28906114Y-77286137D01*
X28906112Y-77286138D01*
X28900804Y-77287560D01*
X28895823Y-77289882D01*
X28895822Y-77289883D01*
X28704311Y-77379186D01*
X28704306Y-77379189D01*
X28699324Y-77381512D01*
X28694817Y-77384668D01*
X28694815Y-77384669D01*
X28521730Y-77505864D01*
X28521727Y-77505866D01*
X28517219Y-77509023D01*
X28360023Y-77666219D01*
X28356866Y-77670727D01*
X28356864Y-77670730D01*
X28235669Y-77843815D01*
X28232512Y-77848324D01*
X28230189Y-77853306D01*
X28230186Y-77853311D01*
X28181195Y-77958373D01*
X28134277Y-78011658D01*
X28066000Y-78031119D01*
X27998040Y-78010577D01*
X27952805Y-77958373D01*
X27903814Y-77853311D01*
X27903811Y-77853306D01*
X27901488Y-77848324D01*
X27898331Y-77843815D01*
X27777136Y-77670730D01*
X27777134Y-77670727D01*
X27773977Y-77666219D01*
X27616781Y-77509023D01*
X27612273Y-77505866D01*
X27612270Y-77505864D01*
X27536505Y-77452813D01*
X27434677Y-77381512D01*
X27429695Y-77379189D01*
X27429690Y-77379186D01*
X27238178Y-77289883D01*
X27238177Y-77289882D01*
X27233196Y-77287560D01*
X27227888Y-77286138D01*
X27227886Y-77286137D01*
X27162051Y-77268497D01*
X27018463Y-77230022D01*
X26797000Y-77210647D01*
X26575537Y-77230022D01*
X26431949Y-77268497D01*
X26366114Y-77286137D01*
X26366112Y-77286138D01*
X26360804Y-77287560D01*
X26355823Y-77289882D01*
X26355822Y-77289883D01*
X26164311Y-77379186D01*
X26164306Y-77379189D01*
X26159324Y-77381512D01*
X26154817Y-77384668D01*
X26154815Y-77384669D01*
X25981730Y-77505864D01*
X25981727Y-77505866D01*
X25977219Y-77509023D01*
X25820023Y-77666219D01*
X25816866Y-77670727D01*
X25816864Y-77670730D01*
X25695669Y-77843815D01*
X25692512Y-77848324D01*
X25690189Y-77853306D01*
X25690186Y-77853311D01*
X25641195Y-77958373D01*
X25594277Y-78011658D01*
X25526000Y-78031119D01*
X25458040Y-78010577D01*
X25412805Y-77958373D01*
X25363814Y-77853311D01*
X25363811Y-77853306D01*
X25361488Y-77848324D01*
X25358331Y-77843815D01*
X25237136Y-77670730D01*
X25237134Y-77670727D01*
X25233977Y-77666219D01*
X25076781Y-77509023D01*
X25072273Y-77505866D01*
X25072270Y-77505864D01*
X24996505Y-77452813D01*
X24894677Y-77381512D01*
X24889695Y-77379189D01*
X24889690Y-77379186D01*
X24698178Y-77289883D01*
X24698177Y-77289882D01*
X24693196Y-77287560D01*
X24687888Y-77286138D01*
X24687886Y-77286137D01*
X24622051Y-77268497D01*
X24478463Y-77230022D01*
X24257000Y-77210647D01*
X24035537Y-77230022D01*
X23891949Y-77268497D01*
X23826114Y-77286137D01*
X23826112Y-77286138D01*
X23820804Y-77287560D01*
X23815823Y-77289882D01*
X23815822Y-77289883D01*
X23624311Y-77379186D01*
X23624306Y-77379189D01*
X23619324Y-77381512D01*
X23614817Y-77384668D01*
X23614815Y-77384669D01*
X23441730Y-77505864D01*
X23441727Y-77505866D01*
X23437219Y-77509023D01*
X23280023Y-77666219D01*
X23276866Y-77670727D01*
X23276864Y-77670730D01*
X23155669Y-77843815D01*
X23152512Y-77848324D01*
X23150189Y-77853306D01*
X23150186Y-77853311D01*
X23101195Y-77958373D01*
X23054277Y-78011658D01*
X22986000Y-78031119D01*
X22918040Y-78010577D01*
X22872805Y-77958373D01*
X22823814Y-77853311D01*
X22823811Y-77853306D01*
X22821488Y-77848324D01*
X22818331Y-77843815D01*
X22697136Y-77670730D01*
X22697134Y-77670727D01*
X22693977Y-77666219D01*
X22536781Y-77509023D01*
X22532273Y-77505866D01*
X22532270Y-77505864D01*
X22456505Y-77452813D01*
X22354677Y-77381512D01*
X22349695Y-77379189D01*
X22349690Y-77379186D01*
X22158178Y-77289883D01*
X22158177Y-77289882D01*
X22153196Y-77287560D01*
X22147888Y-77286138D01*
X22147886Y-77286137D01*
X22082051Y-77268497D01*
X21938463Y-77230022D01*
X21717000Y-77210647D01*
X21495537Y-77230022D01*
X21351949Y-77268497D01*
X21286114Y-77286137D01*
X21286112Y-77286138D01*
X21280804Y-77287560D01*
X21275823Y-77289882D01*
X21275822Y-77289883D01*
X21084311Y-77379186D01*
X21084306Y-77379189D01*
X21079324Y-77381512D01*
X21074817Y-77384668D01*
X21074815Y-77384669D01*
X20901730Y-77505864D01*
X20901727Y-77505866D01*
X20897219Y-77509023D01*
X20740023Y-77666219D01*
X20736866Y-77670727D01*
X20736864Y-77670730D01*
X20615669Y-77843815D01*
X20612512Y-77848324D01*
X20610189Y-77853306D01*
X20610186Y-77853311D01*
X20561195Y-77958373D01*
X20514277Y-78011658D01*
X20446000Y-78031119D01*
X20378040Y-78010577D01*
X20332805Y-77958373D01*
X20283814Y-77853311D01*
X20283811Y-77853306D01*
X20281488Y-77848324D01*
X20278331Y-77843815D01*
X20157136Y-77670730D01*
X20157134Y-77670727D01*
X20153977Y-77666219D01*
X19996781Y-77509023D01*
X19992273Y-77505866D01*
X19992270Y-77505864D01*
X19916505Y-77452813D01*
X19814677Y-77381512D01*
X19809695Y-77379189D01*
X19809690Y-77379186D01*
X19618178Y-77289883D01*
X19618177Y-77289882D01*
X19613196Y-77287560D01*
X19607888Y-77286138D01*
X19607886Y-77286137D01*
X19542051Y-77268497D01*
X19398463Y-77230022D01*
X19177000Y-77210647D01*
X18955537Y-77230022D01*
X18811949Y-77268497D01*
X18746114Y-77286137D01*
X18746112Y-77286138D01*
X18740804Y-77287560D01*
X18735823Y-77289882D01*
X18735822Y-77289883D01*
X18544311Y-77379186D01*
X18544306Y-77379189D01*
X18539324Y-77381512D01*
X18534817Y-77384668D01*
X18534815Y-77384669D01*
X18361730Y-77505864D01*
X18361727Y-77505866D01*
X18357219Y-77509023D01*
X18200023Y-77666219D01*
X18196866Y-77670727D01*
X18196864Y-77670730D01*
X18075669Y-77843815D01*
X18072512Y-77848324D01*
X18070189Y-77853306D01*
X18070186Y-77853311D01*
X18021195Y-77958373D01*
X17978560Y-78049804D01*
X17921022Y-78264537D01*
X17901647Y-78486000D01*
X17921022Y-78707463D01*
X17978560Y-78922196D01*
X17980882Y-78927177D01*
X17980883Y-78927178D01*
X18070186Y-79118689D01*
X18070189Y-79118694D01*
X18072512Y-79123676D01*
X18075668Y-79128183D01*
X18075669Y-79128185D01*
X18112107Y-79180223D01*
X18200023Y-79305781D01*
X18357219Y-79462977D01*
X18361727Y-79466134D01*
X18361730Y-79466136D01*
X18437495Y-79519187D01*
X18539323Y-79590488D01*
X18544305Y-79592811D01*
X18544310Y-79592814D01*
X18686256Y-79659004D01*
X18740804Y-79684440D01*
X18746112Y-79685862D01*
X18746114Y-79685863D01*
X18811949Y-79703503D01*
X18955537Y-79741978D01*
X19177000Y-79761353D01*
X19398463Y-79741978D01*
X19542051Y-79703503D01*
X19607886Y-79685863D01*
X19607888Y-79685862D01*
X19613196Y-79684440D01*
X19667744Y-79659004D01*
X19809690Y-79592814D01*
X19809695Y-79592811D01*
X19814677Y-79590488D01*
X19916505Y-79519187D01*
X19992270Y-79466136D01*
X19992273Y-79466134D01*
X19996781Y-79462977D01*
X20153977Y-79305781D01*
X20241894Y-79180223D01*
X20278331Y-79128185D01*
X20278332Y-79128183D01*
X20281488Y-79123676D01*
X20283811Y-79118694D01*
X20283814Y-79118689D01*
X20332805Y-79013627D01*
X20379723Y-78960342D01*
X20448000Y-78940881D01*
X20515960Y-78961423D01*
X20561195Y-79013627D01*
X20610186Y-79118689D01*
X20610189Y-79118694D01*
X20612512Y-79123676D01*
X20615668Y-79128183D01*
X20615669Y-79128185D01*
X20652107Y-79180223D01*
X20740023Y-79305781D01*
X20897219Y-79462977D01*
X20901727Y-79466134D01*
X20901730Y-79466136D01*
X20977495Y-79519187D01*
X21079323Y-79590488D01*
X21084305Y-79592811D01*
X21084310Y-79592814D01*
X21226256Y-79659004D01*
X21280804Y-79684440D01*
X21286112Y-79685862D01*
X21286114Y-79685863D01*
X21351949Y-79703503D01*
X21495537Y-79741978D01*
X21717000Y-79761353D01*
X21938463Y-79741978D01*
X22082051Y-79703503D01*
X22147886Y-79685863D01*
X22147888Y-79685862D01*
X22153196Y-79684440D01*
X22207744Y-79659004D01*
X22349690Y-79592814D01*
X22349695Y-79592811D01*
X22354677Y-79590488D01*
X22456505Y-79519187D01*
X22532270Y-79466136D01*
X22532273Y-79466134D01*
X22536781Y-79462977D01*
X22693977Y-79305781D01*
X22781894Y-79180223D01*
X22818331Y-79128185D01*
X22818332Y-79128183D01*
X22821488Y-79123676D01*
X22823811Y-79118694D01*
X22823814Y-79118689D01*
X22872805Y-79013627D01*
X22919723Y-78960342D01*
X22988000Y-78940881D01*
X23055960Y-78961423D01*
X23101195Y-79013627D01*
X23150186Y-79118689D01*
X23150189Y-79118694D01*
X23152512Y-79123676D01*
X23155668Y-79128183D01*
X23155669Y-79128185D01*
X23192107Y-79180223D01*
X23280023Y-79305781D01*
X23437219Y-79462977D01*
X23441727Y-79466134D01*
X23441730Y-79466136D01*
X23517495Y-79519187D01*
X23619323Y-79590488D01*
X23624305Y-79592811D01*
X23624310Y-79592814D01*
X23766256Y-79659004D01*
X23820804Y-79684440D01*
X23826112Y-79685862D01*
X23826114Y-79685863D01*
X23891949Y-79703503D01*
X24035537Y-79741978D01*
X24257000Y-79761353D01*
X24478463Y-79741978D01*
X24622051Y-79703503D01*
X24687886Y-79685863D01*
X24687888Y-79685862D01*
X24693196Y-79684440D01*
X24747744Y-79659004D01*
X24889690Y-79592814D01*
X24889695Y-79592811D01*
X24894677Y-79590488D01*
X24996505Y-79519187D01*
X25072270Y-79466136D01*
X25072273Y-79466134D01*
X25076781Y-79462977D01*
X25233977Y-79305781D01*
X25321894Y-79180223D01*
X25358331Y-79128185D01*
X25358332Y-79128183D01*
X25361488Y-79123676D01*
X25363811Y-79118694D01*
X25363814Y-79118689D01*
X25412805Y-79013627D01*
X25459723Y-78960342D01*
X25528000Y-78940881D01*
X25595960Y-78961423D01*
X25641195Y-79013627D01*
X25690186Y-79118689D01*
X25690189Y-79118694D01*
X25692512Y-79123676D01*
X25695668Y-79128183D01*
X25695669Y-79128185D01*
X25732107Y-79180223D01*
X25820023Y-79305781D01*
X25977219Y-79462977D01*
X25981727Y-79466134D01*
X25981730Y-79466136D01*
X26109771Y-79555791D01*
X26154099Y-79611248D01*
X26163500Y-79659004D01*
X26163500Y-93647233D01*
X26162973Y-93658416D01*
X26161298Y-93665909D01*
X26161547Y-93673835D01*
X26161547Y-93673836D01*
X26163438Y-93733986D01*
X26163500Y-93737945D01*
X26163500Y-93765856D01*
X26163997Y-93769790D01*
X26163997Y-93769791D01*
X26164005Y-93769856D01*
X26164938Y-93781693D01*
X26166327Y-93825889D01*
X26171978Y-93845339D01*
X26175987Y-93864700D01*
X26178526Y-93884797D01*
X26181445Y-93892168D01*
X26181445Y-93892170D01*
X26194804Y-93925912D01*
X26198649Y-93937142D01*
X26210982Y-93979593D01*
X26215015Y-93986412D01*
X26215017Y-93986417D01*
X26221293Y-93997028D01*
X26229988Y-94014776D01*
X26237448Y-94033617D01*
X26242110Y-94040033D01*
X26242110Y-94040034D01*
X26263436Y-94069387D01*
X26269952Y-94079307D01*
X26292458Y-94117362D01*
X26306779Y-94131683D01*
X26319619Y-94146716D01*
X26331528Y-94163107D01*
X26337634Y-94168158D01*
X26365605Y-94191298D01*
X26374384Y-94199288D01*
X29009751Y-96834655D01*
X29043777Y-96896967D01*
X29038712Y-96967782D01*
X28996165Y-97024618D01*
X28929645Y-97049429D01*
X28920656Y-97049750D01*
X23614268Y-97049750D01*
X23603085Y-97049223D01*
X23595592Y-97047548D01*
X23587666Y-97047797D01*
X23587665Y-97047797D01*
X23527502Y-97049688D01*
X23523544Y-97049750D01*
X23495644Y-97049750D01*
X23491654Y-97050254D01*
X23479820Y-97051186D01*
X23435611Y-97052576D01*
X23427995Y-97054789D01*
X23427993Y-97054789D01*
X23416152Y-97058229D01*
X23396793Y-97062238D01*
X23395483Y-97062404D01*
X23376703Y-97064776D01*
X23369337Y-97067692D01*
X23369331Y-97067694D01*
X23335598Y-97081050D01*
X23324368Y-97084895D01*
X23289517Y-97095020D01*
X23281907Y-97097231D01*
X23275084Y-97101266D01*
X23264466Y-97107545D01*
X23246713Y-97116242D01*
X23239068Y-97119269D01*
X23227883Y-97123698D01*
X23221468Y-97128359D01*
X23192112Y-97149687D01*
X23182195Y-97156201D01*
X23144138Y-97178708D01*
X23129817Y-97193029D01*
X23114784Y-97205869D01*
X23098393Y-97217778D01*
X23072016Y-97249663D01*
X23070212Y-97251843D01*
X23062222Y-97260624D01*
X22586274Y-97736571D01*
X22523962Y-97770596D01*
X22453146Y-97765531D01*
X22424909Y-97750688D01*
X22359191Y-97704672D01*
X22359185Y-97704668D01*
X22354677Y-97701512D01*
X22349695Y-97699189D01*
X22349690Y-97699186D01*
X22158178Y-97609883D01*
X22158177Y-97609882D01*
X22153196Y-97607560D01*
X22147888Y-97606138D01*
X22147886Y-97606137D01*
X22056365Y-97581614D01*
X21938463Y-97550022D01*
X21717000Y-97530647D01*
X21495537Y-97550022D01*
X21377635Y-97581614D01*
X21286114Y-97606137D01*
X21286112Y-97606138D01*
X21280804Y-97607560D01*
X21275823Y-97609882D01*
X21275822Y-97609883D01*
X21084311Y-97699186D01*
X21084306Y-97699189D01*
X21079324Y-97701512D01*
X21074817Y-97704668D01*
X21074815Y-97704669D01*
X20901730Y-97825864D01*
X20901727Y-97825866D01*
X20897219Y-97829023D01*
X20740023Y-97986219D01*
X20736866Y-97990727D01*
X20736864Y-97990730D01*
X20626237Y-98148722D01*
X20612512Y-98168324D01*
X20610189Y-98173306D01*
X20610186Y-98173311D01*
X20561195Y-98278373D01*
X20514277Y-98331658D01*
X20446000Y-98351119D01*
X20378040Y-98330577D01*
X20332805Y-98278373D01*
X20283814Y-98173311D01*
X20283811Y-98173306D01*
X20281488Y-98168324D01*
X20267763Y-98148722D01*
X20157136Y-97990730D01*
X20157134Y-97990727D01*
X20153977Y-97986219D01*
X19996781Y-97829023D01*
X19992273Y-97825866D01*
X19992270Y-97825864D01*
X19884907Y-97750688D01*
X19814677Y-97701512D01*
X19809695Y-97699189D01*
X19809690Y-97699186D01*
X19618178Y-97609883D01*
X19618177Y-97609882D01*
X19613196Y-97607560D01*
X19607888Y-97606138D01*
X19607886Y-97606137D01*
X19516365Y-97581614D01*
X19398463Y-97550022D01*
X19177000Y-97530647D01*
X18955537Y-97550022D01*
X18837635Y-97581614D01*
X18746114Y-97606137D01*
X18746112Y-97606138D01*
X18740804Y-97607560D01*
X18735823Y-97609882D01*
X18735822Y-97609883D01*
X18544311Y-97699186D01*
X18544306Y-97699189D01*
X18539324Y-97701512D01*
X18534817Y-97704668D01*
X18534815Y-97704669D01*
X18361730Y-97825864D01*
X18361727Y-97825866D01*
X18357219Y-97829023D01*
X18200023Y-97986219D01*
X18196866Y-97990727D01*
X18196864Y-97990730D01*
X18086237Y-98148722D01*
X18072512Y-98168324D01*
X18070189Y-98173306D01*
X18070186Y-98173311D01*
X17986826Y-98352078D01*
X17978560Y-98369804D01*
X17977138Y-98375112D01*
X17977137Y-98375114D01*
X17969294Y-98404385D01*
X17921022Y-98584537D01*
X17901647Y-98806000D01*
X13208000Y-98806000D01*
X13208000Y-76534000D01*
X13228002Y-76465879D01*
X13281658Y-76419386D01*
X13334000Y-76408000D01*
X77066000Y-76408000D01*
X77134121Y-76428002D01*
G37*
%TD.AperFunction*%
%TA.AperFunction,Conductor*%
G36*
X32582026Y-105206144D02*
G01*
X32609875Y-105237994D01*
X32669987Y-105336088D01*
X32816250Y-105504938D01*
X32988126Y-105647632D01*
X32995567Y-105651980D01*
X33061445Y-105690476D01*
X33110169Y-105742114D01*
X33123240Y-105811897D01*
X33096509Y-105877669D01*
X33056055Y-105911027D01*
X33043607Y-105917507D01*
X33039474Y-105920610D01*
X33039471Y-105920612D01*
X32885998Y-106035843D01*
X32864965Y-106051635D01*
X32861393Y-106055373D01*
X32720349Y-106202967D01*
X32710629Y-106213138D01*
X32603204Y-106370618D01*
X32602898Y-106371066D01*
X32547987Y-106416069D01*
X32477462Y-106424240D01*
X32413715Y-106392986D01*
X32393017Y-106368501D01*
X32363062Y-106322197D01*
X32352377Y-106312995D01*
X32342812Y-106317398D01*
X31602022Y-107058188D01*
X31594408Y-107072132D01*
X31594539Y-107073965D01*
X31598790Y-107080580D01*
X32340474Y-107822264D01*
X32352484Y-107828823D01*
X32364223Y-107819855D01*
X32398022Y-107772819D01*
X32399277Y-107773721D01*
X32446391Y-107730355D01*
X32516330Y-107718148D01*
X32581767Y-107745691D01*
X32609580Y-107777513D01*
X32667287Y-107871683D01*
X32667291Y-107871688D01*
X32669987Y-107876088D01*
X32816250Y-108044938D01*
X32988126Y-108187632D01*
X33181000Y-108300338D01*
X33389692Y-108380030D01*
X33394760Y-108381061D01*
X33394763Y-108381062D01*
X33499604Y-108402392D01*
X33608597Y-108424567D01*
X33613772Y-108424757D01*
X33613774Y-108424757D01*
X33826673Y-108432564D01*
X33826677Y-108432564D01*
X33831837Y-108432753D01*
X33836957Y-108432097D01*
X33836959Y-108432097D01*
X34048288Y-108405025D01*
X34048289Y-108405025D01*
X34053416Y-108404368D01*
X34058366Y-108402883D01*
X34262429Y-108341661D01*
X34262434Y-108341659D01*
X34267384Y-108340174D01*
X34467994Y-108241896D01*
X34649860Y-108112173D01*
X34808096Y-107954489D01*
X34938453Y-107773077D01*
X34939776Y-107774028D01*
X34986645Y-107730857D01*
X35056580Y-107718625D01*
X35122026Y-107746144D01*
X35149875Y-107777994D01*
X35209987Y-107876088D01*
X35356250Y-108044938D01*
X35528126Y-108187632D01*
X35721000Y-108300338D01*
X35929692Y-108380030D01*
X35934760Y-108381061D01*
X35934763Y-108381062D01*
X36039604Y-108402392D01*
X36148597Y-108424567D01*
X36153772Y-108424757D01*
X36153774Y-108424757D01*
X36366673Y-108432564D01*
X36366677Y-108432564D01*
X36371837Y-108432753D01*
X36376957Y-108432097D01*
X36376959Y-108432097D01*
X36588288Y-108405025D01*
X36588289Y-108405025D01*
X36593416Y-108404368D01*
X36598366Y-108402883D01*
X36802429Y-108341661D01*
X36802434Y-108341659D01*
X36807384Y-108340174D01*
X37007994Y-108241896D01*
X37189860Y-108112173D01*
X37348096Y-107954489D01*
X37478453Y-107773077D01*
X37479776Y-107774028D01*
X37526645Y-107730857D01*
X37596580Y-107718625D01*
X37662026Y-107746144D01*
X37689875Y-107777994D01*
X37749987Y-107876088D01*
X37896250Y-108044938D01*
X38068126Y-108187632D01*
X38261000Y-108300338D01*
X38469692Y-108380030D01*
X38474760Y-108381061D01*
X38474763Y-108381062D01*
X38579604Y-108402392D01*
X38688597Y-108424567D01*
X38693771Y-108424757D01*
X38693773Y-108424757D01*
X38761293Y-108427233D01*
X38835649Y-108429959D01*
X38902990Y-108452443D01*
X38947486Y-108507767D01*
X38955008Y-108578364D01*
X38920126Y-108644969D01*
X37960500Y-109604595D01*
X37898188Y-109638621D01*
X37871405Y-109641500D01*
X24588595Y-109641500D01*
X24520474Y-109621498D01*
X24499500Y-109604595D01*
X23541318Y-108646413D01*
X23507292Y-108584101D01*
X23512357Y-108513286D01*
X23554904Y-108456450D01*
X23621424Y-108431639D01*
X23635024Y-108431403D01*
X23651698Y-108432015D01*
X23666674Y-108432564D01*
X23666678Y-108432564D01*
X23671837Y-108432753D01*
X23676957Y-108432097D01*
X23676959Y-108432097D01*
X23888288Y-108405025D01*
X23888289Y-108405025D01*
X23893416Y-108404368D01*
X23898366Y-108402883D01*
X24102429Y-108341661D01*
X24102434Y-108341659D01*
X24107384Y-108340174D01*
X24307994Y-108241896D01*
X24489860Y-108112173D01*
X24648096Y-107954489D01*
X24778453Y-107773077D01*
X24779776Y-107774028D01*
X24826645Y-107730857D01*
X24896580Y-107718625D01*
X24962026Y-107746144D01*
X24989875Y-107777994D01*
X25049987Y-107876088D01*
X25196250Y-108044938D01*
X25368126Y-108187632D01*
X25561000Y-108300338D01*
X25769692Y-108380030D01*
X25774760Y-108381061D01*
X25774763Y-108381062D01*
X25879604Y-108402392D01*
X25988597Y-108424567D01*
X25993772Y-108424757D01*
X25993774Y-108424757D01*
X26206673Y-108432564D01*
X26206677Y-108432564D01*
X26211837Y-108432753D01*
X26216957Y-108432097D01*
X26216959Y-108432097D01*
X26428288Y-108405025D01*
X26428289Y-108405025D01*
X26433416Y-108404368D01*
X26438366Y-108402883D01*
X26642429Y-108341661D01*
X26642434Y-108341659D01*
X26647384Y-108340174D01*
X26847994Y-108241896D01*
X27029860Y-108112173D01*
X27188096Y-107954489D01*
X27318453Y-107773077D01*
X27319776Y-107774028D01*
X27366645Y-107730857D01*
X27436580Y-107718625D01*
X27502026Y-107746144D01*
X27529875Y-107777994D01*
X27589987Y-107876088D01*
X27736250Y-108044938D01*
X27908126Y-108187632D01*
X28101000Y-108300338D01*
X28309692Y-108380030D01*
X28314760Y-108381061D01*
X28314763Y-108381062D01*
X28419604Y-108402392D01*
X28528597Y-108424567D01*
X28533772Y-108424757D01*
X28533774Y-108424757D01*
X28746673Y-108432564D01*
X28746677Y-108432564D01*
X28751837Y-108432753D01*
X28756957Y-108432097D01*
X28756959Y-108432097D01*
X28968288Y-108405025D01*
X28968289Y-108405025D01*
X28973416Y-108404368D01*
X28978366Y-108402883D01*
X29182429Y-108341661D01*
X29182434Y-108341659D01*
X29187384Y-108340174D01*
X29387994Y-108241896D01*
X29452544Y-108195853D01*
X30469977Y-108195853D01*
X30475258Y-108202907D01*
X30636756Y-108297279D01*
X30646042Y-108301729D01*
X30845001Y-108377703D01*
X30854899Y-108380579D01*
X31063595Y-108423038D01*
X31073823Y-108424257D01*
X31286650Y-108432062D01*
X31296936Y-108431595D01*
X31508185Y-108404534D01*
X31518262Y-108402392D01*
X31722255Y-108341191D01*
X31731842Y-108337433D01*
X31923098Y-108243738D01*
X31931944Y-108238465D01*
X31979247Y-108204723D01*
X31987648Y-108194023D01*
X31980660Y-108180870D01*
X31242812Y-107443022D01*
X31228868Y-107435408D01*
X31227035Y-107435539D01*
X31220420Y-107439790D01*
X30476737Y-108183473D01*
X30469977Y-108195853D01*
X29452544Y-108195853D01*
X29569860Y-108112173D01*
X29728096Y-107954489D01*
X29858453Y-107773077D01*
X29859640Y-107773930D01*
X29906960Y-107730362D01*
X29976897Y-107718145D01*
X30042338Y-107745678D01*
X30070166Y-107777512D01*
X30096459Y-107820419D01*
X30106916Y-107829880D01*
X30115694Y-107826096D01*
X30857978Y-107083812D01*
X30865592Y-107069868D01*
X30865461Y-107068035D01*
X30861210Y-107061420D01*
X30119849Y-106320059D01*
X30108313Y-106313759D01*
X30096031Y-106323382D01*
X30063499Y-106371072D01*
X30008587Y-106416075D01*
X29938063Y-106424246D01*
X29874316Y-106392992D01*
X29853618Y-106368508D01*
X29772822Y-106243617D01*
X29772820Y-106243614D01*
X29770014Y-106239277D01*
X29619670Y-106074051D01*
X29615619Y-106070852D01*
X29615615Y-106070848D01*
X29448414Y-105938800D01*
X29448410Y-105938798D01*
X29444359Y-105935598D01*
X29403053Y-105912796D01*
X29353084Y-105862364D01*
X29338312Y-105792921D01*
X29363428Y-105726516D01*
X29390780Y-105699909D01*
X29457974Y-105651980D01*
X29569860Y-105572173D01*
X29728096Y-105414489D01*
X29858453Y-105233077D01*
X29859776Y-105234028D01*
X29906645Y-105190857D01*
X29976580Y-105178625D01*
X30042026Y-105206144D01*
X30069875Y-105237994D01*
X30129987Y-105336088D01*
X30276250Y-105504938D01*
X30448126Y-105647632D01*
X30455567Y-105651980D01*
X30521955Y-105690774D01*
X30570679Y-105742412D01*
X30583750Y-105812195D01*
X30557019Y-105877967D01*
X30516562Y-105911327D01*
X30508460Y-105915544D01*
X30499734Y-105921039D01*
X30479677Y-105936099D01*
X30471223Y-105947427D01*
X30477968Y-105959758D01*
X31217188Y-106698978D01*
X31231132Y-106706592D01*
X31232965Y-106706461D01*
X31239580Y-106702210D01*
X31983389Y-105958401D01*
X31990410Y-105945544D01*
X31983611Y-105936213D01*
X31979559Y-105933521D01*
X31942602Y-105913120D01*
X31892631Y-105862687D01*
X31877859Y-105793245D01*
X31902975Y-105726839D01*
X31930327Y-105700232D01*
X31997974Y-105651980D01*
X32109860Y-105572173D01*
X32268096Y-105414489D01*
X32398453Y-105233077D01*
X32399776Y-105234028D01*
X32446645Y-105190857D01*
X32516580Y-105178625D01*
X32582026Y-105206144D01*
G37*
%TD.AperFunction*%
%TA.AperFunction,Conductor*%
G36*
X23782599Y-99986625D02*
G01*
X23820804Y-100004440D01*
X23826112Y-100005862D01*
X23826114Y-100005863D01*
X23891949Y-100023503D01*
X24035537Y-100061978D01*
X24257000Y-100081353D01*
X24478463Y-100061978D01*
X24494642Y-100057643D01*
X24517516Y-100051514D01*
X24588493Y-100053204D01*
X24639222Y-100084126D01*
X26845084Y-102289988D01*
X26879110Y-102352300D01*
X26881989Y-102379083D01*
X26881989Y-103171726D01*
X26861987Y-103239847D01*
X26808331Y-103286340D01*
X26738057Y-103296444D01*
X26708651Y-103287904D01*
X26708583Y-103288096D01*
X26705268Y-103286922D01*
X26704331Y-103286650D01*
X26703705Y-103286369D01*
X26502959Y-103215280D01*
X26492989Y-103212646D01*
X26283327Y-103175301D01*
X26273073Y-103174331D01*
X26060116Y-103171728D01*
X26049832Y-103172448D01*
X25839321Y-103204661D01*
X25829293Y-103207050D01*
X25626868Y-103273212D01*
X25617359Y-103277209D01*
X25428466Y-103375540D01*
X25419734Y-103381039D01*
X25399677Y-103396099D01*
X25391223Y-103407427D01*
X25397968Y-103419758D01*
X26420115Y-104441905D01*
X26454141Y-104504217D01*
X26449076Y-104575032D01*
X26420115Y-104620095D01*
X25396737Y-105643473D01*
X25389977Y-105655853D01*
X25395258Y-105662907D01*
X25441969Y-105690203D01*
X25490693Y-105741841D01*
X25503764Y-105811624D01*
X25477033Y-105877396D01*
X25436584Y-105910752D01*
X25423607Y-105917507D01*
X25419474Y-105920610D01*
X25419471Y-105920612D01*
X25265998Y-106035843D01*
X25244965Y-106051635D01*
X25241393Y-106055373D01*
X25100349Y-106202967D01*
X25090629Y-106213138D01*
X24983201Y-106370621D01*
X24928293Y-106415621D01*
X24857768Y-106423792D01*
X24794021Y-106392538D01*
X24773324Y-106368054D01*
X24692822Y-106243617D01*
X24692820Y-106243614D01*
X24690014Y-106239277D01*
X24539670Y-106074051D01*
X24535619Y-106070852D01*
X24535615Y-106070848D01*
X24368414Y-105938800D01*
X24368410Y-105938798D01*
X24364359Y-105935598D01*
X24323053Y-105912796D01*
X24273084Y-105862364D01*
X24258312Y-105792921D01*
X24283428Y-105726516D01*
X24310780Y-105699909D01*
X24377974Y-105651980D01*
X24489860Y-105572173D01*
X24648096Y-105414489D01*
X24778453Y-105233077D01*
X24779640Y-105233930D01*
X24826960Y-105190362D01*
X24896897Y-105178145D01*
X24962338Y-105205678D01*
X24990166Y-105237512D01*
X25016459Y-105280419D01*
X25026916Y-105289880D01*
X25035694Y-105286096D01*
X25777978Y-104543812D01*
X25785592Y-104529868D01*
X25785461Y-104528035D01*
X25781210Y-104521420D01*
X25039849Y-103780059D01*
X25028313Y-103773759D01*
X25016031Y-103783382D01*
X24983499Y-103831072D01*
X24928587Y-103876075D01*
X24858063Y-103884246D01*
X24794316Y-103852992D01*
X24773618Y-103828508D01*
X24692822Y-103703617D01*
X24692820Y-103703614D01*
X24690014Y-103699277D01*
X24539670Y-103534051D01*
X24535619Y-103530852D01*
X24535615Y-103530848D01*
X24368414Y-103398800D01*
X24368410Y-103398798D01*
X24364359Y-103395598D01*
X24168789Y-103287638D01*
X24163920Y-103285914D01*
X24163916Y-103285912D01*
X23963087Y-103214795D01*
X23963083Y-103214794D01*
X23958212Y-103213069D01*
X23953119Y-103212162D01*
X23953116Y-103212161D01*
X23743373Y-103174800D01*
X23743367Y-103174799D01*
X23738284Y-103173894D01*
X23664452Y-103172992D01*
X23520081Y-103171228D01*
X23520079Y-103171228D01*
X23514911Y-103171165D01*
X23294091Y-103204955D01*
X23081756Y-103274357D01*
X23047013Y-103292443D01*
X22939677Y-103348319D01*
X22883607Y-103377507D01*
X22879474Y-103380610D01*
X22879471Y-103380612D01*
X22709100Y-103508530D01*
X22704965Y-103511635D01*
X22550629Y-103673138D01*
X22443201Y-103830621D01*
X22388293Y-103875621D01*
X22317768Y-103883792D01*
X22254021Y-103852538D01*
X22233324Y-103828054D01*
X22152822Y-103703617D01*
X22152820Y-103703614D01*
X22150014Y-103699277D01*
X21999670Y-103534051D01*
X21995619Y-103530852D01*
X21995615Y-103530848D01*
X21828414Y-103398800D01*
X21828410Y-103398798D01*
X21824359Y-103395598D01*
X21628789Y-103287638D01*
X21623920Y-103285914D01*
X21623916Y-103285912D01*
X21423087Y-103214795D01*
X21423083Y-103214794D01*
X21418212Y-103213069D01*
X21413119Y-103212162D01*
X21413116Y-103212161D01*
X21203373Y-103174800D01*
X21203367Y-103174799D01*
X21198284Y-103173894D01*
X21119365Y-103172930D01*
X21051495Y-103152097D01*
X21005661Y-103097877D01*
X20996416Y-103027485D01*
X21026695Y-102963270D01*
X21031810Y-102957844D01*
X22083963Y-101905692D01*
X23361003Y-100628652D01*
X23369289Y-100621112D01*
X23375768Y-100617000D01*
X23422394Y-100567348D01*
X23425148Y-100564507D01*
X23444885Y-100544770D01*
X23447365Y-100541573D01*
X23455070Y-100532551D01*
X23479909Y-100506100D01*
X23485336Y-100500321D01*
X23489155Y-100493375D01*
X23489157Y-100493372D01*
X23495098Y-100482566D01*
X23505949Y-100466047D01*
X23513508Y-100456301D01*
X23518364Y-100450041D01*
X23521509Y-100442772D01*
X23521512Y-100442768D01*
X23535924Y-100409463D01*
X23541141Y-100398813D01*
X23562445Y-100360060D01*
X23567483Y-100340437D01*
X23573887Y-100321734D01*
X23578783Y-100310420D01*
X23578783Y-100310419D01*
X23581931Y-100303145D01*
X23583170Y-100295322D01*
X23583173Y-100295312D01*
X23588849Y-100259476D01*
X23591255Y-100247856D01*
X23600278Y-100212711D01*
X23600278Y-100212710D01*
X23602250Y-100205030D01*
X23602250Y-100184776D01*
X23603801Y-100165065D01*
X23605730Y-100152886D01*
X23606970Y-100145057D01*
X23603909Y-100112678D01*
X23617411Y-100042978D01*
X23666453Y-99991641D01*
X23735464Y-99974968D01*
X23782599Y-99986625D01*
G37*
%TD.AperFunction*%
%TD*%
M02*
