M48
; DRILL file {KiCad (6.0.1)} date Mon Feb  7 11:40:33 2022
; FORMAT={-:-/ absolute / inch / decimal}
; #@! TF.CreationDate,2022-02-07T11:40:33-06:00
; #@! TF.GenerationSoftware,Kicad,Pcbnew,(6.0.1)
; #@! TF.FileFunction,Plated,1,2,PTH
FMAT,2
INCH
; #@! TA.AperFunction,Plated,PTH,ViaDrill
T1C0.0157
; #@! TA.AperFunction,Plated,PTH,ComponentDrill
T2C0.0360
; #@! TA.AperFunction,Plated,PTH,ComponentDrill
T3C0.0394
; #@! TA.AperFunction,Plated,PTH,ComponentDrill
T4C0.0400
%
G90
G05
T1
X1.8086Y-3.9751
X2.2494Y-3.549
T2
X0.755Y-3.09
X0.755Y-3.89
X0.855Y-3.09
X0.855Y-3.89
X0.925Y-4.4147
X0.955Y-3.09
X0.955Y-3.89
X1.025Y-4.4147
X1.055Y-3.09
X1.055Y-3.89
X1.125Y-4.4147
X1.155Y-3.09
X1.155Y-3.89
X1.225Y-4.4147
X1.255Y-3.09
X1.255Y-3.89
X1.325Y-4.4147
X1.425Y-4.4147
X1.525Y-4.4147
X1.625Y-4.4147
X2.035Y-4.395
X2.035Y-4.895
X2.135Y-4.395
X2.135Y-4.895
X2.235Y-4.395
X2.235Y-4.895
X2.335Y-4.395
X2.335Y-4.895
X2.435Y-4.395
X2.435Y-4.895
X2.535Y-4.395
X2.535Y-4.895
T3
X0.8295Y-4.1154
X0.8295Y-4.2154
X0.9295Y-4.1154
X0.9295Y-4.2154
X1.0295Y-4.1154
X1.0295Y-4.2154
X1.1295Y-4.1154
X1.1295Y-4.2154
X1.2295Y-4.1154
X1.2295Y-4.2154
X1.3295Y-4.1154
X1.3295Y-4.2154
X1.4295Y-4.1154
X1.4295Y-4.2154
X1.5295Y-4.1154
X1.5295Y-4.2154
X1.6295Y-4.1154
X1.6295Y-4.2154
X1.7295Y-4.1154
X1.7295Y-4.2154
X1.8295Y-4.1154
X1.8295Y-4.2154
X1.9295Y-4.1154
X1.9295Y-4.2154
X2.0295Y-4.1154
X2.0295Y-4.2154
X2.1295Y-4.1154
X2.1295Y-4.2154
X2.2295Y-4.1154
X2.2295Y-4.2154
X2.3295Y-4.1154
X2.3295Y-4.2154
X2.4295Y-4.1154
X2.4295Y-4.2154
X2.5295Y-4.1154
X2.5295Y-4.2154
X2.6295Y-4.1154
X2.6295Y-4.2154
X2.7295Y-4.1154
X2.7295Y-4.2154
T4
X2.1494Y-3.7054
X2.1494Y-3.8054
X2.1494Y-3.9054
X2.2494Y-3.7054
X2.2494Y-3.8054
X2.2494Y-3.9054
X2.7034Y-3.7054
X2.7034Y-3.8054
X2.7034Y-3.9054
X2.8034Y-3.7054
X2.8034Y-3.8054
X2.8034Y-3.9054
T0
M30
