%TF.GenerationSoftware,KiCad,Pcbnew,(6.0.1)*%
%TF.CreationDate,2022-01-30T17:08:52-06:00*%
%TF.ProjectId,BlackBox Hat,426c6163-6b42-46f7-9820-4861742e6b69,rev?*%
%TF.SameCoordinates,Original*%
%TF.FileFunction,Legend,Top*%
%TF.FilePolarity,Positive*%
%FSLAX46Y46*%
G04 Gerber Fmt 4.6, Leading zero omitted, Abs format (unit mm)*
G04 Created by KiCad (PCBNEW (6.0.1)) date 2022-01-30 17:08:52*
%MOMM*%
%LPD*%
G01*
G04 APERTURE LIST*
%ADD10C,0.500000*%
%ADD11C,0.152000*%
%ADD12C,0.150000*%
%ADD13C,0.203000*%
%ADD14C,0.254000*%
%ADD15C,0.400000*%
%ADD16C,0.201000*%
G04 APERTURE END LIST*
D10*
X15820535Y-82401964D02*
X16249107Y-82544821D01*
X16391964Y-82687678D01*
X16534821Y-82973392D01*
X16534821Y-83401964D01*
X16391964Y-83687678D01*
X16249107Y-83830535D01*
X15963392Y-83973392D01*
X14820535Y-83973392D01*
X14820535Y-80973392D01*
X15820535Y-80973392D01*
X16106250Y-81116250D01*
X16249107Y-81259107D01*
X16391964Y-81544821D01*
X16391964Y-81830535D01*
X16249107Y-82116250D01*
X16106250Y-82259107D01*
X15820535Y-82401964D01*
X14820535Y-82401964D01*
X18249107Y-83973392D02*
X17963392Y-83830535D01*
X17820535Y-83544821D01*
X17820535Y-80973392D01*
X20677678Y-83973392D02*
X20677678Y-82401964D01*
X20534821Y-82116250D01*
X20249107Y-81973392D01*
X19677678Y-81973392D01*
X19391964Y-82116250D01*
X20677678Y-83830535D02*
X20391964Y-83973392D01*
X19677678Y-83973392D01*
X19391964Y-83830535D01*
X19249107Y-83544821D01*
X19249107Y-83259107D01*
X19391964Y-82973392D01*
X19677678Y-82830535D01*
X20391964Y-82830535D01*
X20677678Y-82687678D01*
X23391964Y-83830535D02*
X23106250Y-83973392D01*
X22534821Y-83973392D01*
X22249107Y-83830535D01*
X22106250Y-83687678D01*
X21963392Y-83401964D01*
X21963392Y-82544821D01*
X22106250Y-82259107D01*
X22249107Y-82116250D01*
X22534821Y-81973392D01*
X23106250Y-81973392D01*
X23391964Y-82116250D01*
X24677678Y-83973392D02*
X24677678Y-80973392D01*
X24963392Y-82830535D02*
X25820535Y-83973392D01*
X25820535Y-81973392D02*
X24677678Y-83116250D01*
X30391964Y-82401964D02*
X30820535Y-82544821D01*
X30963392Y-82687678D01*
X31106250Y-82973392D01*
X31106250Y-83401964D01*
X30963392Y-83687678D01*
X30820535Y-83830535D01*
X30534821Y-83973392D01*
X29391964Y-83973392D01*
X29391964Y-80973392D01*
X30391964Y-80973392D01*
X30677678Y-81116250D01*
X30820535Y-81259107D01*
X30963392Y-81544821D01*
X30963392Y-81830535D01*
X30820535Y-82116250D01*
X30677678Y-82259107D01*
X30391964Y-82401964D01*
X29391964Y-82401964D01*
X32820535Y-83973392D02*
X32534821Y-83830535D01*
X32391964Y-83687678D01*
X32249107Y-83401964D01*
X32249107Y-82544821D01*
X32391964Y-82259107D01*
X32534821Y-82116250D01*
X32820535Y-81973392D01*
X33249107Y-81973392D01*
X33534821Y-82116250D01*
X33677678Y-82259107D01*
X33820535Y-82544821D01*
X33820535Y-83401964D01*
X33677678Y-83687678D01*
X33534821Y-83830535D01*
X33249107Y-83973392D01*
X32820535Y-83973392D01*
X34820535Y-83973392D02*
X36391964Y-81973392D01*
X34820535Y-81973392D02*
X36391964Y-83973392D01*
X40820535Y-82401964D02*
X39820535Y-82401964D01*
X39820535Y-83973392D02*
X39820535Y-80973392D01*
X41249107Y-80973392D01*
X42391964Y-83973392D02*
X42391964Y-81973392D01*
X42391964Y-80973392D02*
X42249107Y-81116250D01*
X42391964Y-81259107D01*
X42534821Y-81116250D01*
X42391964Y-80973392D01*
X42391964Y-81259107D01*
X43534821Y-81973392D02*
X44249107Y-83973392D01*
X44963392Y-81973392D01*
X47249107Y-83830535D02*
X46963392Y-83973392D01*
X46391964Y-83973392D01*
X46106250Y-83830535D01*
X45963392Y-83544821D01*
X45963392Y-82401964D01*
X46106250Y-82116250D01*
X46391964Y-81973392D01*
X46963392Y-81973392D01*
X47249107Y-82116250D01*
X47391964Y-82401964D01*
X47391964Y-82687678D01*
X45963392Y-82973392D01*
X15820535Y-87231964D02*
X16249107Y-87374821D01*
X16391964Y-87517678D01*
X16534821Y-87803392D01*
X16534821Y-88231964D01*
X16391964Y-88517678D01*
X16249107Y-88660535D01*
X15963392Y-88803392D01*
X14820535Y-88803392D01*
X14820535Y-85803392D01*
X15820535Y-85803392D01*
X16106250Y-85946250D01*
X16249107Y-86089107D01*
X16391964Y-86374821D01*
X16391964Y-86660535D01*
X16249107Y-86946250D01*
X16106250Y-87089107D01*
X15820535Y-87231964D01*
X14820535Y-87231964D01*
X18249107Y-88803392D02*
X17963392Y-88660535D01*
X17820535Y-88374821D01*
X17820535Y-85803392D01*
X20677678Y-88803392D02*
X20677678Y-87231964D01*
X20534821Y-86946250D01*
X20249107Y-86803392D01*
X19677678Y-86803392D01*
X19391964Y-86946250D01*
X20677678Y-88660535D02*
X20391964Y-88803392D01*
X19677678Y-88803392D01*
X19391964Y-88660535D01*
X19249107Y-88374821D01*
X19249107Y-88089107D01*
X19391964Y-87803392D01*
X19677678Y-87660535D01*
X20391964Y-87660535D01*
X20677678Y-87517678D01*
X23391964Y-88660535D02*
X23106250Y-88803392D01*
X22534821Y-88803392D01*
X22249107Y-88660535D01*
X22106250Y-88517678D01*
X21963392Y-88231964D01*
X21963392Y-87374821D01*
X22106250Y-87089107D01*
X22249107Y-86946250D01*
X22534821Y-86803392D01*
X23106250Y-86803392D01*
X23391964Y-86946250D01*
X24677678Y-88803392D02*
X24677678Y-85803392D01*
X24963392Y-87660535D02*
X25820535Y-88803392D01*
X25820535Y-86803392D02*
X24677678Y-87946250D01*
X30391964Y-87231964D02*
X30820535Y-87374821D01*
X30963392Y-87517678D01*
X31106250Y-87803392D01*
X31106250Y-88231964D01*
X30963392Y-88517678D01*
X30820535Y-88660535D01*
X30534821Y-88803392D01*
X29391964Y-88803392D01*
X29391964Y-85803392D01*
X30391964Y-85803392D01*
X30677678Y-85946250D01*
X30820535Y-86089107D01*
X30963392Y-86374821D01*
X30963392Y-86660535D01*
X30820535Y-86946250D01*
X30677678Y-87089107D01*
X30391964Y-87231964D01*
X29391964Y-87231964D01*
X32820535Y-88803392D02*
X32534821Y-88660535D01*
X32391964Y-88517678D01*
X32249107Y-88231964D01*
X32249107Y-87374821D01*
X32391964Y-87089107D01*
X32534821Y-86946250D01*
X32820535Y-86803392D01*
X33249107Y-86803392D01*
X33534821Y-86946250D01*
X33677678Y-87089107D01*
X33820535Y-87374821D01*
X33820535Y-88231964D01*
X33677678Y-88517678D01*
X33534821Y-88660535D01*
X33249107Y-88803392D01*
X32820535Y-88803392D01*
X34820535Y-88803392D02*
X36391964Y-86803392D01*
X34820535Y-86803392D02*
X36391964Y-88803392D01*
X39820535Y-88803392D02*
X39820535Y-85803392D01*
X40963392Y-85803392D01*
X41249107Y-85946250D01*
X41391964Y-86089107D01*
X41534821Y-86374821D01*
X41534821Y-86803392D01*
X41391964Y-87089107D01*
X41249107Y-87231964D01*
X40963392Y-87374821D01*
X39820535Y-87374821D01*
X42820535Y-88803392D02*
X42820535Y-86803392D01*
X42820535Y-85803392D02*
X42677678Y-85946250D01*
X42820535Y-86089107D01*
X42963392Y-85946250D01*
X42820535Y-85803392D01*
X42820535Y-86089107D01*
X46534821Y-88803392D02*
X46534821Y-85803392D01*
X46534821Y-87231964D02*
X48249107Y-87231964D01*
X48249107Y-88803392D02*
X48249107Y-85803392D01*
X50963392Y-88803392D02*
X50963392Y-87231964D01*
X50820535Y-86946250D01*
X50534821Y-86803392D01*
X49963392Y-86803392D01*
X49677678Y-86946250D01*
X50963392Y-88660535D02*
X50677678Y-88803392D01*
X49963392Y-88803392D01*
X49677678Y-88660535D01*
X49534821Y-88374821D01*
X49534821Y-88089107D01*
X49677678Y-87803392D01*
X49963392Y-87660535D01*
X50677678Y-87660535D01*
X50963392Y-87517678D01*
X51963392Y-86803392D02*
X53106250Y-86803392D01*
X52391964Y-85803392D02*
X52391964Y-88374821D01*
X52534821Y-88660535D01*
X52820535Y-88803392D01*
X53106250Y-88803392D01*
X56106250Y-86803392D02*
X56820535Y-88803392D01*
X57534821Y-86803392D01*
X60249107Y-88803392D02*
X58534821Y-88803392D01*
X59391964Y-88803392D02*
X59391964Y-85803392D01*
X59106250Y-86231964D01*
X58820535Y-86517678D01*
X58534821Y-86660535D01*
X61534821Y-88517678D02*
X61677678Y-88660535D01*
X61534821Y-88803392D01*
X61391964Y-88660535D01*
X61534821Y-88517678D01*
X61534821Y-88803392D01*
X62677678Y-85803392D02*
X64534821Y-85803392D01*
X63534821Y-86946250D01*
X63963392Y-86946250D01*
X64249107Y-87089107D01*
X64391964Y-87231964D01*
X64534821Y-87517678D01*
X64534821Y-88231964D01*
X64391964Y-88517678D01*
X64249107Y-88660535D01*
X63963392Y-88803392D01*
X63106250Y-88803392D01*
X62820535Y-88660535D01*
X62677678Y-88517678D01*
D11*
%TO.C,JST*%
X71572514Y-83655321D02*
X71572514Y-84471750D01*
X71518085Y-84635035D01*
X71409228Y-84743892D01*
X71245942Y-84798321D01*
X71137085Y-84798321D01*
X72062371Y-84743892D02*
X72225657Y-84798321D01*
X72497800Y-84798321D01*
X72606657Y-84743892D01*
X72661085Y-84689464D01*
X72715514Y-84580607D01*
X72715514Y-84471750D01*
X72661085Y-84362892D01*
X72606657Y-84308464D01*
X72497800Y-84254035D01*
X72280085Y-84199607D01*
X72171228Y-84145178D01*
X72116800Y-84090750D01*
X72062371Y-83981892D01*
X72062371Y-83873035D01*
X72116800Y-83764178D01*
X72171228Y-83709750D01*
X72280085Y-83655321D01*
X72552228Y-83655321D01*
X72715514Y-83709750D01*
X73042085Y-83655321D02*
X73695228Y-83655321D01*
X73368657Y-84798321D02*
X73368657Y-83655321D01*
X74493145Y-84733630D02*
X74493145Y-83733630D01*
X74921716Y-83828869D02*
X74969335Y-83781250D01*
X75064573Y-83733630D01*
X75302669Y-83733630D01*
X75397907Y-83781250D01*
X75445526Y-83828869D01*
X75493145Y-83924107D01*
X75493145Y-84019345D01*
X75445526Y-84162202D01*
X74874097Y-84733630D01*
X75493145Y-84733630D01*
X76493145Y-84638392D02*
X76445526Y-84686011D01*
X76302669Y-84733630D01*
X76207430Y-84733630D01*
X76064573Y-84686011D01*
X75969335Y-84590773D01*
X75921716Y-84495535D01*
X75874097Y-84305059D01*
X75874097Y-84162202D01*
X75921716Y-83971726D01*
X75969335Y-83876488D01*
X76064573Y-83781250D01*
X76207430Y-83733630D01*
X76302669Y-83733630D01*
X76445526Y-83781250D01*
X76493145Y-83828869D01*
D12*
X67477678Y-80921130D02*
X68096726Y-80921130D01*
X67763392Y-81302083D01*
X67906250Y-81302083D01*
X68001488Y-81349702D01*
X68049107Y-81397321D01*
X68096726Y-81492559D01*
X68096726Y-81730654D01*
X68049107Y-81825892D01*
X68001488Y-81873511D01*
X67906250Y-81921130D01*
X67620535Y-81921130D01*
X67525297Y-81873511D01*
X67477678Y-81825892D01*
X68525297Y-81825892D02*
X68572916Y-81873511D01*
X68525297Y-81921130D01*
X68477678Y-81873511D01*
X68525297Y-81825892D01*
X68525297Y-81921130D01*
X68906250Y-80921130D02*
X69525297Y-80921130D01*
X69191964Y-81302083D01*
X69334821Y-81302083D01*
X69430059Y-81349702D01*
X69477678Y-81397321D01*
X69525297Y-81492559D01*
X69525297Y-81730654D01*
X69477678Y-81825892D01*
X69430059Y-81873511D01*
X69334821Y-81921130D01*
X69049107Y-81921130D01*
X68953869Y-81873511D01*
X68906250Y-81825892D01*
X69858630Y-81254464D02*
X70096726Y-81921130D01*
X70334821Y-81254464D01*
X67785714Y-80279761D02*
X67928571Y-80327380D01*
X68166666Y-80327380D01*
X68261904Y-80279761D01*
X68309523Y-80232142D01*
X68357142Y-80136904D01*
X68357142Y-80041666D01*
X68309523Y-79946428D01*
X68261904Y-79898809D01*
X68166666Y-79851190D01*
X67976190Y-79803571D01*
X67880952Y-79755952D01*
X67833333Y-79708333D01*
X67785714Y-79613095D01*
X67785714Y-79517857D01*
X67833333Y-79422619D01*
X67880952Y-79375000D01*
X67976190Y-79327380D01*
X68214285Y-79327380D01*
X68357142Y-79375000D01*
X68785714Y-80327380D02*
X68785714Y-79327380D01*
X69023809Y-79327380D01*
X69166666Y-79375000D01*
X69261904Y-79470238D01*
X69309523Y-79565476D01*
X69357142Y-79755952D01*
X69357142Y-79898809D01*
X69309523Y-80089285D01*
X69261904Y-80184523D01*
X69166666Y-80279761D01*
X69023809Y-80327380D01*
X68785714Y-80327380D01*
X69738095Y-80041666D02*
X70214285Y-80041666D01*
X69642857Y-80327380D02*
X69976190Y-79327380D01*
X70309523Y-80327380D01*
X67809523Y-78592261D02*
X67952380Y-78639880D01*
X68190476Y-78639880D01*
X68285714Y-78592261D01*
X68333333Y-78544642D01*
X68380952Y-78449404D01*
X68380952Y-78354166D01*
X68333333Y-78258928D01*
X68285714Y-78211309D01*
X68190476Y-78163690D01*
X68000000Y-78116071D01*
X67904761Y-78068452D01*
X67857142Y-78020833D01*
X67809523Y-77925595D01*
X67809523Y-77830357D01*
X67857142Y-77735119D01*
X67904761Y-77687500D01*
X68000000Y-77639880D01*
X68238095Y-77639880D01*
X68380952Y-77687500D01*
X69380952Y-78544642D02*
X69333333Y-78592261D01*
X69190476Y-78639880D01*
X69095238Y-78639880D01*
X68952380Y-78592261D01*
X68857142Y-78497023D01*
X68809523Y-78401785D01*
X68761904Y-78211309D01*
X68761904Y-78068452D01*
X68809523Y-77877976D01*
X68857142Y-77782738D01*
X68952380Y-77687500D01*
X69095238Y-77639880D01*
X69190476Y-77639880D01*
X69333333Y-77687500D01*
X69380952Y-77735119D01*
X70285714Y-78639880D02*
X69809523Y-78639880D01*
X69809523Y-77639880D01*
X68144345Y-82562500D02*
X68049107Y-82514880D01*
X67906250Y-82514880D01*
X67763392Y-82562500D01*
X67668154Y-82657738D01*
X67620535Y-82752976D01*
X67572916Y-82943452D01*
X67572916Y-83086309D01*
X67620535Y-83276785D01*
X67668154Y-83372023D01*
X67763392Y-83467261D01*
X67906250Y-83514880D01*
X68001488Y-83514880D01*
X68144345Y-83467261D01*
X68191964Y-83419642D01*
X68191964Y-83086309D01*
X68001488Y-83086309D01*
X68620535Y-83514880D02*
X68620535Y-82514880D01*
X69191964Y-83514880D01*
X69191964Y-82514880D01*
X69668154Y-83514880D02*
X69668154Y-82514880D01*
X69906250Y-82514880D01*
X70049107Y-82562500D01*
X70144345Y-82657738D01*
X70191964Y-82752976D01*
X70239583Y-82943452D01*
X70239583Y-83086309D01*
X70191964Y-83276785D01*
X70144345Y-83372023D01*
X70049107Y-83467261D01*
X69906250Y-83514880D01*
X69668154Y-83514880D01*
D11*
%TO.C,S1*%
X32778514Y-127843642D02*
X32941800Y-127898071D01*
X33213942Y-127898071D01*
X33322800Y-127843642D01*
X33377228Y-127789214D01*
X33431657Y-127680357D01*
X33431657Y-127571500D01*
X33377228Y-127462642D01*
X33322800Y-127408214D01*
X33213942Y-127353785D01*
X32996228Y-127299357D01*
X32887371Y-127244928D01*
X32832942Y-127190500D01*
X32778514Y-127081642D01*
X32778514Y-126972785D01*
X32832942Y-126863928D01*
X32887371Y-126809500D01*
X32996228Y-126755071D01*
X33268371Y-126755071D01*
X33431657Y-126809500D01*
X34520228Y-127898071D02*
X33867085Y-127898071D01*
X34193657Y-127898071D02*
X34193657Y-126755071D01*
X34084800Y-126918357D01*
X33975942Y-127027214D01*
X33867085Y-127081642D01*
D12*
X18761607Y-115964107D02*
X18816369Y-115799821D01*
X18871130Y-115745059D01*
X18980654Y-115690297D01*
X19144940Y-115690297D01*
X19254464Y-115745059D01*
X19309226Y-115799821D01*
X19363988Y-115909345D01*
X19363988Y-116347440D01*
X18213988Y-116347440D01*
X18213988Y-115964107D01*
X18268750Y-115854583D01*
X18323511Y-115799821D01*
X18433035Y-115745059D01*
X18542559Y-115745059D01*
X18652083Y-115799821D01*
X18706845Y-115854583D01*
X18761607Y-115964107D01*
X18761607Y-116347440D01*
X19363988Y-115197440D02*
X18213988Y-115197440D01*
X19035416Y-114814107D01*
X18213988Y-114430773D01*
X19363988Y-114430773D01*
X19363988Y-113883154D02*
X18213988Y-113883154D01*
X18213988Y-113445059D01*
X18268750Y-113335535D01*
X18323511Y-113280773D01*
X18433035Y-113226011D01*
X18597321Y-113226011D01*
X18706845Y-113280773D01*
X18761607Y-113335535D01*
X18816369Y-113445059D01*
X18816369Y-113883154D01*
X18213988Y-112842678D02*
X18213988Y-112130773D01*
X18652083Y-112514107D01*
X18652083Y-112349821D01*
X18706845Y-112240297D01*
X18761607Y-112185535D01*
X18871130Y-112130773D01*
X19144940Y-112130773D01*
X19254464Y-112185535D01*
X19309226Y-112240297D01*
X19363988Y-112349821D01*
X19363988Y-112678392D01*
X19309226Y-112787916D01*
X19254464Y-112842678D01*
X18706845Y-111473630D02*
X18652083Y-111583154D01*
X18597321Y-111637916D01*
X18487797Y-111692678D01*
X18433035Y-111692678D01*
X18323511Y-111637916D01*
X18268750Y-111583154D01*
X18213988Y-111473630D01*
X18213988Y-111254583D01*
X18268750Y-111145059D01*
X18323511Y-111090297D01*
X18433035Y-111035535D01*
X18487797Y-111035535D01*
X18597321Y-111090297D01*
X18652083Y-111145059D01*
X18706845Y-111254583D01*
X18706845Y-111473630D01*
X18761607Y-111583154D01*
X18816369Y-111637916D01*
X18925892Y-111692678D01*
X19144940Y-111692678D01*
X19254464Y-111637916D01*
X19309226Y-111583154D01*
X19363988Y-111473630D01*
X19363988Y-111254583D01*
X19309226Y-111145059D01*
X19254464Y-111090297D01*
X19144940Y-111035535D01*
X18925892Y-111035535D01*
X18816369Y-111090297D01*
X18761607Y-111145059D01*
X18706845Y-111254583D01*
X18706845Y-110378392D02*
X18652083Y-110487916D01*
X18597321Y-110542678D01*
X18487797Y-110597440D01*
X18433035Y-110597440D01*
X18323511Y-110542678D01*
X18268750Y-110487916D01*
X18213988Y-110378392D01*
X18213988Y-110159345D01*
X18268750Y-110049821D01*
X18323511Y-109995059D01*
X18433035Y-109940297D01*
X18487797Y-109940297D01*
X18597321Y-109995059D01*
X18652083Y-110049821D01*
X18706845Y-110159345D01*
X18706845Y-110378392D01*
X18761607Y-110487916D01*
X18816369Y-110542678D01*
X18925892Y-110597440D01*
X19144940Y-110597440D01*
X19254464Y-110542678D01*
X19309226Y-110487916D01*
X19363988Y-110378392D01*
X19363988Y-110159345D01*
X19309226Y-110049821D01*
X19254464Y-109995059D01*
X19144940Y-109940297D01*
X18925892Y-109940297D01*
X18816369Y-109995059D01*
X18761607Y-110049821D01*
X18706845Y-110159345D01*
D11*
%TO.C,P2*%
X69191771Y-101860821D02*
X69191771Y-100717821D01*
X69627200Y-100717821D01*
X69736057Y-100772250D01*
X69790485Y-100826678D01*
X69844914Y-100935535D01*
X69844914Y-101098821D01*
X69790485Y-101207678D01*
X69736057Y-101262107D01*
X69627200Y-101316535D01*
X69191771Y-101316535D01*
X70280342Y-100826678D02*
X70334771Y-100772250D01*
X70443628Y-100717821D01*
X70715771Y-100717821D01*
X70824628Y-100772250D01*
X70879057Y-100826678D01*
X70933485Y-100935535D01*
X70933485Y-101044392D01*
X70879057Y-101207678D01*
X70225914Y-101860821D01*
X70933485Y-101860821D01*
D13*
X68547930Y-91333750D02*
X68426978Y-91273273D01*
X68245550Y-91273273D01*
X68064121Y-91333750D01*
X67943169Y-91454702D01*
X67882692Y-91575654D01*
X67822216Y-91817559D01*
X67822216Y-91998988D01*
X67882692Y-92240892D01*
X67943169Y-92361845D01*
X68064121Y-92482797D01*
X68245550Y-92543273D01*
X68366502Y-92543273D01*
X68547930Y-92482797D01*
X68608407Y-92422321D01*
X68608407Y-91998988D01*
X68366502Y-91998988D01*
X69152692Y-92543273D02*
X69152692Y-91273273D01*
X69636502Y-91273273D01*
X69757454Y-91333750D01*
X69817930Y-91394226D01*
X69878407Y-91515178D01*
X69878407Y-91696607D01*
X69817930Y-91817559D01*
X69757454Y-91878035D01*
X69636502Y-91938511D01*
X69152692Y-91938511D01*
X70422692Y-92543273D02*
X70422692Y-91273273D01*
X71269359Y-91273273D02*
X71511264Y-91273273D01*
X71632216Y-91333750D01*
X71753169Y-91454702D01*
X71813645Y-91696607D01*
X71813645Y-92119940D01*
X71753169Y-92361845D01*
X71632216Y-92482797D01*
X71511264Y-92543273D01*
X71269359Y-92543273D01*
X71148407Y-92482797D01*
X71027454Y-92361845D01*
X70966978Y-92119940D01*
X70966978Y-91696607D01*
X71027454Y-91454702D01*
X71148407Y-91333750D01*
X71269359Y-91273273D01*
D12*
X73394345Y-98875000D02*
X73299107Y-98827380D01*
X73156250Y-98827380D01*
X73013392Y-98875000D01*
X72918154Y-98970238D01*
X72870535Y-99065476D01*
X72822916Y-99255952D01*
X72822916Y-99398809D01*
X72870535Y-99589285D01*
X72918154Y-99684523D01*
X73013392Y-99779761D01*
X73156250Y-99827380D01*
X73251488Y-99827380D01*
X73394345Y-99779761D01*
X73441964Y-99732142D01*
X73441964Y-99398809D01*
X73251488Y-99398809D01*
X73870535Y-99827380D02*
X73870535Y-98827380D01*
X74441964Y-99827380D01*
X74441964Y-98827380D01*
X74918154Y-99827380D02*
X74918154Y-98827380D01*
X75156250Y-98827380D01*
X75299107Y-98875000D01*
X75394345Y-98970238D01*
X75441964Y-99065476D01*
X75489583Y-99255952D01*
X75489583Y-99398809D01*
X75441964Y-99589285D01*
X75394345Y-99684523D01*
X75299107Y-99779761D01*
X75156250Y-99827380D01*
X74918154Y-99827380D01*
X64196428Y-98921130D02*
X64815476Y-98921130D01*
X64482142Y-99302083D01*
X64625000Y-99302083D01*
X64720238Y-99349702D01*
X64767857Y-99397321D01*
X64815476Y-99492559D01*
X64815476Y-99730654D01*
X64767857Y-99825892D01*
X64720238Y-99873511D01*
X64625000Y-99921130D01*
X64339285Y-99921130D01*
X64244047Y-99873511D01*
X64196428Y-99825892D01*
X65244047Y-99825892D02*
X65291666Y-99873511D01*
X65244047Y-99921130D01*
X65196428Y-99873511D01*
X65244047Y-99825892D01*
X65244047Y-99921130D01*
X65625000Y-98921130D02*
X66244047Y-98921130D01*
X65910714Y-99302083D01*
X66053571Y-99302083D01*
X66148809Y-99349702D01*
X66196428Y-99397321D01*
X66244047Y-99492559D01*
X66244047Y-99730654D01*
X66196428Y-99825892D01*
X66148809Y-99873511D01*
X66053571Y-99921130D01*
X65767857Y-99921130D01*
X65672619Y-99873511D01*
X65625000Y-99825892D01*
X66577380Y-99254464D02*
X66815476Y-99921130D01*
X67053571Y-99254464D01*
X72831845Y-96391369D02*
X72879464Y-96343750D01*
X72974702Y-96296130D01*
X73212797Y-96296130D01*
X73308035Y-96343750D01*
X73355654Y-96391369D01*
X73403273Y-96486607D01*
X73403273Y-96581845D01*
X73355654Y-96724702D01*
X72784226Y-97296130D01*
X73403273Y-97296130D01*
X74355654Y-97296130D02*
X73784226Y-97296130D01*
X74069940Y-97296130D02*
X74069940Y-96296130D01*
X73974702Y-96438988D01*
X73879464Y-96534226D01*
X73784226Y-96581845D01*
X65519345Y-96391369D02*
X65566964Y-96343750D01*
X65662202Y-96296130D01*
X65900297Y-96296130D01*
X65995535Y-96343750D01*
X66043154Y-96391369D01*
X66090773Y-96486607D01*
X66090773Y-96581845D01*
X66043154Y-96724702D01*
X65471726Y-97296130D01*
X66090773Y-97296130D01*
X66709821Y-96296130D02*
X66805059Y-96296130D01*
X66900297Y-96343750D01*
X66947916Y-96391369D01*
X66995535Y-96486607D01*
X67043154Y-96677083D01*
X67043154Y-96915178D01*
X66995535Y-97105654D01*
X66947916Y-97200892D01*
X66900297Y-97248511D01*
X66805059Y-97296130D01*
X66709821Y-97296130D01*
X66614583Y-97248511D01*
X66566964Y-97200892D01*
X66519345Y-97105654D01*
X66471726Y-96915178D01*
X66471726Y-96677083D01*
X66519345Y-96486607D01*
X66566964Y-96391369D01*
X66614583Y-96343750D01*
X66709821Y-96296130D01*
X73403273Y-94568630D02*
X72831845Y-94568630D01*
X73117559Y-94568630D02*
X73117559Y-93568630D01*
X73022321Y-93711488D01*
X72927083Y-93806726D01*
X72831845Y-93854345D01*
X73736607Y-93568630D02*
X74355654Y-93568630D01*
X74022321Y-93949583D01*
X74165178Y-93949583D01*
X74260416Y-93997202D01*
X74308035Y-94044821D01*
X74355654Y-94140059D01*
X74355654Y-94378154D01*
X74308035Y-94473392D01*
X74260416Y-94521011D01*
X74165178Y-94568630D01*
X73879464Y-94568630D01*
X73784226Y-94521011D01*
X73736607Y-94473392D01*
X66090773Y-94671130D02*
X65519345Y-94671130D01*
X65805059Y-94671130D02*
X65805059Y-93671130D01*
X65709821Y-93813988D01*
X65614583Y-93909226D01*
X65519345Y-93956845D01*
X66471726Y-93766369D02*
X66519345Y-93718750D01*
X66614583Y-93671130D01*
X66852678Y-93671130D01*
X66947916Y-93718750D01*
X66995535Y-93766369D01*
X67043154Y-93861607D01*
X67043154Y-93956845D01*
X66995535Y-94099702D01*
X66424107Y-94671130D01*
X67043154Y-94671130D01*
D11*
%TO.C,P1*%
X55035521Y-101852071D02*
X55035521Y-100709071D01*
X55470950Y-100709071D01*
X55579807Y-100763500D01*
X55634235Y-100817928D01*
X55688664Y-100926785D01*
X55688664Y-101090071D01*
X55634235Y-101198928D01*
X55579807Y-101253357D01*
X55470950Y-101307785D01*
X55035521Y-101307785D01*
X56777235Y-101852071D02*
X56124092Y-101852071D01*
X56450664Y-101852071D02*
X56450664Y-100709071D01*
X56341807Y-100872357D01*
X56232950Y-100981214D01*
X56124092Y-101035642D01*
D13*
X54648645Y-92534523D02*
X54648645Y-91264523D01*
X55192930Y-91385476D02*
X55253407Y-91325000D01*
X55374359Y-91264523D01*
X55676740Y-91264523D01*
X55797692Y-91325000D01*
X55858169Y-91385476D01*
X55918645Y-91506428D01*
X55918645Y-91627380D01*
X55858169Y-91808809D01*
X55132454Y-92534523D01*
X55918645Y-92534523D01*
X57188645Y-92413571D02*
X57128169Y-92474047D01*
X56946740Y-92534523D01*
X56825788Y-92534523D01*
X56644359Y-92474047D01*
X56523407Y-92353095D01*
X56462930Y-92232142D01*
X56402454Y-91990238D01*
X56402454Y-91808809D01*
X56462930Y-91566904D01*
X56523407Y-91445952D01*
X56644359Y-91325000D01*
X56825788Y-91264523D01*
X56946740Y-91264523D01*
X57128169Y-91325000D01*
X57188645Y-91385476D01*
D12*
X50465773Y-94521011D02*
X50608630Y-94568630D01*
X50846726Y-94568630D01*
X50941964Y-94521011D01*
X50989583Y-94473392D01*
X51037202Y-94378154D01*
X51037202Y-94282916D01*
X50989583Y-94187678D01*
X50941964Y-94140059D01*
X50846726Y-94092440D01*
X50656250Y-94044821D01*
X50561011Y-93997202D01*
X50513392Y-93949583D01*
X50465773Y-93854345D01*
X50465773Y-93759107D01*
X50513392Y-93663869D01*
X50561011Y-93616250D01*
X50656250Y-93568630D01*
X50894345Y-93568630D01*
X51037202Y-93616250D01*
X52037202Y-94473392D02*
X51989583Y-94521011D01*
X51846726Y-94568630D01*
X51751488Y-94568630D01*
X51608630Y-94521011D01*
X51513392Y-94425773D01*
X51465773Y-94330535D01*
X51418154Y-94140059D01*
X51418154Y-93997202D01*
X51465773Y-93806726D01*
X51513392Y-93711488D01*
X51608630Y-93616250D01*
X51751488Y-93568630D01*
X51846726Y-93568630D01*
X51989583Y-93616250D01*
X52037202Y-93663869D01*
X52941964Y-94568630D02*
X52465773Y-94568630D01*
X52465773Y-93568630D01*
X50348214Y-97239761D02*
X50491071Y-97287380D01*
X50729166Y-97287380D01*
X50824404Y-97239761D01*
X50872023Y-97192142D01*
X50919642Y-97096904D01*
X50919642Y-97001666D01*
X50872023Y-96906428D01*
X50824404Y-96858809D01*
X50729166Y-96811190D01*
X50538690Y-96763571D01*
X50443452Y-96715952D01*
X50395833Y-96668333D01*
X50348214Y-96573095D01*
X50348214Y-96477857D01*
X50395833Y-96382619D01*
X50443452Y-96335000D01*
X50538690Y-96287380D01*
X50776785Y-96287380D01*
X50919642Y-96335000D01*
X51348214Y-97287380D02*
X51348214Y-96287380D01*
X51586309Y-96287380D01*
X51729166Y-96335000D01*
X51824404Y-96430238D01*
X51872023Y-96525476D01*
X51919642Y-96715952D01*
X51919642Y-96858809D01*
X51872023Y-97049285D01*
X51824404Y-97144523D01*
X51729166Y-97239761D01*
X51586309Y-97287380D01*
X51348214Y-97287380D01*
X52300595Y-97001666D02*
X52776785Y-97001666D01*
X52205357Y-97287380D02*
X52538690Y-96287380D01*
X52872023Y-97287380D01*
X58852678Y-93568630D02*
X59471726Y-93568630D01*
X59138392Y-93949583D01*
X59281250Y-93949583D01*
X59376488Y-93997202D01*
X59424107Y-94044821D01*
X59471726Y-94140059D01*
X59471726Y-94378154D01*
X59424107Y-94473392D01*
X59376488Y-94521011D01*
X59281250Y-94568630D01*
X58995535Y-94568630D01*
X58900297Y-94521011D01*
X58852678Y-94473392D01*
X59900297Y-94473392D02*
X59947916Y-94521011D01*
X59900297Y-94568630D01*
X59852678Y-94521011D01*
X59900297Y-94473392D01*
X59900297Y-94568630D01*
X60281250Y-93568630D02*
X60900297Y-93568630D01*
X60566964Y-93949583D01*
X60709821Y-93949583D01*
X60805059Y-93997202D01*
X60852678Y-94044821D01*
X60900297Y-94140059D01*
X60900297Y-94378154D01*
X60852678Y-94473392D01*
X60805059Y-94521011D01*
X60709821Y-94568630D01*
X60424107Y-94568630D01*
X60328869Y-94521011D01*
X60281250Y-94473392D01*
X61233630Y-93901964D02*
X61471726Y-94568630D01*
X61709821Y-93901964D01*
X59388392Y-96287380D02*
X58912202Y-96287380D01*
X58864583Y-96763571D01*
X58912202Y-96715952D01*
X59007440Y-96668333D01*
X59245535Y-96668333D01*
X59340773Y-96715952D01*
X59388392Y-96763571D01*
X59436011Y-96858809D01*
X59436011Y-97096904D01*
X59388392Y-97192142D01*
X59340773Y-97239761D01*
X59245535Y-97287380D01*
X59007440Y-97287380D01*
X58912202Y-97239761D01*
X58864583Y-97192142D01*
X59769345Y-96620714D02*
X60007440Y-97287380D01*
X60245535Y-96620714D01*
X59425595Y-98866250D02*
X59330357Y-98818630D01*
X59187500Y-98818630D01*
X59044642Y-98866250D01*
X58949404Y-98961488D01*
X58901785Y-99056726D01*
X58854166Y-99247202D01*
X58854166Y-99390059D01*
X58901785Y-99580535D01*
X58949404Y-99675773D01*
X59044642Y-99771011D01*
X59187500Y-99818630D01*
X59282738Y-99818630D01*
X59425595Y-99771011D01*
X59473214Y-99723392D01*
X59473214Y-99390059D01*
X59282738Y-99390059D01*
X59901785Y-99818630D02*
X59901785Y-98818630D01*
X60473214Y-99818630D01*
X60473214Y-98818630D01*
X60949404Y-99818630D02*
X60949404Y-98818630D01*
X61187500Y-98818630D01*
X61330357Y-98866250D01*
X61425595Y-98961488D01*
X61473214Y-99056726D01*
X61520833Y-99247202D01*
X61520833Y-99390059D01*
X61473214Y-99580535D01*
X61425595Y-99675773D01*
X61330357Y-99771011D01*
X61187500Y-99818630D01*
X60949404Y-99818630D01*
X50894345Y-98772500D02*
X50799107Y-98724880D01*
X50656250Y-98724880D01*
X50513392Y-98772500D01*
X50418154Y-98867738D01*
X50370535Y-98962976D01*
X50322916Y-99153452D01*
X50322916Y-99296309D01*
X50370535Y-99486785D01*
X50418154Y-99582023D01*
X50513392Y-99677261D01*
X50656250Y-99724880D01*
X50751488Y-99724880D01*
X50894345Y-99677261D01*
X50941964Y-99629642D01*
X50941964Y-99296309D01*
X50751488Y-99296309D01*
X51370535Y-99724880D02*
X51370535Y-98724880D01*
X51941964Y-99724880D01*
X51941964Y-98724880D01*
X52418154Y-99724880D02*
X52418154Y-98724880D01*
X52656250Y-98724880D01*
X52799107Y-98772500D01*
X52894345Y-98867738D01*
X52941964Y-98962976D01*
X52989583Y-99153452D01*
X52989583Y-99296309D01*
X52941964Y-99486785D01*
X52894345Y-99582023D01*
X52799107Y-99677261D01*
X52656250Y-99724880D01*
X52418154Y-99724880D01*
D11*
%TO.C,S3*%
X45547642Y-117666485D02*
X45602071Y-117503200D01*
X45602071Y-117231057D01*
X45547642Y-117122200D01*
X45493214Y-117067771D01*
X45384357Y-117013342D01*
X45275500Y-117013342D01*
X45166642Y-117067771D01*
X45112214Y-117122200D01*
X45057785Y-117231057D01*
X45003357Y-117448771D01*
X44948928Y-117557628D01*
X44894500Y-117612057D01*
X44785642Y-117666485D01*
X44676785Y-117666485D01*
X44567928Y-117612057D01*
X44513500Y-117557628D01*
X44459071Y-117448771D01*
X44459071Y-117176628D01*
X44513500Y-117013342D01*
X44459071Y-116632342D02*
X44459071Y-115924771D01*
X44894500Y-116305771D01*
X44894500Y-116142485D01*
X44948928Y-116033628D01*
X45003357Y-115979200D01*
X45112214Y-115924771D01*
X45384357Y-115924771D01*
X45493214Y-115979200D01*
X45547642Y-116033628D01*
X45602071Y-116142485D01*
X45602071Y-116469057D01*
X45547642Y-116577914D01*
X45493214Y-116632342D01*
D12*
X72238988Y-116628690D02*
X71088988Y-116628690D01*
X71910416Y-116245357D01*
X71088988Y-115862023D01*
X72238988Y-115862023D01*
X72238988Y-115314404D02*
X71088988Y-115314404D01*
X71088988Y-114876309D01*
X71143750Y-114766785D01*
X71198511Y-114712023D01*
X71308035Y-114657261D01*
X71472321Y-114657261D01*
X71581845Y-114712023D01*
X71636607Y-114766785D01*
X71691369Y-114876309D01*
X71691369Y-115314404D01*
X71088988Y-114164404D02*
X72019940Y-114164404D01*
X72129464Y-114109642D01*
X72184226Y-114054880D01*
X72238988Y-113945357D01*
X72238988Y-113726309D01*
X72184226Y-113616785D01*
X72129464Y-113562023D01*
X72019940Y-113507261D01*
X71088988Y-113507261D01*
X71088988Y-112466785D02*
X71088988Y-112685833D01*
X71143750Y-112795357D01*
X71198511Y-112850119D01*
X71362797Y-112959642D01*
X71581845Y-113014404D01*
X72019940Y-113014404D01*
X72129464Y-112959642D01*
X72184226Y-112904880D01*
X72238988Y-112795357D01*
X72238988Y-112576309D01*
X72184226Y-112466785D01*
X72129464Y-112412023D01*
X72019940Y-112357261D01*
X71746130Y-112357261D01*
X71636607Y-112412023D01*
X71581845Y-112466785D01*
X71527083Y-112576309D01*
X71527083Y-112795357D01*
X71581845Y-112904880D01*
X71636607Y-112959642D01*
X71746130Y-113014404D01*
X71088988Y-111645357D02*
X71088988Y-111535833D01*
X71143750Y-111426309D01*
X71198511Y-111371547D01*
X71308035Y-111316785D01*
X71527083Y-111262023D01*
X71800892Y-111262023D01*
X72019940Y-111316785D01*
X72129464Y-111371547D01*
X72184226Y-111426309D01*
X72238988Y-111535833D01*
X72238988Y-111645357D01*
X72184226Y-111754880D01*
X72129464Y-111809642D01*
X72019940Y-111864404D01*
X71800892Y-111919166D01*
X71527083Y-111919166D01*
X71308035Y-111864404D01*
X71198511Y-111809642D01*
X71143750Y-111754880D01*
X71088988Y-111645357D01*
X71088988Y-110221547D02*
X71088988Y-110769166D01*
X71636607Y-110823928D01*
X71581845Y-110769166D01*
X71527083Y-110659642D01*
X71527083Y-110385833D01*
X71581845Y-110276309D01*
X71636607Y-110221547D01*
X71746130Y-110166785D01*
X72019940Y-110166785D01*
X72129464Y-110221547D01*
X72184226Y-110276309D01*
X72238988Y-110385833D01*
X72238988Y-110659642D01*
X72184226Y-110769166D01*
X72129464Y-110823928D01*
X71088988Y-109454880D02*
X71088988Y-109345357D01*
X71143750Y-109235833D01*
X71198511Y-109181071D01*
X71308035Y-109126309D01*
X71527083Y-109071547D01*
X71800892Y-109071547D01*
X72019940Y-109126309D01*
X72129464Y-109181071D01*
X72184226Y-109235833D01*
X72238988Y-109345357D01*
X72238988Y-109454880D01*
X72184226Y-109564404D01*
X72129464Y-109619166D01*
X72019940Y-109673928D01*
X71800892Y-109728690D01*
X71527083Y-109728690D01*
X71308035Y-109673928D01*
X71198511Y-109619166D01*
X71143750Y-109564404D01*
X71088988Y-109454880D01*
X73110119Y-121235119D02*
X72110119Y-121901785D01*
X73110119Y-121901785D02*
X72110119Y-121235119D01*
X72491071Y-123044642D02*
X72491071Y-123806547D01*
X72776785Y-124282738D02*
X72491071Y-125044642D01*
X72205357Y-124282738D01*
X76244047Y-125742559D02*
X76244047Y-125266369D01*
X76577380Y-126266369D02*
X76244047Y-125742559D01*
X75910714Y-126266369D01*
X74815476Y-125647321D02*
X74053571Y-125647321D01*
X73577380Y-125933035D02*
X72815476Y-125647321D01*
X73577380Y-125361607D01*
D11*
%TO.C,X1*%
X14980835Y-100811571D02*
X15742835Y-101954571D01*
X15742835Y-100811571D02*
X14980835Y-101954571D01*
X16776978Y-101954571D02*
X16123835Y-101954571D01*
X16450407Y-101954571D02*
X16450407Y-100811571D01*
X16341550Y-100974857D01*
X16232692Y-101083714D01*
X16123835Y-101138142D01*
X18742835Y-101954571D02*
X18361835Y-101410285D01*
X18089692Y-101954571D02*
X18089692Y-100811571D01*
X18525121Y-100811571D01*
X18633978Y-100866000D01*
X18688407Y-100920428D01*
X18742835Y-101029285D01*
X18742835Y-101192571D01*
X18688407Y-101301428D01*
X18633978Y-101355857D01*
X18525121Y-101410285D01*
X18089692Y-101410285D01*
X19722550Y-101954571D02*
X19722550Y-101355857D01*
X19668121Y-101247000D01*
X19559264Y-101192571D01*
X19341550Y-101192571D01*
X19232692Y-101247000D01*
X19722550Y-101900142D02*
X19613692Y-101954571D01*
X19341550Y-101954571D01*
X19232692Y-101900142D01*
X19178264Y-101791285D01*
X19178264Y-101682428D01*
X19232692Y-101573571D01*
X19341550Y-101519142D01*
X19613692Y-101519142D01*
X19722550Y-101464714D01*
X20212407Y-101900142D02*
X20321264Y-101954571D01*
X20538978Y-101954571D01*
X20647835Y-101900142D01*
X20702264Y-101791285D01*
X20702264Y-101736857D01*
X20647835Y-101628000D01*
X20538978Y-101573571D01*
X20375692Y-101573571D01*
X20266835Y-101519142D01*
X20212407Y-101410285D01*
X20212407Y-101355857D01*
X20266835Y-101247000D01*
X20375692Y-101192571D01*
X20538978Y-101192571D01*
X20647835Y-101247000D01*
X21192121Y-101192571D02*
X21192121Y-102335571D01*
X21192121Y-101247000D02*
X21300978Y-101192571D01*
X21518692Y-101192571D01*
X21627550Y-101247000D01*
X21681978Y-101301428D01*
X21736407Y-101410285D01*
X21736407Y-101736857D01*
X21681978Y-101845714D01*
X21627550Y-101900142D01*
X21518692Y-101954571D01*
X21300978Y-101954571D01*
X21192121Y-101900142D01*
X22226264Y-101954571D02*
X22226264Y-100811571D01*
X22226264Y-101247000D02*
X22335121Y-101192571D01*
X22552835Y-101192571D01*
X22661692Y-101247000D01*
X22716121Y-101301428D01*
X22770550Y-101410285D01*
X22770550Y-101736857D01*
X22716121Y-101845714D01*
X22661692Y-101900142D01*
X22552835Y-101954571D01*
X22335121Y-101954571D01*
X22226264Y-101900142D01*
X23695835Y-101900142D02*
X23586978Y-101954571D01*
X23369264Y-101954571D01*
X23260407Y-101900142D01*
X23205978Y-101791285D01*
X23205978Y-101355857D01*
X23260407Y-101247000D01*
X23369264Y-101192571D01*
X23586978Y-101192571D01*
X23695835Y-101247000D01*
X23750264Y-101355857D01*
X23750264Y-101464714D01*
X23205978Y-101573571D01*
X24240121Y-101954571D02*
X24240121Y-101192571D01*
X24240121Y-101410285D02*
X24294550Y-101301428D01*
X24348978Y-101247000D01*
X24457835Y-101192571D01*
X24566692Y-101192571D01*
X24947692Y-101954571D02*
X24947692Y-101192571D01*
X24947692Y-101410285D02*
X25002121Y-101301428D01*
X25056550Y-101247000D01*
X25165407Y-101192571D01*
X25274264Y-101192571D01*
X25546407Y-101192571D02*
X25818550Y-101954571D01*
X26090692Y-101192571D02*
X25818550Y-101954571D01*
X25709692Y-102226714D01*
X25655264Y-102281142D01*
X25546407Y-102335571D01*
X27396978Y-101954571D02*
X27396978Y-100811571D01*
X27832407Y-100811571D01*
X27941264Y-100866000D01*
X27995692Y-100920428D01*
X28050121Y-101029285D01*
X28050121Y-101192571D01*
X27995692Y-101301428D01*
X27941264Y-101355857D01*
X27832407Y-101410285D01*
X27396978Y-101410285D01*
X28539978Y-101954571D02*
X28539978Y-101192571D01*
X28539978Y-100811571D02*
X28485550Y-100866000D01*
X28539978Y-100920428D01*
X28594407Y-100866000D01*
X28539978Y-100811571D01*
X28539978Y-100920428D01*
X29846264Y-100811571D02*
X30608264Y-100811571D01*
X29846264Y-101954571D01*
X30608264Y-101954571D01*
X31479121Y-101900142D02*
X31370264Y-101954571D01*
X31152550Y-101954571D01*
X31043692Y-101900142D01*
X30989264Y-101791285D01*
X30989264Y-101355857D01*
X31043692Y-101247000D01*
X31152550Y-101192571D01*
X31370264Y-101192571D01*
X31479121Y-101247000D01*
X31533550Y-101355857D01*
X31533550Y-101464714D01*
X30989264Y-101573571D01*
X32023407Y-101954571D02*
X32023407Y-101192571D01*
X32023407Y-101410285D02*
X32077835Y-101301428D01*
X32132264Y-101247000D01*
X32241121Y-101192571D01*
X32349978Y-101192571D01*
X32894264Y-101954571D02*
X32785407Y-101900142D01*
X32730978Y-101845714D01*
X32676550Y-101736857D01*
X32676550Y-101410285D01*
X32730978Y-101301428D01*
X32785407Y-101247000D01*
X32894264Y-101192571D01*
X33057550Y-101192571D01*
X33166407Y-101247000D01*
X33220835Y-101301428D01*
X33275264Y-101410285D01*
X33275264Y-101736857D01*
X33220835Y-101845714D01*
X33166407Y-101900142D01*
X33057550Y-101954571D01*
X32894264Y-101954571D01*
X34527121Y-100811571D02*
X34799264Y-101954571D01*
X35016978Y-101138142D01*
X35234692Y-101954571D01*
X35506835Y-100811571D01*
D14*
%TO.C,JST*%
X71644000Y-81280000D02*
X70644000Y-82780000D01*
X71644000Y-80280000D02*
X70644000Y-81280000D01*
X71644000Y-79280000D02*
X70644000Y-79780000D01*
X70644000Y-78280000D02*
X71644000Y-78280000D01*
X74644000Y-82780000D02*
X72994000Y-82780000D01*
X72994000Y-82780000D02*
X72994000Y-82030000D01*
X72994000Y-77530000D02*
X72994000Y-76780000D01*
X72994000Y-76780000D02*
X74644000Y-76780000D01*
X77244000Y-81280000D02*
X77244000Y-78280000D01*
D15*
X72343670Y-82139007D02*
G75*
G03*
X72350000Y-82139000I3330J-140993D01*
G01*
D11*
%TO.C,S1*%
X22194000Y-109114000D02*
G75*
G03*
X19654000Y-111654000I0J-2540000D01*
G01*
X19654000Y-124354000D02*
G75*
G03*
X22194000Y-126894000I2540000J0D01*
G01*
X42564956Y-126894000D02*
G75*
G03*
X45105000Y-124354000I44J2540000D01*
G01*
X45054000Y-111654044D02*
G75*
G03*
X42514000Y-109114000I-2540000J44D01*
G01*
X45109000Y-124354000D02*
X45054000Y-111654000D01*
X19654000Y-111654000D02*
X19654000Y-124354000D01*
X22194000Y-126894000D02*
X42514000Y-126894000D01*
X42531000Y-109111000D02*
X22211000Y-109111000D01*
D16*
%TO.C,P2*%
X67397500Y-100466250D02*
X72477500Y-100466250D01*
X67397500Y-92846250D02*
X72477500Y-92846250D01*
X72477500Y-92846250D02*
X72477500Y-100466250D01*
X67397500Y-92846250D02*
X67397500Y-100466250D01*
%TO.C,P1*%
X53325750Y-100466250D02*
X58405750Y-100466250D01*
X53325750Y-92846250D02*
X58405750Y-92846250D01*
X58405750Y-92846250D02*
X58405750Y-100466250D01*
X53325750Y-92846250D02*
X53325750Y-100466250D01*
D14*
%TO.C,S3*%
X45339000Y-126873000D02*
X45339000Y-109093000D01*
X45339000Y-109093000D02*
X70739000Y-109093000D01*
X70739000Y-109093000D02*
X70739000Y-126873000D01*
X70739000Y-126873000D02*
X45339000Y-126873000D01*
X49149000Y-125603000D02*
X49149000Y-123063000D01*
X49149000Y-123063000D02*
X66929000Y-123063000D01*
X66929000Y-123063000D02*
X66929000Y-125603000D01*
X66929000Y-125603000D02*
X49149000Y-125603000D01*
X49149000Y-112903000D02*
X49149000Y-110363000D01*
X49149000Y-110363000D02*
X66929000Y-110363000D01*
X66929000Y-110363000D02*
X66929000Y-112903000D01*
X66929000Y-112903000D02*
X49149000Y-112903000D01*
%TO.C,X1*%
X12700000Y-105817000D02*
X12700000Y-128817000D01*
X16200000Y-102317000D02*
X74200000Y-102301000D01*
X74204000Y-132301000D02*
X16200000Y-132301000D01*
X77700000Y-105797000D02*
X77700000Y-128801000D01*
X19739000Y-103200000D02*
X19739000Y-105801000D01*
X19739000Y-105801000D02*
X22340000Y-105801000D01*
X22340000Y-105801000D02*
X22340000Y-108402000D01*
X22340000Y-108402000D02*
X70661000Y-108402000D01*
X70661000Y-108402000D02*
X70661000Y-103200000D01*
X70661000Y-103200000D02*
X19739000Y-103200000D01*
X21070000Y-108402000D02*
X19739000Y-108402000D01*
X19739000Y-108402000D02*
X19739000Y-107071000D01*
X77699998Y-105797335D02*
G75*
G03*
X74200000Y-102301000I-3499998J-3665D01*
G01*
X74203604Y-132300998D02*
G75*
G03*
X77700000Y-128801000I-3604J3499998D01*
G01*
X12700002Y-128804604D02*
G75*
G03*
X16200000Y-132301000I3499998J3604D01*
G01*
X16196396Y-102301002D02*
G75*
G03*
X12700000Y-105801000I3604J-3499998D01*
G01*
X21600000Y-125301000D02*
X35600000Y-125301000D01*
X35600000Y-125301000D02*
X35600000Y-132301000D01*
X35600000Y-132301000D02*
X21600000Y-132301000D01*
X21600000Y-132301000D02*
X21600000Y-125301000D01*
X50100000Y-128801000D02*
X58100000Y-128801000D01*
X58100000Y-128801000D02*
X58100000Y-132301000D01*
X58100000Y-132301000D02*
X50100000Y-132301000D01*
X50100000Y-132301000D02*
X50100000Y-128801000D01*
X62700000Y-128801000D02*
X70700000Y-128801000D01*
X70700000Y-128801000D02*
X70700000Y-132301000D01*
X70700000Y-132301000D02*
X62700000Y-132301000D01*
X62700000Y-132301000D02*
X62700000Y-128801000D01*
%TD*%
M02*
