%TF.GenerationSoftware,KiCad,Pcbnew,(6.0.1)*%
%TF.CreationDate,2022-01-30T17:08:52-06:00*%
%TF.ProjectId,BlackBox Hat,426c6163-6b42-46f7-9820-4861742e6b69,rev?*%
%TF.SameCoordinates,Original*%
%TF.FileFunction,Soldermask,Top*%
%TF.FilePolarity,Negative*%
%FSLAX46Y46*%
G04 Gerber Fmt 4.6, Leading zero omitted, Abs format (unit mm)*
G04 Created by KiCad (PCBNEW (6.0.1)) date 2022-01-30 17:08:52*
%MOMM*%
%LPD*%
G01*
G04 APERTURE LIST*
%ADD10R,2.000000X1.200000*%
%ADD11R,1.350000X0.600000*%
%ADD12C,1.499000*%
%ADD13C,2.540000*%
%ADD14R,1.499000X1.499000*%
%ADD15C,1.524000*%
%ADD16C,2.500000*%
%ADD17C,1.700000*%
%ADD18R,1.700000X1.700000*%
G04 APERTURE END LIST*
D10*
%TO.C,JST*%
X76319000Y-82580000D03*
X76319000Y-76980000D03*
D11*
X72644000Y-81280000D03*
X72644000Y-80280000D03*
X72644000Y-79280000D03*
X72644000Y-78280000D03*
%TD*%
D12*
%TO.C,S1*%
X23495000Y-112133000D03*
X26035000Y-112133000D03*
X28575000Y-112133000D03*
X41275000Y-112133000D03*
X38735000Y-112133000D03*
X36195000Y-112133000D03*
X33655000Y-112133000D03*
X31115000Y-112133000D03*
D13*
X42641000Y-124354000D03*
X22194000Y-124354000D03*
%TD*%
D14*
%TO.C,P2*%
X68667500Y-94116250D03*
D12*
X71207500Y-94116250D03*
X68667500Y-96656250D03*
X71207500Y-96656250D03*
X68667500Y-99196250D03*
X71207500Y-99196250D03*
%TD*%
D14*
%TO.C,P1*%
X54595750Y-94116250D03*
D12*
X57135750Y-94116250D03*
X54595750Y-96656250D03*
X57135750Y-96656250D03*
X54595750Y-99196250D03*
X57135750Y-99196250D03*
%TD*%
D15*
%TO.C,S3*%
X31877000Y-78486000D03*
X29337000Y-78486000D03*
X24257000Y-78486000D03*
X26797000Y-78486000D03*
X19177000Y-78486000D03*
X21717000Y-78486000D03*
X21717000Y-98806000D03*
X19177000Y-98806000D03*
X26797000Y-98806000D03*
X24257000Y-98806000D03*
X29337000Y-98806000D03*
X31877000Y-98806000D03*
%TD*%
%TO.C,S3*%
X54229000Y-124333000D03*
X56769000Y-124333000D03*
X59309000Y-124333000D03*
X61849000Y-124333000D03*
X64389000Y-124333000D03*
X51689000Y-124333000D03*
X64389000Y-111633000D03*
X61849000Y-111633000D03*
X59309000Y-111633000D03*
X56769000Y-111633000D03*
X54229000Y-111633000D03*
X51689000Y-111633000D03*
%TD*%
D16*
%TO.C,X1*%
X16200000Y-105801000D03*
X74200000Y-105801000D03*
X16200000Y-128801000D03*
X74200000Y-128801000D03*
D17*
X69330000Y-104531000D03*
X69330000Y-107071000D03*
X66790000Y-104531000D03*
X66790000Y-107071000D03*
X64250000Y-104531000D03*
X64250000Y-107071000D03*
X61710000Y-104531000D03*
X61710000Y-107071000D03*
X59170000Y-104531000D03*
X59170000Y-107071000D03*
X56630000Y-104531000D03*
X56630000Y-107071000D03*
X54090000Y-104531000D03*
X54090000Y-107071000D03*
X51550000Y-104531000D03*
X51550000Y-107071000D03*
X49010000Y-104531000D03*
X49010000Y-107071000D03*
X46470000Y-104531000D03*
X46470000Y-107071000D03*
X43930000Y-104531000D03*
X43930000Y-107071000D03*
X41390000Y-104531000D03*
X41390000Y-107071000D03*
X38850000Y-104531000D03*
X38850000Y-107071000D03*
X36310000Y-104531000D03*
X36310000Y-107071000D03*
X33770000Y-104531000D03*
X33770000Y-107071000D03*
X31230000Y-104531000D03*
X31230000Y-107071000D03*
X28690000Y-104531000D03*
X28690000Y-107071000D03*
X26150000Y-104531000D03*
X26150000Y-107071000D03*
X23610000Y-104531000D03*
X23610000Y-107071000D03*
X21070000Y-104531000D03*
D18*
X21070000Y-107071000D03*
%TD*%
M02*
